<svg width="80" height="80" viewBox="0 0 80 80" fill="none" xmlns="http://www.w3.org/2000/svg">
<g clip-path="url(#clip0)">
<path d="M79.9998 61.2258C79.9998 62.7742 78.8385 63.9355 77.2901 63.9355H2.70943C1.16105 63.9355 -0.000244141 62.7742 -0.000244141 61.2258V18.6452C-0.000244141 17.0968 1.16105 15.9355 2.70943 15.9355H77.2901C78.8385 15.9355 79.9998 17.0968 79.9998 18.6452V61.2258Z" fill="url(#paint0_linear)"/>
<path d="M79.9998 25H-0.000244141V34.7742H79.9998V25Z" fill="url(#paint1_linear)"/>
<path d="M79.9998 61.2258C79.9998 62.7742 78.8385 63.9355 77.2901 63.9355H2.70943C1.16105 63.9355 -0.000244141 62.7742 -0.000244141 61.2258" fill="#0CC69A"/>
<path d="M77.2901 63.9355C78.8384 63.9355 79.9997 62.7742 79.9997 61.2258H72.7739L77.2901 63.9355Z" fill="#0BAF84"/>
<path d="M28.6449 42.6452C28.6449 43.1613 28.2578 43.5484 27.7417 43.5484H8.5159C7.99977 43.5484 7.61267 43.1613 7.61267 42.6452C7.61267 42.129 7.99977 41.7419 8.5159 41.7419H27.7417C28.2578 41.7419 28.6449 42.129 28.6449 42.6452Z" fill="white"/>
<path d="M28.6449 47.2904C28.6449 47.8065 28.2578 48.1936 27.7417 48.1936H8.5159C7.99977 48.1936 7.61267 47.8065 7.61267 47.2904C7.7417 46.7742 8.1288 46.3871 8.5159 46.3871H27.7417C28.2578 46.3871 28.6449 46.7742 28.6449 47.2904Z" fill="white"/>
<path d="M24.903 51.9355C24.903 52.4516 24.5159 52.8387 23.9998 52.8387H8.51589C8.1288 52.8387 7.7417 52.4516 7.7417 51.9355C7.7417 51.4193 8.1288 51.0322 8.64492 51.0322H24.1288C24.5159 51.1613 24.903 51.5484 24.903 51.9355Z" fill="white"/>
<path opacity="0.2" d="M65.8062 58.129C71.1509 58.129 75.4836 53.7963 75.4836 48.4516C75.4836 43.1069 71.1509 38.7742 65.8062 38.7742C60.4615 38.7742 56.1288 43.1069 56.1288 48.4516C56.1288 53.7963 60.4615 58.129 65.8062 58.129Z" fill="white"/>
</g>
<defs>
<linearGradient id="paint0_linear" x1="-0.000244141" y1="15.9355" x2="83.1119" y2="27.4674" gradientUnits="userSpaceOnUse">
<stop stop-color="#45D53A"/>
<stop offset="1" stop-color="#24BD18"/>
</linearGradient>
<linearGradient id="paint1_linear" x1="72.1795" y1="33.0379" x2="71.1806" y2="22.6732" gradientUnits="userSpaceOnUse">
<stop/>
<stop offset="0.9811" stop-color="#2F2F2F"/>
</linearGradient>
<clipPath id="clip0">
<rect width="80" height="80" fill="white" transform="translate(-0.000244141)"/>
</clipPath>
</defs>
</svg>
