<svg width="80" height="80" viewBox="0 0 80 80" fill="none" xmlns="http://www.w3.org/2000/svg">
<path d="M26.4517 32.2581V16.5161C26.4517 11.4839 31.0969 7.74194 34.8388 7.74194H43.8711C50.1936 7.74194 53.5485 11.4839 53.5485 16.5161V32.2581H61.2904V16.5161C61.2904 7.22581 54.4517 0 43.8711 0H34.8388C26.8388 0 18.7098 7.22581 18.7098 16.5161V32.2581H26.4517Z" fill="url(#paint0_linear)"/>
<path d="M65.1614 72.5161C65.1614 76.7742 62.5807 80 58.3227 80H22.9678C18.7098 80 14.8388 76.7742 14.8388 72.5161V34.5806C14.8388 30.3226 18.7098 29.6774 22.9678 29.6774H58.3227C62.5807 29.6774 65.1614 30.3226 65.1614 34.5806V72.5161Z" fill="#E8961F"/>
<path d="M65.1614 72.5161C65.1614 76.7742 62.5807 80 58.3227 80H22.9678C18.7098 80 14.8388 76.7742 14.8388 72.5161V34.5806C14.8388 30.3226 18.7098 29.6774 22.9678 29.6774H58.3227C62.5807 29.6774 65.1614 30.3226 65.1614 34.5806V72.5161Z" fill="url(#paint1_linear)"/>
<path d="M46.9679 49.4194C46.9679 45.8065 44.1291 42.8387 40.5162 42.8387C36.9033 42.8387 34.1937 45.8065 34.1937 49.4194C34.1937 52 35.484 54.0645 38.0646 55.2258V67.3548C38.0646 69.0323 38.9679 70.3226 40.6453 70.3226C42.3227 70.3226 43.2259 69.0323 43.2259 67.3548V55.2258C45.8066 54.0645 46.9679 52 46.9679 49.4194Z" fill="black"/>
<path d="M46.9679 49.4194C46.9679 45.8065 44.1291 42.8387 40.5162 42.8387C36.9033 42.8387 34.1937 45.8065 34.1937 49.4194C34.1937 52 35.484 54.0645 38.0646 55.2258V67.3548C38.0646 69.0323 38.9679 70.3226 40.6453 70.3226C42.3227 70.3226 43.2259 69.0323 43.2259 67.3548V55.2258C45.8066 54.0645 46.9679 52 46.9679 49.4194Z" fill="url(#paint2_linear)"/>
<defs>
<linearGradient id="paint0_linear" x1="18.7098" y1="23" x2="61.2904" y2="24" gradientUnits="userSpaceOnUse">
<stop stop-color="#DFE3F3"/>
<stop offset="1" stop-color="#C1CAE8"/>
</linearGradient>
<linearGradient id="paint1_linear" x1="65.1614" y1="80" x2="37.277" y2="68.8136" gradientUnits="userSpaceOnUse">
<stop stop-color="#FF460F"/>
<stop offset="1" stop-color="#FFC400"/>
</linearGradient>
<linearGradient id="paint2_linear" x1="45.7191" y1="65.4401" x2="32.8537" y2="57.8593" gradientUnits="userSpaceOnUse">
<stop/>
<stop offset="0.9811" stop-color="#2F2F2F"/>
</linearGradient>
</defs>
</svg>
