<svg width="80" height="80" viewBox="0 0 80 80" fill="none" xmlns="http://www.w3.org/2000/svg">
<path d="M2.58069 35.0968L11.3549 62.0645C11.3549 69.2903 17.2904 75.0968 24.5162 75.0968H55.3549C62.5807 75.0968 68.5162 69.2903 68.5162 62.0645L77.4194 35.0968H2.58069Z" fill="url(#paint0_linear)"/>
<path d="M80 36.6452C80 39.4839 77.5484 41.5484 74.1935 41.5484H5.80645C2.45161 41.5484 0 39.4839 0 36.6452V33.6774C0 30.7097 2.45161 28.6452 5.80645 28.6452H74.0645C77.4194 28.6452 79.871 30.7097 79.871 33.6774V36.6452H80V36.6452Z" fill="url(#paint1_linear)"/>
<path d="M27.0967 62.1936C27.0967 63.6129 25.9354 64.7742 24.5161 64.7742C23.0967 64.7742 21.9354 63.6129 21.9354 62.1936V48C21.9354 46.5807 23.0967 45.4194 24.5161 45.4194C25.9354 45.4194 27.0967 46.5807 27.0967 48V62.1936Z" fill="white"/>
<path d="M37.4193 62.1936C37.4193 63.6129 36.2581 64.7742 34.8387 64.7742C33.4193 64.7742 32.2581 63.6129 32.2581 62.1936V48C32.2581 46.5807 33.4193 45.4194 34.8387 45.4194C36.2581 45.4194 37.4193 46.5807 37.4193 48V62.1936Z" fill="white"/>
<path d="M47.7419 62.1936C47.7419 63.6129 46.5806 64.7742 45.1612 64.7742C43.7419 64.7742 42.5806 63.6129 42.5806 62.1936V48C42.5806 46.5807 43.7419 45.4194 45.1612 45.4194C46.5806 45.4194 47.7419 46.5807 47.7419 48V62.1936Z" fill="white"/>
<path d="M58.0645 62.1936C58.0645 63.6129 56.9032 64.7742 55.4838 64.7742C54.0645 64.7742 52.9032 63.6129 52.9032 62.1936V48C52.9032 46.5807 54.0645 45.4194 55.4838 45.4194C56.9032 45.4194 58.0645 46.5807 58.0645 48V62.1936Z" fill="white"/>
<path d="M22.3226 31.7419C20.7742 33.2903 18.4516 33.2903 16.9032 31.7419C15.3548 30.1936 15.3548 27.871 16.9032 26.3226L37.1613 6.06452C38.7097 4.51613 41.0323 4.51613 42.5806 6.06452C44.129 7.61291 44.129 9.93549 42.5806 11.4839L22.3226 31.7419Z" fill="url(#paint2_linear)"/>
<path d="M63.0968 26.3226C64.6452 27.871 64.6452 30.1936 63.0968 31.7419C61.5484 33.2903 59.2258 33.2903 57.6774 31.7419L37.4193 11.4839C35.871 9.93549 35.871 7.61291 37.4193 6.06452C38.9677 4.51613 41.2903 4.51613 42.8387 6.06452L63.0968 26.3226Z" fill="url(#paint3_linear)"/>
<defs>
<linearGradient id="paint0_linear" x1="3.71078" y1="63.2708" x2="68.0833" y2="36.8065" gradientUnits="userSpaceOnUse">
<stop stop-color="#9210FD"/>
<stop offset="1" stop-color="#6728FF"/>
</linearGradient>
<linearGradient id="paint1_linear" x1="80" y1="28.6452" x2="48.7945" y2="67.6664" gradientUnits="userSpaceOnUse">
<stop stop-color="#9210FD"/>
<stop offset="1" stop-color="#6728FF"/>
</linearGradient>
<linearGradient id="paint2_linear" x1="41.0048" y1="27.9291" x2="26.4333" y2="9.45587" gradientUnits="userSpaceOnUse">
<stop/>
<stop offset="0.9811" stop-color="#2F2F2F"/>
</linearGradient>
<linearGradient id="paint3_linear" x1="61.521" y1="27.9291" x2="46.9494" y2="9.45585" gradientUnits="userSpaceOnUse">
<stop/>
<stop offset="0.9811" stop-color="#2F2F2F"/>
</linearGradient>
</defs>
</svg>
