<svg width="44" height="44" viewBox="0 0 44 44" fill="none" xmlns="http://www.w3.org/2000/svg">
<path d="M6.09629 34.7003L6.09538 34.7017C6.0946 34.7036 6.09381 34.7055 6.09314 34.708C6.01847 34.8374 5.97424 34.984 5.94557 35.1352C5.93619 35.1816 5.93255 35.2245 5.92836 35.2705C5.91742 35.3847 5.91966 35.5002 5.93644 35.6182C5.94171 35.6616 5.94314 35.7036 5.95313 35.7472C5.95768 35.7698 5.95614 35.7912 5.96171 35.8129C5.99677 35.9459 6.05007 36.0705 6.11641 36.1843C6.12241 36.1966 6.13346 36.2049 6.14058 36.2169C6.21731 36.3415 6.31237 36.4466 6.41834 36.5388C6.43323 36.5517 6.44127 36.5711 6.45673 36.5838L13.6441 42.2508C14.1941 42.6847 14.9254 42.5476 15.2779 41.9425C15.6294 41.3382 15.4682 40.4963 14.9168 40.0615L11.0423 37.0057C15.7377 36.6881 20.0386 34.818 20.2413 34.7278C33.6116 29.4098 40.8444 14.6102 36.3652 1.73693C36.1433 1.09956 35.5598 0.73213 35.0018 0.844824C34.9421 0.856878 34.8834 0.874002 34.8246 0.896421C34.2193 1.13764 33.9274 1.90339 34.1717 2.60832C38.1617 14.0748 31.5143 27.339 19.3187 32.1907C19.2634 32.2159 14.8202 34.1506 10.3084 34.3467L14.559 30.5035C15.0569 30.0524 15.1165 29.207 14.6938 28.6143C14.2715 28.0203 13.5267 27.9076 13.0263 28.355L6.32603 34.4131C6.23561 34.4964 6.15906 34.5933 6.09629 34.7003Z" fill="white"/>
</svg>
