<svg width="153" height="237" viewBox="0 0 153 237" fill="none" xmlns="http://www.w3.org/2000/svg">
<path d="M115.559 0.344971H12.4564V156.275H141.544V26.3296L115.559 0.344971Z" fill="url(#paint0_linear)"/>
<path d="M115.559 26.3296H141.544L115.559 0.344971V26.3296Z" fill="#52EB45"/>
<path d="M75.394 20.8982H57.835V26.617H63.6439V30.5094H57.835V34.3137H63.5845V38.1467H57.835V41.9797H63.5845V45.8127H57.835V49.6457H63.5845V53.4787H57.835V59.2282H75.394C76.2775 59.2282 77 58.4788 77 57.5608V22.5655C77 21.6475 76.2775 20.8982 75.394 20.8982ZM73.167 53.4787H65.501V49.6457H73.167V53.4787ZM73.167 45.8127H65.501V41.9797H73.167V45.8127ZM73.167 38.1467H65.501V34.3137H73.167V38.1467ZM73.167 30.4807H65.501V26.6477H73.167V30.4807Z" fill="white"/>
<path d="M27.171 20.6852V59.4426L55.9185 64.9774V15.1484L27.171 20.6852ZM45.3548 49.7987L42.0105 43.4762C41.884 43.2405 41.7537 42.8074 41.6176 42.1768H41.5658C41.5026 42.4739 41.3531 42.9262 41.1174 43.5318L37.7616 49.7987H32.5506L38.7371 40.0936L33.0777 30.3865H38.3979L41.173 36.2069C41.3895 36.6669 41.5831 37.2131 41.7556 37.8436H41.8092C41.9185 37.4642 42.1216 36.9007 42.4187 36.1514L45.5043 30.3846H50.376L44.5556 40.0093L50.5389 49.7968L45.3548 49.7987Z" fill="white"/>
<path d="M140.622 217.03C143.443 219.851 143.443 224.423 140.622 227.244C139.212 228.654 137.363 229.359 135.515 229.359C133.667 229.359 131.819 228.654 130.408 227.244L101.191 198.03L101.187 198.026C103.129 196.647 104.981 195.084 106.722 193.343C108.462 191.606 110.022 189.754 111.401 187.816H111.405L140.622 217.03Z" fill="#CCCCCC"/>
<path d="M140.622 217.03C143.443 219.851 143.443 224.423 140.622 227.244C139.212 228.654 137.363 229.359 135.515 229.359C133.667 229.359 131.819 228.654 130.408 227.244L101.191 198.03L101.187 198.026C103.129 196.647 104.981 195.084 106.722 193.343C108.462 191.606 110.022 189.754 111.401 187.816H111.405L140.622 217.03Z" fill="url(#paint1_linear)"/>
<path d="M111.548 198.207C112.958 196.796 114.807 196.091 116.655 196.091C118.503 196.091 120.351 196.796 121.762 198.207L121.829 198.239L111.405 187.816H111.401C110.022 189.755 108.462 191.606 106.722 193.344C104.981 195.084 103.129 196.647 101.187 198.027L101.191 198.03L111.221 208.059C108.739 205.222 108.843 200.911 111.548 198.207Z" fill="#ADADAD"/>
<path d="M111.548 198.207C112.958 196.796 114.807 196.091 116.655 196.091C118.503 196.091 120.351 196.796 121.762 198.207L121.829 198.239L111.405 187.816H111.401C110.022 189.755 108.462 191.606 106.722 193.344C104.981 195.084 103.129 196.647 101.187 198.027L101.191 198.03L111.221 208.059C108.739 205.222 108.843 200.911 111.548 198.207Z" fill="url(#paint2_linear)"/>
<path d="M45.4615 155.569H128.705C126.717 148.867 123.083 142.552 117.791 137.26C100.83 120.299 73.3362 120.299 56.3756 137.26C51.083 142.552 47.4496 148.867 45.4615 155.569Z" fill="#4AD93E"/>
<path d="M45.4615 155.569H128.705C126.717 148.867 123.083 142.552 117.791 137.26C100.83 120.299 73.3362 120.299 56.3756 137.26C51.083 142.552 47.4496 148.867 45.4615 155.569Z" fill="url(#paint3_linear)"/>
<path d="M118.864 155.569C120.681 166.648 118.193 178.297 111.402 187.816C110.022 189.755 108.463 191.606 106.722 193.343C104.981 195.084 103.13 196.647 101.188 198.027C84.227 210.127 60.5266 208.564 45.3064 193.343C35.0231 183.06 30.9758 168.903 33.1644 155.57C34.5817 146.912 38.6291 138.609 45.3064 131.932C62.267 114.971 89.7613 114.971 106.722 131.932C113.399 138.609 117.447 146.912 118.864 155.569ZM105.461 173.194C109.407 162.163 106.965 149.357 98.1303 140.523C85.9154 128.308 66.1129 128.308 53.8977 140.523C45.0664 149.354 42.6208 162.153 46.5639 173.183C48.0717 177.408 50.5174 181.372 53.8977 184.752C66.1126 196.967 85.9151 196.967 98.1303 184.752C101.511 181.372 103.953 177.414 105.461 173.194Z" fill="url(#paint4_linear)"/>
<defs>
<linearGradient id="paint0_linear" x1="12.4564" y1="0.344971" x2="148.501" y2="9.72111" gradientUnits="userSpaceOnUse">
<stop stop-color="#45D53A"/>
<stop offset="1" stop-color="#24BD18"/>
</linearGradient>
<linearGradient id="paint1_linear" x1="121.963" y1="187.816" x2="121.963" y2="229.359" gradientUnits="userSpaceOnUse">
<stop stop-color="#E9E9E9"/>
<stop offset="1" stop-color="#AFAFAF"/>
</linearGradient>
<linearGradient id="paint2_linear" x1="111.508" y1="187.816" x2="111.508" y2="208.059" gradientUnits="userSpaceOnUse">
<stop stop-color="#CDCDCD"/>
<stop offset="1" stop-color="#999898"/>
</linearGradient>
<linearGradient id="paint3_linear" x1="45.4615" y1="124.54" x2="129.42" y2="143.291" gradientUnits="userSpaceOnUse">
<stop stop-color="#24BD18"/>
<stop offset="1" stop-color="#45D53A"/>
</linearGradient>
<linearGradient id="paint4_linear" x1="76.0137" y1="119.211" x2="76.0137" y2="206.064" gradientUnits="userSpaceOnUse">
<stop stop-color="#E9EAEE"/>
<stop offset="1" stop-color="#D5D6D9"/>
</linearGradient>
</defs>
</svg>
