<svg width="124" height="122" viewBox="0 0 124 122" fill="none" xmlns="http://www.w3.org/2000/svg">
<path d="M119.536 14.0769H76.1923V28.0788H90.5313V37.6088H76.1923V46.9231H90.3846V56.3077H76.1923V65.6923H90.3846V75.0769H76.1923V84.4615H90.3846V93.8461H76.1923V107.923H119.536C121.717 107.923 123.5 106.088 123.5 103.841V18.1592C123.5 15.9116 121.717 14.0769 119.536 14.0769ZM114.038 93.8461H95.1154V84.4615H114.038V93.8461ZM114.038 75.0769H95.1154V65.6923H114.038V75.0769ZM114.038 56.3077H95.1154V46.9231H114.038V56.3077ZM114.038 37.5384H95.1154V28.1538H114.038V37.5384Z" fill="#030104"/>
<path d="M119.536 14.0769H76.1923V28.0788H90.5313V37.6088H76.1923V46.9231H90.3846V56.3077H76.1923V65.6923H90.3846V75.0769H76.1923V84.4615H90.3846V93.8461H76.1923V107.923H119.536C121.717 107.923 123.5 106.088 123.5 103.841V18.1592C123.5 15.9116 121.717 14.0769 119.536 14.0769ZM114.038 93.8461H95.1154V84.4615H114.038V93.8461ZM114.038 75.0769H95.1154V65.6923H114.038V75.0769ZM114.038 56.3077H95.1154V46.9231H114.038V56.3077ZM114.038 37.5384H95.1154V28.1538H114.038V37.5384Z" fill="url(#paint0_linear)"/>
<path d="M0.5 13.5561V108.449L71.4615 122V0L0.5 13.5561ZM45.3855 84.8369L37.1303 69.357C36.8181 68.7798 36.4964 67.7194 36.1605 66.1756H36.0328C35.8767 66.9029 35.5077 68.0103 34.9258 69.4931L26.6422 84.8369H13.7793L29.0502 61.0751L15.0802 37.3085H28.2128L35.063 51.5591C35.5976 52.6852 36.0754 54.0225 36.5012 55.5663H36.6336C36.9033 54.6372 37.4047 53.2577 38.138 51.423L45.7545 37.3038H57.7802L43.4128 60.8686L58.1823 84.8322L45.3855 84.8369Z" fill="#030104"/>
<path d="M0.5 13.5561V108.449L71.4615 122V0L0.5 13.5561ZM45.3855 84.8369L37.1303 69.357C36.8181 68.7798 36.4964 67.7194 36.1605 66.1756H36.0328C35.8767 66.9029 35.5077 68.0103 34.9258 69.4931L26.6422 84.8369H13.7793L29.0502 61.0751L15.0802 37.3085H28.2128L35.063 51.5591C35.5976 52.6852 36.0754 54.0225 36.5012 55.5663H36.6336C36.9033 54.6372 37.4047 53.2577 38.138 51.423L45.7545 37.3038H57.7802L43.4128 60.8686L58.1823 84.8322L45.3855 84.8369Z" fill="url(#paint1_linear)"/>
<defs>
<linearGradient id="paint0_linear" x1="76.1923" y1="14.0769" x2="126.199" y2="16.1755" gradientUnits="userSpaceOnUse">
<stop stop-color="#45D53A"/>
<stop offset="1" stop-color="#24BD18"/>
</linearGradient>
<linearGradient id="paint1_linear" x1="0.5" y1="0" x2="75.4656" y2="3.63006" gradientUnits="userSpaceOnUse">
<stop stop-color="#45D53A"/>
<stop offset="1" stop-color="#24BD18"/>
</linearGradient>
</defs>
</svg>
