<svg width="615" height="510" viewBox="0 0 615 510" fill="none" xmlns="http://www.w3.org/2000/svg">
<path d="M376.805 497.846H225.051C218.761 497.846 213.762 503.006 213.762 509.135H380.998L376.805 497.846Z" fill="#C2BEBB"/>
<path d="M424.54 509.135H333.746L282.14 364.154H372.934L424.54 509.135Z" fill="#F8FFF7"/>
<path d="M412.284 509.135H321.328L269.722 364.154H360.678L412.284 509.135Z" fill="#C2BEBB"/>
<path d="M129.58 443.337H560.812C572.746 443.337 583.551 433.661 584.841 421.727C591.131 362.703 608.548 199.176 614.838 139.99C616.128 128.056 607.419 118.38 595.485 118.38H164.252C152.319 118.38 141.514 128.056 140.223 140.152L110.227 421.727C108.776 433.661 117.485 443.337 129.58 443.337Z" fill="#C2BEBB"/>
<path d="M614.837 139.99L589.034 382.539H114.42L140.223 139.99C141.514 128.056 152.319 118.219 164.252 118.219H595.485C607.419 118.38 615.966 128.056 614.837 139.99Z" fill="#202020"/>
<path d="M111.356 443.337H542.589C554.523 443.337 565.328 433.661 566.618 421.727C572.907 362.703 590.325 199.176 596.614 139.99C597.904 128.056 589.196 118.38 577.262 118.38H146.029C134.095 118.38 123.29 128.056 122 140.152L92.004 421.727C90.7138 433.661 99.2611 443.337 111.356 443.337Z" fill="#F8FFF7"/>
<path d="M596.614 139.99L570.811 382.539H96.197L122 139.99C123.29 128.056 134.095 118.219 146.029 118.219H577.262C589.196 118.38 597.904 128.056 596.614 139.99Z" fill="url(#paint0_linear)"/>
<path d="M580.003 149.344L557.91 356.574C557.103 363.509 551.297 368.669 544.363 368.669H125.064C117.001 368.669 110.711 361.735 111.517 353.671L133.611 146.441C134.418 139.506 140.223 134.346 147.158 134.346H566.457C574.52 134.346 580.81 141.28 580.003 149.344Z" fill="white"/>
<path d="M420.509 497.846H305.685C299.396 497.846 294.396 503.006 294.396 509.135H424.701L420.509 497.846Z" fill="#F8FFF7"/>
<path opacity="0.2" d="M297.299 443.337H401.156L407.123 460.109H303.911L297.299 443.337Z" fill="#303231"/>
<path d="M483.684 368.779C483.684 368.779 491.628 191.112 482.758 182.243C465.825 165.148 435.184 157.407 435.184 157.407L402.93 156.923C402.93 156.923 366.322 167.89 355.033 191.919C348.582 205.465 346.486 353.994 346.486 353.994C346.486 353.994 373.254 367.166 415.184 368.779C457.114 370.391 483.684 368.779 483.684 368.779Z" fill="url(#paint1_radial)"/>
<path d="M503.884 290.454C503.884 290.454 494.208 348.35 484.209 353.833C478.243 357.058 423.734 333.352 423.734 333.352L420.67 299.163L462.438 314.806L460.664 290.454H503.884Z" fill="url(#paint2_linear)"/>
<path d="M431.797 104.511C431.797 109.349 435.829 113.22 440.667 112.897C445.505 112.575 449.537 108.382 449.537 103.544C449.537 98.7054 445.505 94.835 440.667 95.1575C435.668 95.3188 431.797 99.5118 431.797 104.511Z" fill="url(#paint3_linear)"/>
<path d="M435.184 109.994V157.407C435.184 157.407 427.282 166.116 415.993 166.116C402.769 166.116 402.769 156.924 402.769 156.924V109.994H435.184V109.994Z" fill="url(#paint4_linear)"/>
<path d="M431.475 109.994C431.475 109.994 432.926 139.345 420.025 145.635C411.316 149.989 402.769 147.086 402.769 147.086V109.994H431.475Z" fill="#E5AB95"/>
<path d="M379.546 68.3868C374.25 78.0289 379.546 112.252 379.546 112.252C380.997 129.024 390.674 138.861 402.93 139.99C402.93 139.99 418.089 142.57 428.572 125.637L435.184 115.639V68.3868C435.184 68.3868 384.842 58.7447 379.546 68.3868Z" fill="url(#paint5_linear)"/>
<path d="M402.733 81.5591C402.733 81.5591 365.595 92.1387 357.139 64.2131C354.421 55.2016 353.376 43.3069 360.88 36.1334C364.138 33.0446 368.493 31.2401 372.757 31.1217C379.597 30.7933 385.962 34.9294 392.318 37.0823C399.57 39.9253 407.018 42.3707 414.956 43.3265C426.265 44.4654 440.157 46.3859 447.54 56.4672C459.511 72.2791 459.585 110.655 436.124 119.586C428.204 122.596 432.126 112.663 432.807 109.784C433.785 106.804 438.448 85.3644 428.724 84.0201C421.381 82.8632 420.425 90.8005 422.532 96.0466C424.638 101.293 419.432 112.323 416.819 104.6C414.896 95.9819 415.903 77.434 402.733 81.5591Z" fill="url(#paint6_linear)"/>
<path d="M503.884 290.454C503.884 290.454 501.465 224.495 499.853 214.819C498.24 205.143 491.789 182.565 470.34 172.566C470.34 172.566 455.504 194.66 456.31 211.593C457.116 228.527 460.503 290.454 460.503 290.454C460.503 290.454 476.469 293.518 483.726 293.518C490.983 293.518 503.884 290.454 503.884 290.454Z" fill="url(#paint7_linear)"/>
<path d="M260.046 368.347H431.152C434.378 368.347 436.635 365.767 436.313 362.702L424.379 247.879C424.056 244.654 421.154 242.235 418.089 242.235H246.983C243.758 242.235 241.5 244.815 241.823 247.879L253.757 362.702C254.079 365.767 256.982 368.347 260.046 368.347Z" fill="#474747"/>
<path d="M232.469 247.879L244.403 362.702C244.725 365.928 247.628 368.508 250.692 368.508H421.799C425.024 368.508 427.282 365.928 426.959 362.702L415.025 247.879C414.703 244.654 411.961 242.073 408.736 242.073H237.63C234.404 242.073 232.146 244.654 232.469 247.879Z" fill="url(#paint8_linear)"/>
<path d="M293.912 349.317H374.708C381.32 349.317 387.287 354.639 387.932 361.251L388.738 368.508H283.914L283.107 361.251C282.462 354.639 287.3 349.317 293.912 349.317Z" fill="#484848"/>
<path d="M402.769 357.058H414.38L414.219 354.8H402.607L402.769 357.058Z" fill="#292929"/>
<path d="M403.253 360.767H414.864L414.541 358.509H402.93L403.253 360.767Z" fill="#292929"/>
<path d="M403.575 364.476H415.187L415.025 362.219H403.414L403.575 364.476Z" fill="#292929"/>
<rect x="238" y="12.5829" width="72.4999" height="166.557" fill="url(#paint9_linear)"/>
<path d="M274.25 211.948C294.27 211.948 310.5 195.718 310.5 175.698C310.5 155.677 294.27 139.448 274.25 139.448C254.23 139.448 238 155.677 238 175.698C238 195.718 254.23 211.948 274.25 211.948Z" fill="url(#paint10_linear)"/>
<path d="M274.25 211.948C294.27 211.948 310.5 195.718 310.5 175.698C310.5 155.677 294.27 139.448 274.25 139.448C254.23 139.448 238 155.677 238 175.698C238 195.718 254.23 211.948 274.25 211.948Z" fill="url(#paint11_linear)"/>
<path opacity="0.3" d="M288.75 203.996C273.081 211.948 253.903 205.867 245.718 190.198C237.766 174.528 243.847 155.351 259.516 147.165C275.186 139.214 294.363 145.294 302.548 160.964C310.734 176.867 304.419 196.044 288.75 203.996ZM261.621 150.673C247.823 157.69 242.444 174.528 249.46 188.327C256.476 202.125 273.315 207.504 287.113 200.488C300.911 193.472 306.29 176.633 299.274 162.835C292.258 149.27 275.419 143.657 261.621 150.673Z" fill="white"/>
<g clip-path="url(#clip0)">
<path d="M261.189 186.02H265.848V190.014C265.848 190.208 265.91 190.367 266.035 190.492C266.16 190.617 266.319 190.679 266.513 190.679H269.987C270.167 190.679 270.323 190.617 270.455 190.492C270.586 190.367 270.652 190.208 270.652 190.014V186.02H281.155C281.349 186.02 281.509 185.958 281.634 185.833C281.759 185.708 281.821 185.549 281.821 185.355V182.692C281.821 182.499 281.759 182.339 281.634 182.215C281.509 182.089 281.349 182.027 281.155 182.027H270.652V179.572H277.723C280.496 179.572 282.759 178.728 284.514 177.035C286.268 175.345 287.145 173.161 287.145 170.484C287.145 167.808 286.268 165.625 284.514 163.932C282.76 162.242 280.496 161.395 277.723 161.395H266.513C266.319 161.395 266.16 161.458 266.035 161.582C265.91 161.707 265.847 161.867 265.847 162.06V175.143H261.189C260.995 175.143 260.835 175.209 260.71 175.34C260.586 175.472 260.523 175.628 260.523 175.808V178.907C260.523 179.101 260.585 179.26 260.71 179.385C260.835 179.511 260.994 179.572 261.189 179.572H265.848V182.027H261.189C260.995 182.027 260.835 182.089 260.71 182.214C260.586 182.339 260.523 182.499 260.523 182.692V185.354C260.523 185.549 260.585 185.708 260.71 185.833C260.835 185.958 260.994 186.02 261.189 186.02ZM270.652 165.826H277.307C278.777 165.826 279.962 166.255 280.864 167.115C281.765 167.975 282.216 169.098 282.216 170.484C282.216 171.871 281.765 172.995 280.864 173.853C279.962 174.714 278.777 175.143 277.307 175.143H270.652V165.826Z" fill="white"/>
</g>
<rect x="104.016" width="59.4175" height="136.502" fill="url(#paint12_linear)"/>
<path d="M133.724 163.39C150.132 163.39 163.433 150.089 163.433 133.681C163.433 117.273 150.132 103.972 133.724 103.972C117.317 103.972 104.016 117.273 104.016 133.681C104.016 150.089 117.317 163.39 133.724 163.39Z" fill="url(#paint13_linear)"/>
<path d="M133.724 163.39C150.132 163.39 163.433 150.089 163.433 133.681C163.433 117.273 150.132 103.972 133.724 103.972C117.317 103.972 104.016 117.273 104.016 133.681C104.016 150.089 117.317 163.39 133.724 163.39Z" fill="url(#paint14_linear)"/>
<path opacity="0.3" d="M145.608 156.873C132.766 163.39 117.049 158.406 110.341 145.565C103.824 132.723 108.807 117.006 121.649 110.297C134.491 103.781 150.208 108.764 156.916 121.606C163.625 134.639 158.45 150.356 145.608 156.873ZM123.374 113.172C112.066 118.923 107.657 132.723 113.407 144.031C119.158 155.34 132.958 159.748 144.266 153.998C155.575 148.248 159.983 134.448 154.233 123.139C148.483 112.022 134.683 107.422 123.374 113.172Z" fill="white"/>
<g clip-path="url(#clip1)">
<path d="M123.02 142.141H126.838V145.414C126.838 145.573 126.889 145.704 126.992 145.806C127.094 145.908 127.225 145.959 127.384 145.959H130.23C130.378 145.959 130.506 145.908 130.614 145.806C130.722 145.704 130.776 145.573 130.776 145.414V142.141H139.384C139.542 142.141 139.673 142.09 139.776 141.988C139.878 141.885 139.929 141.755 139.929 141.596V139.414C139.929 139.255 139.878 139.124 139.776 139.022C139.673 138.92 139.542 138.868 139.384 138.868H130.775V136.857H136.571C138.843 136.857 140.698 136.164 142.136 134.777C143.573 133.392 144.292 131.602 144.292 129.408C144.292 127.216 143.573 125.426 142.136 124.039C140.698 122.653 138.843 121.959 136.571 121.959H127.384C127.224 121.959 127.094 122.011 126.991 122.113C126.889 122.215 126.838 122.346 126.838 122.505V133.227H123.02C122.861 133.227 122.73 133.281 122.628 133.388C122.526 133.496 122.474 133.624 122.474 133.772V136.311C122.474 136.471 122.525 136.601 122.628 136.704C122.73 136.806 122.86 136.857 123.02 136.857H126.838V138.868H123.02C122.861 138.868 122.73 138.92 122.628 139.022C122.526 139.124 122.474 139.255 122.474 139.414V141.596C122.474 141.755 122.525 141.885 122.628 141.988C122.73 142.09 122.861 142.141 123.02 142.141ZM130.775 125.591H136.23C137.434 125.591 138.406 125.943 139.145 126.647C139.883 127.352 140.252 128.273 140.252 129.408C140.252 130.545 139.883 131.466 139.145 132.17C138.406 132.875 137.434 133.227 136.23 133.227H130.775V125.591Z" fill="white"/>
</g>
<rect x="503.831" y="13.444" width="59.4175" height="136.502" fill="url(#paint15_linear)"/>
<path d="M533.54 176.834C549.947 176.834 563.248 163.533 563.248 147.125C563.248 130.717 549.947 117.416 533.54 117.416C517.132 117.416 503.831 130.717 503.831 147.125C503.831 163.533 517.132 176.834 533.54 176.834Z" fill="url(#paint16_linear)"/>
<path d="M533.54 176.834C549.947 176.834 563.248 163.533 563.248 147.125C563.248 130.717 549.947 117.416 533.54 117.416C517.132 117.416 503.831 130.717 503.831 147.125C503.831 163.533 517.132 176.834 533.54 176.834Z" fill="url(#paint17_linear)"/>
<path opacity="0.3" d="M545.423 170.317C532.581 176.834 516.865 171.85 510.156 159.009C503.639 146.167 508.623 130.45 521.465 123.741C534.306 117.225 550.023 122.208 556.732 135.05C563.44 148.083 558.265 163.8 545.423 170.317ZM523.19 126.616C511.881 132.367 507.473 146.167 513.223 157.475C518.973 168.784 532.773 173.192 544.082 167.442C555.39 161.692 559.798 147.892 554.048 136.583C548.298 125.466 534.498 120.866 523.19 126.616Z" fill="white"/>
<g clip-path="url(#clip2)">
<path d="M522.835 155.585H526.654V158.858C526.654 159.017 526.705 159.148 526.807 159.25C526.909 159.352 527.04 159.403 527.199 159.403H530.046C530.193 159.403 530.321 159.352 530.429 159.25C530.537 159.148 530.591 159.017 530.591 158.858V155.585H539.199C539.358 155.585 539.489 155.534 539.591 155.432C539.694 155.329 539.744 155.199 539.744 155.04V152.858C539.744 152.699 539.694 152.568 539.591 152.466C539.489 152.364 539.358 152.312 539.199 152.312H530.591V150.301H536.386C538.659 150.301 540.514 149.608 541.951 148.221C543.389 146.836 544.108 145.046 544.108 142.852C544.108 140.66 543.389 138.87 541.951 137.483C540.514 136.097 538.659 135.403 536.386 135.403H527.199C527.04 135.403 526.909 135.455 526.807 135.557C526.705 135.659 526.653 135.79 526.653 135.949V146.671H522.835C522.676 146.671 522.546 146.724 522.443 146.832C522.341 146.94 522.29 147.068 522.29 147.216V149.755C522.29 149.915 522.341 150.045 522.443 150.148C522.546 150.25 522.676 150.301 522.835 150.301H526.654V152.312H522.835C522.676 152.312 522.546 152.364 522.443 152.466C522.341 152.568 522.29 152.699 522.29 152.858V155.039C522.29 155.199 522.341 155.329 522.443 155.432C522.546 155.534 522.676 155.585 522.835 155.585ZM530.591 139.034H536.045C537.25 139.034 538.221 139.387 538.96 140.091C539.698 140.796 540.068 141.717 540.068 142.852C540.068 143.989 539.698 144.91 538.96 145.614C538.221 146.319 537.25 146.671 536.045 146.671H530.591V139.034Z" fill="white"/>
</g>
<path d="M165.626 330.969H15.3737C10.1929 330.969 6 326.773 6 321.595V217.963C6 212.785 10.1929 208.589 15.3737 208.589H165.626C170.804 208.589 175 212.785 175 217.963V321.595C175 326.773 170.804 330.969 165.626 330.969Z" fill="#CCB375"/>
<path d="M165.626 330.969H15.3737C10.1929 330.969 6 326.773 6 321.595V217.963C6 212.785 10.1929 208.589 15.3737 208.589H165.626C170.804 208.589 175 212.785 175 217.963V321.595C175 326.773 170.804 330.969 165.626 330.969Z" fill="url(#paint18_linear)"/>
<path d="M165.626 330.969H15.3737C10.1929 330.969 6 326.773 6 321.595V217.963C6 212.785 10.1929 208.589 15.3737 208.589H165.626C170.804 208.589 175 212.785 175 217.963V321.595C175 326.773 170.804 330.969 165.626 330.969Z" fill="url(#paint19_linear)"/>
<path d="M49.7069 290.176H23.4828C21.8714 290.176 20.569 291.481 20.569 293.089C20.569 294.698 21.8714 296.003 23.4828 296.003H49.7069C51.3182 296.003 52.6207 294.698 52.6207 293.089C52.6207 291.481 51.3182 290.176 49.7069 290.176Z" fill="white"/>
<path d="M90.5 293.089C90.5 291.481 89.1975 290.176 87.5862 290.176H61.362C59.7507 290.176 58.4482 291.481 58.4482 293.089C58.4482 294.698 59.7507 296.003 61.362 296.003H87.5862C89.1975 296.003 90.5 294.698 90.5 293.089Z" fill="white"/>
<path d="M26.3966 304.744H23.4828C21.8714 304.744 20.569 306.05 20.569 307.658C20.569 309.267 21.8714 310.572 23.4828 310.572H26.3966C28.0079 310.572 29.3103 309.267 29.3103 307.658C29.3103 306.05 28.0079 304.744 26.3966 304.744Z" fill="white"/>
<path d="M43.8793 304.744H38.0517C36.4404 304.744 35.1379 306.05 35.1379 307.658C35.1379 309.267 36.4404 310.572 38.0517 310.572H43.8793C45.4906 310.572 46.7931 309.267 46.7931 307.658C46.7931 306.05 45.4906 304.744 43.8793 304.744Z" fill="white"/>
<path d="M58.4483 304.744H55.5345C53.9232 304.744 52.6207 306.05 52.6207 307.658C52.6207 309.267 53.9232 310.572 55.5345 310.572H58.4483C60.0596 310.572 61.3621 309.267 61.3621 307.658C61.3621 306.05 60.0596 304.744 58.4483 304.744Z" fill="white"/>
<path d="M75.9311 304.744H70.1035C68.4922 304.744 67.1897 306.05 67.1897 307.658C67.1897 309.267 68.4922 310.572 70.1035 310.572H75.9311C77.5424 310.572 78.8449 309.267 78.8449 307.658C78.8449 306.05 77.5424 304.744 75.9311 304.744Z" fill="white"/>
<path d="M85.5174 305.589C84.99 306.143 84.6724 306.901 84.6724 307.658C84.6724 308.416 84.99 309.173 85.5174 309.727C86.0681 310.251 86.8286 310.572 87.5862 310.572C88.3437 310.572 89.0984 310.251 89.6549 309.727C90.1794 309.173 90.4999 308.416 90.4999 307.658C90.4999 306.901 90.1794 306.143 89.6549 305.589C88.5477 304.511 86.5605 304.511 85.5174 305.589Z" fill="white"/>
<path opacity="0.2" d="M160.431 298.917C160.431 308.573 152.605 316.4 142.948 316.4C133.292 316.4 125.466 308.573 125.466 298.917C125.466 289.261 133.292 281.434 142.948 281.434C152.605 281.434 160.431 289.261 160.431 298.917Z" fill="white"/>
<path d="M66.4467 266.865H27.1396C25.1233 266.865 23.4828 265.228 23.4828 263.208V235.556C23.4828 233.537 25.1233 231.9 27.1396 231.9H66.4467C68.4659 231.9 70.1035 233.537 70.1035 235.556V263.208C70.1035 265.228 68.4659 266.865 66.4467 266.865Z" fill="#F0C41B"/>
<path d="M66.4466 269.779H27.1396C23.5177 269.779 20.569 266.83 20.569 263.208V235.556C20.569 231.935 23.5177 228.986 27.1396 228.986H66.4466C70.0685 228.986 73.0172 231.935 73.0172 235.556V263.208C73.0172 266.83 70.0685 269.779 66.4466 269.779ZM27.1396 234.813C26.7258 234.813 26.3966 235.146 26.3966 235.556V263.208C26.3966 263.619 26.7258 263.951 27.1396 263.951H66.4466C66.8575 263.951 67.1897 263.619 67.1897 263.208V235.556C67.1897 235.146 66.8575 234.813 66.4466 234.813H27.1396Z" fill="#F3D55C"/>
<path d="M70.1035 235.556C70.1035 233.537 68.466 231.9 66.4467 231.9H52.6207H44.6224C42.6002 231.9 40.9656 233.537 40.9656 235.556V243.555V263.208C40.9656 265.228 42.6002 266.865 44.6224 266.865H48.9639C50.9832 266.865 52.6207 265.228 52.6207 263.208V247.212C52.6207 245.192 54.2583 243.555 56.2776 243.555H66.4467C68.466 243.555 70.1035 241.917 70.1035 239.898V235.556Z" fill="#F0C41B"/>
<path d="M48.9639 269.779H44.6224C41.0005 269.779 38.0518 266.83 38.0518 263.208V235.556C38.0518 231.935 41.0005 228.986 44.6224 228.986H66.4467C70.0685 228.986 73.0173 231.935 73.0173 235.556V239.898C73.0173 243.52 70.0685 246.469 66.4467 246.469H56.2775C55.8638 246.469 55.5345 246.801 55.5345 247.212V263.208C55.5345 266.83 52.5858 269.779 48.9639 269.779ZM44.6224 234.813C44.2086 234.813 43.8793 235.146 43.8793 235.556V263.208C43.8793 263.619 44.2086 263.951 44.6224 263.951H48.9639C49.3748 263.951 49.7069 263.619 49.7069 263.208V247.212C49.7069 243.59 52.6557 240.641 56.2775 240.641H66.4467C66.8575 240.641 67.1897 240.309 67.1897 239.898V235.556C67.1897 235.146 66.8575 234.813 66.4467 234.813H44.6224Z" fill="#F3D55C"/>
<path d="M70.1035 258.124H52.6207C51.0094 258.124 49.7069 256.818 49.7069 255.21C49.7069 253.602 51.0094 252.296 52.6207 252.296H70.1035C71.7148 252.296 73.0173 253.602 73.0173 255.21C73.0173 256.818 71.7148 258.124 70.1035 258.124Z" fill="#F3D55C"/>
<path d="M40.9655 249.469H23.4828C21.8714 249.469 20.569 248.163 20.569 246.555C20.569 244.946 21.8714 243.641 23.4828 243.641H40.9655C42.5768 243.641 43.8793 244.946 43.8793 246.555C43.8793 248.163 42.5768 249.469 40.9655 249.469Z" fill="#F3D55C"/>
<path d="M40.9655 258.124H23.4828C21.8714 258.124 20.569 256.818 20.569 255.21C20.569 253.602 21.8714 252.296 23.4828 252.296H40.9655C42.5768 252.296 43.8793 253.602 43.8793 255.21C43.8793 256.818 42.5768 258.124 40.9655 258.124Z" fill="#F3D55C"/>
<defs>
<linearGradient id="paint0_linear" x1="547.811" y1="335.583" x2="447.399" y2="94.5181" gradientUnits="userSpaceOnUse">
<stop/>
<stop offset="0.9811" stop-color="#2F2F2F"/>
</linearGradient>
<radialGradient id="paint1_radial" cx="0" cy="0" r="1" gradientUnits="userSpaceOnUse" gradientTransform="translate(407.223 223.855) rotate(104.449) scale(110.617 144.392)">
<stop offset="0.0255008" stop-color="#FFBC01"/>
<stop offset="1" stop-color="#FF4F0D"/>
</radialGradient>
<linearGradient id="paint2_linear" x1="484.925" y1="300.32" x2="460.742" y2="347.548" gradientUnits="userSpaceOnUse">
<stop offset="0.021895" stop-color="#F6C9AD"/>
<stop offset="0.3971" stop-color="#F4C6AA"/>
<stop offset="0.7197" stop-color="#EEBBA2"/>
<stop offset="1" stop-color="#E5AB95"/>
</linearGradient>
<linearGradient id="paint3_linear" x1="445.495" y1="97.893" x2="437.798" y2="109.373" gradientUnits="userSpaceOnUse">
<stop offset="0.021895" stop-color="#F6C9AD"/>
<stop offset="0.3971" stop-color="#F4C6AA"/>
<stop offset="0.7197" stop-color="#EEBBA2"/>
<stop offset="1" stop-color="#E5AB95"/>
</linearGradient>
<linearGradient id="paint4_linear" x1="427.799" y1="118.689" x2="401.813" y2="141.12" gradientUnits="userSpaceOnUse">
<stop offset="0.021895" stop-color="#F6C9AD"/>
<stop offset="0.3971" stop-color="#F4C6AA"/>
<stop offset="0.7197" stop-color="#EEBBA2"/>
<stop offset="1" stop-color="#E5AB95"/>
</linearGradient>
<linearGradient id="paint5_linear" x1="422.508" y1="79.5024" x2="389.29" y2="118.001" gradientUnits="userSpaceOnUse">
<stop offset="0.021895" stop-color="#F6C9AD"/>
<stop offset="0.3971" stop-color="#F4C6AA"/>
<stop offset="0.7197" stop-color="#EEBBA2"/>
<stop offset="1" stop-color="#E5AB95"/>
</linearGradient>
<linearGradient id="paint6_linear" x1="384.391" y1="117.432" x2="417.921" y2="42.0189" gradientUnits="userSpaceOnUse">
<stop/>
<stop offset="0.9811" stop-color="#2F2F2F"/>
</linearGradient>
<linearGradient id="paint7_linear" x1="488.434" y1="293.518" x2="418.96" y2="224.028" gradientUnits="userSpaceOnUse">
<stop offset="0.0255008" stop-color="#FBAD18"/>
<stop offset="1" stop-color="#FF4F0D"/>
</linearGradient>
<linearGradient id="paint8_linear" x1="407.972" y1="346.047" x2="353.04" y2="238.889" gradientUnits="userSpaceOnUse">
<stop/>
<stop offset="0.9811" stop-color="#2F2F2F"/>
</linearGradient>
<linearGradient id="paint9_linear" x1="274.25" y1="12.5829" x2="274.25" y2="179.14" gradientUnits="userSpaceOnUse">
<stop stop-color="#FFC400" stop-opacity="0"/>
<stop offset="1" stop-color="#FFC400"/>
</linearGradient>
<linearGradient id="paint10_linear" x1="249.392" y1="155.992" x2="302.876" y2="198.076" gradientUnits="userSpaceOnUse">
<stop offset="0.00514824" stop-color="#FFD84A"/>
<stop offset="1" stop-color="#FAB548"/>
</linearGradient>
<linearGradient id="paint11_linear" x1="310.5" y1="211.948" x2="270.327" y2="195.831" gradientUnits="userSpaceOnUse">
<stop stop-color="#FF460F"/>
<stop offset="1" stop-color="#FFC400"/>
</linearGradient>
<linearGradient id="paint12_linear" x1="133.724" y1="0" x2="133.724" y2="136.502" gradientUnits="userSpaceOnUse">
<stop stop-color="#FFC400" stop-opacity="0"/>
<stop offset="1" stop-color="#FFC400"/>
</linearGradient>
<linearGradient id="paint13_linear" x1="113.352" y1="117.531" x2="157.185" y2="152.021" gradientUnits="userSpaceOnUse">
<stop offset="0.00514824" stop-color="#FFD84A"/>
<stop offset="1" stop-color="#FAB548"/>
</linearGradient>
<linearGradient id="paint14_linear" x1="163.433" y1="163.39" x2="130.509" y2="150.182" gradientUnits="userSpaceOnUse">
<stop stop-color="#FF460F"/>
<stop offset="1" stop-color="#FFC400"/>
</linearGradient>
<linearGradient id="paint15_linear" x1="533.54" y1="13.444" x2="533.54" y2="149.946" gradientUnits="userSpaceOnUse">
<stop stop-color="#FFC400" stop-opacity="0"/>
<stop offset="1" stop-color="#FFC400"/>
</linearGradient>
<linearGradient id="paint16_linear" x1="513.167" y1="130.975" x2="557" y2="165.465" gradientUnits="userSpaceOnUse">
<stop offset="0.00514824" stop-color="#FFD84A"/>
<stop offset="1" stop-color="#FAB548"/>
</linearGradient>
<linearGradient id="paint17_linear" x1="563.248" y1="176.834" x2="530.324" y2="163.626" gradientUnits="userSpaceOnUse">
<stop stop-color="#FF460F"/>
<stop offset="1" stop-color="#FFC400"/>
</linearGradient>
<linearGradient id="paint18_linear" x1="120.152" y1="330.969" x2="83.0999" y2="200.939" gradientUnits="userSpaceOnUse">
<stop offset="0.0255008" stop-color="#FBAD18"/>
<stop offset="1" stop-color="#FF4F0D"/>
</linearGradient>
<linearGradient id="paint19_linear" x1="6" y1="208.589" x2="182.62" y2="228.894" gradientUnits="userSpaceOnUse">
<stop stop-color="#45D53A"/>
<stop offset="1" stop-color="#24BD18"/>
</linearGradient>
<clipPath id="clip0">
<rect width="29.2843" height="29.2843" fill="white" transform="translate(259.192 161.395)"/>
</clipPath>
<clipPath id="clip1">
<rect width="24" height="24" fill="white" transform="translate(121.383 121.959)"/>
</clipPath>
<clipPath id="clip2">
<rect width="24" height="24" fill="white" transform="translate(521.199 135.403)"/>
</clipPath>
</defs>
</svg>
