<svg width="615" height="510" viewBox="0 0 615 510" fill="none" xmlns="http://www.w3.org/2000/svg">
<path d="M376.805 498.567H225.051C218.761 498.567 213.762 503.727 213.762 509.856H380.998L376.805 498.567Z" fill="#C2BEBB"/>
<path d="M424.54 509.856H333.746L282.14 364.875H372.934L424.54 509.856Z" fill="#F8FFF7"/>
<path d="M412.284 509.856H321.328L269.722 364.875H360.678L412.284 509.856Z" fill="#C2BEBB"/>
<path d="M129.58 444.058H560.813C572.746 444.058 583.551 434.382 584.842 422.448C591.131 363.424 608.548 199.897 614.838 140.711C616.128 128.778 607.419 119.101 595.485 119.101H164.252C152.319 119.101 141.514 128.778 140.223 140.873L110.227 422.448C108.776 434.382 117.485 444.058 129.58 444.058Z" fill="#C2BEBB"/>
<path d="M614.838 140.711L589.035 383.26H114.42L140.223 140.711C141.514 128.777 152.319 118.94 164.252 118.94H595.485C607.419 119.101 615.966 128.777 614.838 140.711Z" fill="#202020"/>
<path d="M111.356 444.058H542.589C554.523 444.058 565.328 434.382 566.618 422.448C572.908 363.424 590.325 199.897 596.614 140.711C597.904 128.778 589.196 119.101 577.262 119.101H146.029C134.095 119.101 123.29 128.778 122 140.873L92.0041 422.448C90.7139 434.382 99.2612 444.058 111.356 444.058Z" fill="#F8FFF7"/>
<path d="M596.614 140.711L570.811 383.26H96.1971L122 140.711C123.29 128.777 134.095 118.94 146.029 118.94H577.262C589.196 119.101 597.904 128.777 596.614 140.711Z" fill="#282828"/>
<path d="M596.614 140.711L570.811 383.26H96.1971L122 140.711C123.29 128.777 134.095 118.94 146.029 118.94H577.262C589.196 119.101 597.904 128.777 596.614 140.711Z" fill="url(#paint0_linear)"/>
<path d="M580.003 150.065L557.91 357.295C557.103 364.23 551.298 369.391 544.363 369.391H125.064C117.001 369.391 110.711 362.456 111.518 354.393L133.611 147.162C134.418 140.228 140.223 135.067 147.158 135.067H566.457C574.52 135.067 580.81 142.002 580.003 150.065Z" fill="white"/>
<path d="M420.509 498.567H305.685C299.396 498.567 294.396 503.727 294.396 509.856H424.702L420.509 498.567Z" fill="#F8FFF7"/>
<path opacity="0.2" d="M297.299 444.058H401.156L407.123 460.83H303.911L297.299 444.058Z" fill="#303231"/>
<path d="M483.684 369.5C483.684 369.5 491.628 191.834 482.758 182.964C465.825 165.869 435.184 158.128 435.184 158.128L402.93 157.645C402.93 157.645 366.322 168.611 355.033 192.64C348.583 206.186 346.486 354.715 346.486 354.715C346.486 354.715 373.254 367.887 415.184 369.5C457.114 371.113 483.684 369.5 483.684 369.5Z" fill="#FF9758"/>
<path d="M483.684 369.5C483.684 369.5 491.628 191.834 482.758 182.964C465.825 165.869 435.184 158.128 435.184 158.128L402.93 157.645C402.93 157.645 366.322 168.611 355.033 192.64C348.583 206.186 346.486 354.715 346.486 354.715C346.486 354.715 373.254 367.887 415.184 369.5C457.114 371.113 483.684 369.5 483.684 369.5Z" fill="url(#paint1_linear)"/>
<path d="M483.684 369.5C483.684 369.5 491.628 191.834 482.758 182.964C465.825 165.869 435.184 158.128 435.184 158.128L402.93 157.645C402.93 157.645 366.322 168.611 355.033 192.64C348.583 206.186 346.486 354.715 346.486 354.715C346.486 354.715 373.254 367.887 415.184 369.5C457.114 371.113 483.684 369.5 483.684 369.5Z" fill="url(#paint2_radial)"/>
<path d="M503.884 291.175C503.884 291.175 494.208 349.071 484.21 354.554C478.243 357.779 423.734 334.073 423.734 334.073L420.67 299.884L462.438 315.527L460.664 291.175H503.884Z" fill="#A1684A"/>
<path d="M503.884 291.175C503.884 291.175 494.208 349.071 484.21 354.554C478.243 357.779 423.734 334.073 423.734 334.073L420.67 299.884L462.438 315.527L460.664 291.175H503.884Z" fill="url(#paint3_linear)"/>
<path d="M431.797 105.232C431.797 110.07 435.829 113.941 440.667 113.618C445.505 113.296 449.537 109.103 449.537 104.265C449.537 99.4266 445.505 95.5561 440.667 95.8787C435.668 96.0399 431.797 100.233 431.797 105.232Z" fill="#A1684A"/>
<path d="M431.797 105.232C431.797 110.07 435.829 113.941 440.667 113.618C445.505 113.296 449.537 109.103 449.537 104.265C449.537 99.4266 445.505 95.5561 440.667 95.8787C435.668 96.0399 431.797 100.233 431.797 105.232Z" fill="url(#paint4_linear)"/>
<path d="M435.184 110.715V158.128C435.184 158.128 427.282 166.837 415.993 166.837C402.769 166.837 402.769 157.645 402.769 157.645V110.715H435.184Z" fill="#A1684A"/>
<path d="M435.184 110.715V158.128C435.184 158.128 427.282 166.837 415.993 166.837C402.769 166.837 402.769 157.645 402.769 157.645V110.715H435.184Z" fill="url(#paint5_linear)"/>
<path d="M431.475 110.715C431.475 110.715 432.926 140.066 420.025 146.356C411.316 150.71 402.769 147.807 402.769 147.807V110.715H431.475Z" fill="#E5AB95"/>
<path d="M379.546 69.1079C374.25 78.75 379.546 112.973 379.546 112.973C380.998 129.745 390.674 139.582 402.93 140.711C402.93 140.711 418.089 143.292 428.572 126.358L435.184 116.36V69.1079C435.184 69.1079 384.842 59.4658 379.546 69.1079Z" fill="#A1684A"/>
<path d="M379.546 69.1079C374.25 78.75 379.546 112.973 379.546 112.973C380.998 129.745 390.674 139.582 402.93 140.711C402.93 140.711 418.089 143.292 428.572 126.358L435.184 116.36V69.1079C435.184 69.1079 384.842 59.4658 379.546 69.1079Z" fill="url(#paint6_linear)"/>
<path d="M402.733 82.2801C402.733 82.2801 365.595 92.8598 357.139 64.9342C354.421 55.9227 353.376 44.028 360.88 36.8544C364.138 33.7657 368.493 31.9611 372.757 31.8427C379.597 31.5144 385.962 35.6505 392.319 37.8034C399.57 40.6463 407.018 43.0918 414.956 44.0476C426.265 45.1865 440.157 47.107 447.54 57.1882C459.511 73.0002 459.585 111.376 436.124 120.307C428.205 123.318 432.126 113.384 432.807 110.505C433.785 107.526 438.449 86.0855 428.725 84.7411C421.381 83.5843 420.426 91.5216 422.532 96.7677C424.638 102.014 419.432 113.044 416.819 105.321C414.896 96.703 415.903 78.155 402.733 82.2801Z" fill="url(#paint7_linear)"/>
<path d="M503.885 291.175C503.885 291.175 501.465 225.216 499.853 215.54C498.24 205.864 491.789 183.286 470.341 173.287C470.341 173.287 455.504 195.381 456.31 212.315C457.117 229.248 460.503 291.175 460.503 291.175C460.503 291.175 476.469 294.239 483.726 294.239C490.983 294.239 503.885 291.175 503.885 291.175Z" fill="#FF9758"/>
<path d="M503.885 291.175C503.885 291.175 501.465 225.216 499.853 215.54C498.24 205.864 491.789 183.286 470.341 173.287C470.341 173.287 455.504 195.381 456.31 212.315C457.117 229.248 460.503 291.175 460.503 291.175C460.503 291.175 476.469 294.239 483.726 294.239C490.983 294.239 503.885 291.175 503.885 291.175Z" fill="url(#paint8_linear)"/>
<path d="M503.885 291.175C503.885 291.175 501.465 225.216 499.853 215.54C498.24 205.864 491.789 183.286 470.341 173.287C470.341 173.287 455.504 195.381 456.31 212.315C457.117 229.248 460.503 291.175 460.503 291.175C460.503 291.175 476.469 294.239 483.726 294.239C490.983 294.239 503.885 291.175 503.885 291.175Z" fill="url(#paint9_linear)"/>
<path d="M260.046 369.068H431.152C434.378 369.068 436.635 366.488 436.313 363.423L424.379 248.6C424.056 245.375 421.154 242.956 418.09 242.956H246.983C243.758 242.956 241.5 245.536 241.823 248.6L253.757 363.423C254.079 366.488 256.982 369.068 260.046 369.068Z" fill="#474747"/>
<path d="M232.469 248.6L244.403 363.424C244.726 366.649 247.628 369.229 250.692 369.229H421.799C425.024 369.229 427.282 366.649 426.959 363.424L415.025 248.6C414.703 245.375 411.961 242.795 408.736 242.795H237.63C234.404 242.795 232.147 245.375 232.469 248.6Z" fill="#282828"/>
<path d="M232.469 248.6L244.403 363.424C244.726 366.649 247.628 369.229 250.692 369.229H421.799C425.024 369.229 427.282 366.649 426.959 363.424L415.025 248.6C414.703 245.375 411.961 242.795 408.736 242.795H237.63C234.404 242.795 232.147 245.375 232.469 248.6Z" fill="url(#paint10_linear)"/>
<path d="M293.913 350.038H374.708C381.32 350.038 387.287 355.36 387.932 361.972L388.739 369.229H283.914L283.108 361.972C282.462 355.36 287.301 350.038 293.913 350.038Z" fill="#484848"/>
<path d="M402.769 357.779H414.38L414.219 355.521H402.608L402.769 357.779Z" fill="#292929"/>
<path d="M403.253 361.488H414.864L414.542 359.231H402.93L403.253 361.488Z" fill="#292929"/>
<path d="M403.575 365.197H415.187L415.025 362.94H403.414L403.575 365.197Z" fill="#292929"/>
<rect x="238" y="13.304" width="72.4999" height="166.557" fill="url(#paint11_linear)"/>
<path d="M274.25 212.669C294.27 212.669 310.5 196.439 310.5 176.419C310.5 156.398 294.27 140.169 274.25 140.169C254.23 140.169 238 156.398 238 176.419C238 196.439 254.23 212.669 274.25 212.669Z" fill="url(#paint12_linear)"/>
<path d="M274.25 212.669C294.27 212.669 310.5 196.439 310.5 176.419C310.5 156.398 294.27 140.169 274.25 140.169C254.23 140.169 238 156.398 238 176.419C238 196.439 254.23 212.669 274.25 212.669Z" fill="url(#paint13_linear)"/>
<path opacity="0.3" d="M288.75 204.717C273.081 212.669 253.903 206.588 245.718 190.919C237.766 175.249 243.847 156.072 259.516 147.886C275.186 139.935 294.363 146.015 302.549 161.685C310.734 177.588 304.419 196.765 288.75 204.717ZM261.621 151.394C247.823 158.411 242.444 175.249 249.46 189.048C256.476 202.846 273.315 208.225 287.113 201.209C300.911 194.193 306.29 177.354 299.274 163.556C292.258 149.991 275.42 144.378 261.621 151.394Z" fill="white"/>
<g clip-path="url(#clip0)">
<path d="M261.189 186.741H265.848V190.735C265.848 190.929 265.91 191.088 266.035 191.213C266.16 191.338 266.319 191.4 266.514 191.4H269.987C270.167 191.4 270.323 191.338 270.455 191.213C270.586 191.088 270.652 190.929 270.652 190.735V186.741H281.155C281.349 186.741 281.509 186.679 281.634 186.554C281.759 186.429 281.821 186.27 281.821 186.076V183.413C281.821 183.22 281.759 183.06 281.634 182.936C281.509 182.811 281.349 182.748 281.155 182.748H270.652V180.294H277.723C280.496 180.294 282.76 179.449 284.514 177.756C286.268 176.066 287.145 173.882 287.145 171.205C287.145 168.53 286.268 166.346 284.514 164.653C282.76 162.963 280.496 162.116 277.723 162.116H266.513C266.319 162.116 266.16 162.179 266.035 162.303C265.91 162.428 265.848 162.588 265.848 162.782V175.864H261.189C260.995 175.864 260.835 175.93 260.71 176.062C260.586 176.193 260.523 176.349 260.523 176.529V179.628C260.523 179.822 260.585 179.982 260.71 180.107C260.836 180.232 260.994 180.294 261.189 180.294H265.848V182.748H261.189C260.995 182.748 260.835 182.811 260.71 182.936C260.586 183.06 260.523 183.22 260.523 183.413V186.076C260.523 186.27 260.585 186.429 260.71 186.554C260.835 186.679 260.995 186.741 261.189 186.741ZM270.652 166.547H277.307C278.777 166.547 279.962 166.976 280.864 167.836C281.765 168.696 282.216 169.819 282.216 171.205C282.216 172.592 281.765 173.716 280.864 174.574C279.962 175.435 278.777 175.865 277.307 175.865H270.652V166.547Z" fill="white"/>
</g>
<rect x="104.016" y="0.721069" width="59.4175" height="136.502" fill="url(#paint14_linear)"/>
<path d="M133.725 164.111C150.132 164.111 163.433 150.81 163.433 134.402C163.433 117.994 150.132 104.693 133.725 104.693C117.317 104.693 104.016 117.994 104.016 134.402C104.016 150.81 117.317 164.111 133.725 164.111Z" fill="url(#paint15_linear)"/>
<path d="M133.725 164.111C150.132 164.111 163.433 150.81 163.433 134.402C163.433 117.994 150.132 104.693 133.725 104.693C117.317 104.693 104.016 117.994 104.016 134.402C104.016 150.81 117.317 164.111 133.725 164.111Z" fill="url(#paint16_linear)"/>
<path opacity="0.3" d="M145.608 157.594C132.766 164.111 117.049 159.127 110.341 146.286C103.824 133.444 108.808 117.727 121.649 111.019C134.491 104.502 150.208 109.485 156.917 122.327C163.625 135.36 158.45 151.077 145.608 157.594ZM123.375 113.894C112.066 119.644 107.658 133.444 113.408 144.752C119.158 156.061 132.958 160.469 144.266 154.719C155.575 148.969 159.983 135.169 154.233 123.86C148.483 112.744 134.683 108.143 123.375 113.894Z" fill="white"/>
<g clip-path="url(#clip1)">
<path d="M123.02 142.862H126.838V146.135C126.838 146.294 126.889 146.425 126.992 146.527C127.094 146.629 127.225 146.681 127.384 146.681H130.231C130.378 146.681 130.506 146.629 130.614 146.527C130.722 146.425 130.776 146.294 130.776 146.135V142.862H139.384C139.543 142.862 139.673 142.811 139.776 142.709C139.878 142.606 139.929 142.476 139.929 142.317V140.135C139.929 139.976 139.878 139.845 139.776 139.743C139.674 139.641 139.543 139.589 139.384 139.589H130.776V137.578H136.571C138.844 137.578 140.698 136.885 142.136 135.498C143.574 134.113 144.293 132.323 144.293 130.129C144.293 127.937 143.574 126.147 142.136 124.76C140.699 123.374 138.844 122.681 136.571 122.681H127.384C127.225 122.681 127.094 122.732 126.992 122.834C126.889 122.936 126.838 123.068 126.838 123.226V133.948H123.02C122.861 133.948 122.731 134.002 122.628 134.11C122.526 134.217 122.475 134.345 122.475 134.493V137.032C122.475 137.192 122.526 137.322 122.628 137.425C122.731 137.527 122.861 137.578 123.02 137.578H126.838V139.589H123.02C122.861 139.589 122.731 139.641 122.628 139.743C122.526 139.845 122.475 139.976 122.475 140.135V142.317C122.475 142.476 122.526 142.606 122.628 142.709C122.731 142.811 122.861 142.862 123.02 142.862ZM130.776 126.312H136.23C137.435 126.312 138.406 126.664 139.145 127.368C139.883 128.073 140.253 128.994 140.253 130.13C140.253 131.266 139.883 132.187 139.145 132.891C138.406 133.596 137.434 133.948 136.23 133.948H130.776V126.312Z" fill="white"/>
</g>
<rect x="503.831" y="14.165" width="59.4175" height="136.502" fill="url(#paint17_linear)"/>
<path d="M533.54 177.555C549.947 177.555 563.249 164.254 563.249 147.846C563.249 131.438 549.947 118.137 533.54 118.137C517.132 118.137 503.831 131.438 503.831 147.846C503.831 164.254 517.132 177.555 533.54 177.555Z" fill="url(#paint18_linear)"/>
<path d="M533.54 177.555C549.947 177.555 563.249 164.254 563.249 147.846C563.249 131.438 549.947 118.137 533.54 118.137C517.132 118.137 503.831 131.438 503.831 147.846C503.831 164.254 517.132 177.555 533.54 177.555Z" fill="url(#paint19_linear)"/>
<path opacity="0.3" d="M545.423 171.038C532.581 177.555 516.865 172.571 510.156 159.73C503.639 146.888 508.623 131.171 521.465 124.462C534.306 117.946 550.023 122.929 556.732 135.771C563.44 148.804 558.265 164.521 545.423 171.038ZM523.19 127.338C511.881 133.088 507.473 146.888 513.223 158.196C518.973 169.505 532.773 173.913 544.082 168.163C555.39 162.413 559.799 148.613 554.048 137.304C548.298 126.188 534.498 121.587 523.19 127.338Z" fill="white"/>
<g clip-path="url(#clip2)">
<path d="M522.835 156.306H526.654V159.579C526.654 159.738 526.705 159.869 526.807 159.971C526.909 160.073 527.04 160.125 527.199 160.125H530.046C530.193 160.125 530.321 160.073 530.429 159.971C530.537 159.869 530.591 159.738 530.591 159.579V156.306H539.199C539.358 156.306 539.489 156.255 539.591 156.153C539.694 156.05 539.745 155.92 539.745 155.761V153.579C539.745 153.42 539.694 153.289 539.591 153.187C539.489 153.085 539.358 153.033 539.199 153.033H530.591V151.022H536.386C538.659 151.022 540.514 150.329 541.952 148.942C543.389 147.557 544.108 145.767 544.108 143.573C544.108 141.381 543.389 139.591 541.952 138.204C540.514 136.818 538.659 136.125 536.386 136.125H527.199C527.04 136.125 526.909 136.176 526.807 136.278C526.705 136.38 526.653 136.511 526.653 136.67V147.392H522.835C522.676 147.392 522.546 147.446 522.443 147.553C522.341 147.661 522.29 147.789 522.29 147.937V150.476C522.29 150.636 522.341 150.766 522.443 150.869C522.546 150.971 522.676 151.022 522.835 151.022H526.654V153.033H522.835C522.676 153.033 522.546 153.085 522.443 153.187C522.341 153.289 522.29 153.42 522.29 153.579V155.761C522.29 155.92 522.341 156.05 522.443 156.153C522.546 156.255 522.676 156.306 522.835 156.306ZM530.591 139.756H536.045C537.25 139.756 538.221 140.108 538.96 140.812C539.699 141.517 540.068 142.438 540.068 143.573C540.068 144.71 539.699 145.631 538.96 146.335C538.221 147.04 537.25 147.392 536.045 147.392H530.591V139.756Z" fill="white"/>
</g>
<g clip-path="url(#clip3)">
<path d="M165.626 331.69H15.3738C10.1931 331.69 6.00012 327.494 6.00012 322.316V218.684C6.00012 213.506 10.1931 209.31 15.3738 209.31H165.626C170.804 209.31 175 213.506 175 218.684V322.316C175 327.494 170.804 331.69 165.626 331.69Z" fill="#CCB375"/>
<path d="M165.626 331.69H15.3738C10.1931 331.69 6.00012 327.494 6.00012 322.316V218.684C6.00012 213.506 10.1931 209.31 15.3738 209.31H165.626C170.804 209.31 175 213.506 175 218.684V322.316C175 327.494 170.804 331.69 165.626 331.69Z" fill="url(#paint20_linear)"/>
<path d="M165.626 331.69H15.3738C10.1931 331.69 6.00012 327.494 6.00012 322.316V218.684C6.00012 213.506 10.1931 209.31 15.3738 209.31H165.626C170.804 209.31 175 213.506 175 218.684V322.316C175 327.494 170.804 331.69 165.626 331.69Z" fill="url(#paint21_linear)"/>
<path d="M49.707 290.896H23.4829C21.8716 290.896 20.5691 292.202 20.5691 293.81C20.5691 295.419 21.8716 296.724 23.4829 296.724H49.707C51.3183 296.724 52.6208 295.419 52.6208 293.81C52.6208 292.202 51.3183 290.896 49.707 290.896Z" fill="white"/>
<path d="M90.5001 293.81C90.5001 292.202 89.1977 290.896 87.5863 290.896H61.3622C59.7509 290.896 58.4484 292.202 58.4484 293.81C58.4484 295.419 59.7509 296.724 61.3622 296.724H87.5863C89.1977 296.724 90.5001 295.419 90.5001 293.81Z" fill="white"/>
<path d="M26.3967 305.465H23.4829C21.8716 305.465 20.5691 306.771 20.5691 308.379C20.5691 309.988 21.8716 311.293 23.4829 311.293H26.3967C28.008 311.293 29.3105 309.988 29.3105 308.379C29.3105 306.771 28.008 305.465 26.3967 305.465Z" fill="white"/>
<path d="M43.8794 305.465H38.0518C36.4405 305.465 35.1381 306.771 35.1381 308.379C35.1381 309.988 36.4405 311.293 38.0518 311.293H43.8794C45.4908 311.293 46.7932 309.988 46.7932 308.379C46.7932 306.771 45.4908 305.465 43.8794 305.465Z" fill="white"/>
<path d="M58.4484 305.465H55.5346C53.9233 305.465 52.6208 306.771 52.6208 308.379C52.6208 309.988 53.9233 311.293 55.5346 311.293H58.4484C60.0597 311.293 61.3622 309.988 61.3622 308.379C61.3622 306.771 60.0597 305.465 58.4484 305.465Z" fill="white"/>
<path d="M75.9311 305.465H70.1036C68.4922 305.465 67.1898 306.771 67.1898 308.379C67.1898 309.988 68.4922 311.293 70.1036 311.293H75.9311C77.5425 311.293 78.8449 309.988 78.8449 308.379C78.8449 306.771 77.5425 305.465 75.9311 305.465Z" fill="white"/>
<path d="M85.5175 306.31C84.9901 306.864 84.6725 307.622 84.6725 308.379C84.6725 309.137 84.9901 309.894 85.5175 310.448C86.0682 310.972 86.8287 311.293 87.5863 311.293C88.3439 311.293 89.0986 310.972 89.6551 310.448C90.1796 309.894 90.5001 309.137 90.5001 308.379C90.5001 307.622 90.1796 306.864 89.6551 306.31C88.5479 305.232 86.5607 305.232 85.5175 306.31Z" fill="white"/>
<path opacity="0.2" d="M160.431 299.638C160.431 309.294 152.605 317.121 142.948 317.121C133.292 317.121 125.466 309.294 125.466 299.638C125.466 289.981 133.292 282.155 142.948 282.155C152.605 282.155 160.431 289.981 160.431 299.638Z" fill="white"/>
<path d="M66.4468 267.586H27.1397C25.1233 267.586 23.4829 265.949 23.4829 263.929V236.277C23.4829 234.258 25.1233 232.621 27.1397 232.621H66.4468C68.466 232.621 70.1036 234.258 70.1036 236.277V263.929C70.1036 265.949 68.466 267.586 66.4468 267.586Z" fill="#F0C41B"/>
<path d="M66.4468 270.5H27.1397C23.5178 270.5 20.5691 267.551 20.5691 263.929V236.278C20.5691 232.656 23.5178 229.707 27.1397 229.707H66.4468C70.0686 229.707 73.0174 232.656 73.0174 236.278V263.929C73.0174 267.551 70.0686 270.5 66.4468 270.5ZM27.1397 235.534C26.7259 235.534 26.3967 235.867 26.3967 236.278V263.929C26.3967 264.34 26.7259 264.672 27.1397 264.672H66.4468C66.8576 264.672 67.1898 264.34 67.1898 263.929V236.278C67.1898 235.867 66.8576 235.534 66.4468 235.534H27.1397Z" fill="#F3D55C"/>
<path d="M70.1036 236.277C70.1036 234.258 68.466 232.621 66.4468 232.621H52.6208H44.6225C42.6003 232.621 40.9656 234.258 40.9656 236.277V244.276V263.929C40.9656 265.949 42.6003 267.586 44.6225 267.586H48.964C50.9833 267.586 52.6208 265.949 52.6208 263.929V247.933C52.6208 245.913 54.2584 244.276 56.2776 244.276H66.4468C68.466 244.276 70.1036 242.638 70.1036 240.619V236.277Z" fill="#F0C41B"/>
<path d="M48.964 270.5H44.6225C41.0006 270.5 38.0518 267.551 38.0518 263.929V236.278C38.0518 232.656 41.0006 229.707 44.6225 229.707H66.4468C70.0686 229.707 73.0174 232.656 73.0174 236.278V240.619C73.0174 244.241 70.0686 247.19 66.4468 247.19H56.2776C55.8639 247.19 55.5346 247.522 55.5346 247.933V263.929C55.5346 267.551 52.5859 270.5 48.964 270.5ZM44.6225 235.534C44.2087 235.534 43.8794 235.867 43.8794 236.278V263.929C43.8794 264.34 44.2087 264.672 44.6225 264.672H48.964C49.3749 264.672 49.707 264.34 49.707 263.929V247.933C49.707 244.311 52.6558 241.362 56.2776 241.362H66.4468C66.8576 241.362 67.1898 241.03 67.1898 240.619V236.278C67.1898 235.867 66.8576 235.534 66.4468 235.534H44.6225Z" fill="#F3D55C"/>
<path d="M70.1036 258.845H52.6208C51.0095 258.845 49.707 257.539 49.707 255.931C49.707 254.323 51.0095 253.017 52.6208 253.017H70.1036C71.7149 253.017 73.0174 254.323 73.0174 255.931C73.0174 257.539 71.7149 258.845 70.1036 258.845Z" fill="#F3D55C"/>
<path d="M40.9656 247.19H23.4829C21.8716 247.19 20.5691 245.884 20.5691 244.276C20.5691 242.667 21.8716 241.362 23.4829 241.362H40.9656C42.577 241.362 43.8794 242.667 43.8794 244.276C43.8794 245.884 42.577 247.19 40.9656 247.19Z" fill="#F3D55C"/>
<path d="M40.9656 258.845H23.4829C21.8716 258.845 20.5691 257.539 20.5691 255.931C20.5691 254.323 21.8716 253.017 23.4829 253.017H40.9656C42.577 253.017 43.8794 254.323 43.8794 255.931C43.8794 257.539 42.577 258.845 40.9656 258.845Z" fill="#F3D55C"/>
</g>
<defs>
<linearGradient id="paint0_linear" x1="547.811" y1="336.304" x2="447.399" y2="95.2392" gradientUnits="userSpaceOnUse">
<stop/>
<stop offset="0.9811" stop-color="#2F2F2F"/>
</linearGradient>
<linearGradient id="paint1_linear" x1="432.364" y1="375.941" x2="404.349" y2="244.291" gradientUnits="userSpaceOnUse">
<stop offset="0.0229968" stop-color="#24BD18"/>
<stop offset="0.9707" stop-color="#3FD133"/>
</linearGradient>
<radialGradient id="paint2_radial" cx="0" cy="0" r="1" gradientUnits="userSpaceOnUse" gradientTransform="translate(407.223 224.576) rotate(104.449) scale(110.617 144.392)">
<stop offset="0.0255008" stop-color="#FFBC01"/>
<stop offset="1" stop-color="#FF4F0D"/>
</radialGradient>
<linearGradient id="paint3_linear" x1="484.925" y1="301.041" x2="460.742" y2="348.269" gradientUnits="userSpaceOnUse">
<stop offset="0.021895" stop-color="#F6C9AD"/>
<stop offset="0.3971" stop-color="#F4C6AA"/>
<stop offset="0.7197" stop-color="#EEBBA2"/>
<stop offset="1" stop-color="#E5AB95"/>
</linearGradient>
<linearGradient id="paint4_linear" x1="445.495" y1="98.6141" x2="437.798" y2="110.094" gradientUnits="userSpaceOnUse">
<stop offset="0.021895" stop-color="#F6C9AD"/>
<stop offset="0.3971" stop-color="#F4C6AA"/>
<stop offset="0.7197" stop-color="#EEBBA2"/>
<stop offset="1" stop-color="#E5AB95"/>
</linearGradient>
<linearGradient id="paint5_linear" x1="427.799" y1="119.41" x2="401.813" y2="141.841" gradientUnits="userSpaceOnUse">
<stop offset="0.021895" stop-color="#F6C9AD"/>
<stop offset="0.3971" stop-color="#F4C6AA"/>
<stop offset="0.7197" stop-color="#EEBBA2"/>
<stop offset="1" stop-color="#E5AB95"/>
</linearGradient>
<linearGradient id="paint6_linear" x1="422.508" y1="80.2234" x2="389.29" y2="118.722" gradientUnits="userSpaceOnUse">
<stop offset="0.021895" stop-color="#F6C9AD"/>
<stop offset="0.3971" stop-color="#F4C6AA"/>
<stop offset="0.7197" stop-color="#EEBBA2"/>
<stop offset="1" stop-color="#E5AB95"/>
</linearGradient>
<linearGradient id="paint7_linear" x1="384.391" y1="118.153" x2="417.921" y2="42.7399" gradientUnits="userSpaceOnUse">
<stop/>
<stop offset="0.9811" stop-color="#2F2F2F"/>
</linearGradient>
<linearGradient id="paint8_linear" x1="485.381" y1="296.734" x2="460.841" y2="227.629" gradientUnits="userSpaceOnUse">
<stop offset="0.0229968" stop-color="#24BD18"/>
<stop offset="0.9707" stop-color="#3FD133"/>
</linearGradient>
<linearGradient id="paint9_linear" x1="488.434" y1="294.239" x2="418.961" y2="224.749" gradientUnits="userSpaceOnUse">
<stop offset="0.0255008" stop-color="#FBAD18"/>
<stop offset="1" stop-color="#FF4F0D"/>
</linearGradient>
<linearGradient id="paint10_linear" x1="407.972" y1="346.768" x2="353.04" y2="239.61" gradientUnits="userSpaceOnUse">
<stop/>
<stop offset="0.9811" stop-color="#2F2F2F"/>
</linearGradient>
<linearGradient id="paint11_linear" x1="274.25" y1="13.304" x2="274.25" y2="179.861" gradientUnits="userSpaceOnUse">
<stop stop-color="#FFC400" stop-opacity="0"/>
<stop offset="1" stop-color="#FFC400"/>
</linearGradient>
<linearGradient id="paint12_linear" x1="249.392" y1="156.713" x2="302.876" y2="198.797" gradientUnits="userSpaceOnUse">
<stop offset="0.00514824" stop-color="#FFD84A"/>
<stop offset="1" stop-color="#FAB548"/>
</linearGradient>
<linearGradient id="paint13_linear" x1="310.5" y1="212.669" x2="270.327" y2="196.552" gradientUnits="userSpaceOnUse">
<stop stop-color="#FF460F"/>
<stop offset="1" stop-color="#FFC400"/>
</linearGradient>
<linearGradient id="paint14_linear" x1="133.725" y1="0.721069" x2="133.725" y2="137.223" gradientUnits="userSpaceOnUse">
<stop stop-color="#FFC400" stop-opacity="0"/>
<stop offset="1" stop-color="#FFC400"/>
</linearGradient>
<linearGradient id="paint15_linear" x1="113.352" y1="118.253" x2="157.185" y2="152.742" gradientUnits="userSpaceOnUse">
<stop offset="0.00514824" stop-color="#FFD84A"/>
<stop offset="1" stop-color="#FAB548"/>
</linearGradient>
<linearGradient id="paint16_linear" x1="163.433" y1="164.111" x2="130.509" y2="150.903" gradientUnits="userSpaceOnUse">
<stop stop-color="#FF460F"/>
<stop offset="1" stop-color="#FFC400"/>
</linearGradient>
<linearGradient id="paint17_linear" x1="533.54" y1="14.165" x2="533.54" y2="150.667" gradientUnits="userSpaceOnUse">
<stop stop-color="#FFC400" stop-opacity="0"/>
<stop offset="1" stop-color="#FFC400"/>
</linearGradient>
<linearGradient id="paint18_linear" x1="513.167" y1="131.697" x2="557" y2="166.186" gradientUnits="userSpaceOnUse">
<stop offset="0.00514824" stop-color="#FFD84A"/>
<stop offset="1" stop-color="#FAB548"/>
</linearGradient>
<linearGradient id="paint19_linear" x1="563.249" y1="177.555" x2="530.325" y2="164.347" gradientUnits="userSpaceOnUse">
<stop stop-color="#FF460F"/>
<stop offset="1" stop-color="#FFC400"/>
</linearGradient>
<linearGradient id="paint20_linear" x1="120.152" y1="331.69" x2="83.1001" y2="201.66" gradientUnits="userSpaceOnUse">
<stop offset="0.0255008" stop-color="#FBAD18"/>
<stop offset="1" stop-color="#FF4F0D"/>
</linearGradient>
<linearGradient id="paint21_linear" x1="6.00012" y1="209.31" x2="182.62" y2="229.615" gradientUnits="userSpaceOnUse">
<stop stop-color="#45D53A"/>
<stop offset="1" stop-color="#24BD18"/>
</linearGradient>
<clipPath id="clip0">
<rect width="29.2843" height="29.2843" fill="white" transform="translate(259.192 162.116)"/>
</clipPath>
<clipPath id="clip1">
<rect width="24" height="24" fill="white" transform="translate(121.384 122.681)"/>
</clipPath>
<clipPath id="clip2">
<rect width="24" height="24" fill="white" transform="translate(521.199 136.125)"/>
</clipPath>
<clipPath id="clip3">
<rect width="169" height="169" fill="white" transform="translate(6.00012 186)"/>
</clipPath>
</defs>
</svg>
