<svg width="1440" height="692" viewBox="0 0 1440 692" fill="none" xmlns="http://www.w3.org/2000/svg">
<g clip-path="url(#clip0)">
<rect width="1440" height="692" fill="#C4C4C4"/>
<rect width="1440" height="692" fill="url(#paint0_linear)"/>
<path d="M904.678 479.868C860.342 496.15 814.913 513.748 767.846 502.48C708.593 488.202 680.279 444.634 703.119 385.468C735.431 301.419 850.203 247.203 927.065 210.962C1017.99 167.545 1120.34 128.812 1221.96 124.996C1405.64 118.096 1585.75 346.434 1432 501.499C1363.8 570.042 1203.48 630.542 1122.41 552.461C1094.62 525.711 1078.41 486.861 1042.3 468.946C998.152 447.201 947.971 463.876 904.678 479.868Z" fill="url(#paint1_linear)"/>
<path d="M836.736 671.018C842.331 664.857 847.217 658.177 851.173 651.282C863.458 629.815 861.075 604.612 838.273 591.816C819.512 581.356 796.938 579.293 775.943 583.356C754.948 587.42 735.375 597.185 717.484 609.112C705.366 617.183 693.714 626.527 685.834 638.786C677.955 651.045 674.279 666.69 678.833 680.43C692.357 720.776 750.28 725.702 782.831 710.515C801.986 701.532 821.736 687.702 836.736 671.018Z" fill="url(#paint2_linear)"/>
<path d="M836.736 671.018C842.331 664.857 847.217 658.177 851.173 651.282C863.458 629.815 861.075 604.612 838.273 591.816C819.512 581.356 796.938 579.293 775.943 583.356C754.948 587.42 735.375 597.185 717.484 609.112C705.366 617.183 693.714 626.527 685.834 638.786C677.955 651.045 674.279 666.69 678.833 680.43C692.357 720.776 750.28 725.702 782.831 710.515C801.986 701.532 821.736 687.702 836.736 671.018Z" fill="url(#paint3_linear)"/>
<path d="M836.736 671.018C842.331 664.857 847.217 658.177 851.173 651.282C863.458 629.815 861.075 604.612 838.273 591.816C819.512 581.356 796.938 579.293 775.943 583.356C754.948 587.42 735.375 597.185 717.484 609.112C705.366 617.183 693.714 626.527 685.834 638.786C677.955 651.045 674.279 666.69 678.833 680.43C692.357 720.776 750.28 725.702 782.831 710.515C801.986 701.532 821.736 687.702 836.736 671.018Z" fill="url(#paint4_linear)"/>
<path d="M836.736 671.018C842.331 664.857 847.217 658.177 851.173 651.282C863.458 629.815 861.075 604.612 838.273 591.816C819.512 581.356 796.938 579.293 775.943 583.356C754.948 587.42 735.375 597.185 717.484 609.112C705.366 617.183 693.714 626.527 685.834 638.786C677.955 651.045 674.279 666.69 678.833 680.43C692.357 720.776 750.28 725.702 782.831 710.515C801.986 701.532 821.736 687.702 836.736 671.018Z" fill="url(#paint5_linear)"/>
<path d="M12.05 394.045C32.3582 391.891 52.6664 391.891 72.0515 394.045C132.361 400.815 178.823 442.047 171.131 505.741C164.669 558.05 136.053 605.743 97.5906 641.436C59.1281 677.13 11.4345 701.746 -38.1052 719.9C-71.6445 732.208 -107.03 741.747 -142.723 739.593C-178.417 737.439 -214.725 722.054 -235.341 693.13C-295.65 607.897 -221.495 486.048 -144.262 443.585C-98.7222 418.661 -42.7207 399.584 12.05 394.045Z" fill="url(#paint6_linear)"/>
<path d="M12.05 394.045C32.3582 391.891 52.6664 391.891 72.0515 394.045C132.361 400.815 178.823 442.047 171.131 505.741C164.669 558.05 136.053 605.743 97.5906 641.436C59.1281 677.13 11.4345 701.746 -38.1052 719.9C-71.6445 732.208 -107.03 741.747 -142.723 739.593C-178.417 737.439 -214.725 722.054 -235.341 693.13C-295.65 607.897 -221.495 486.048 -144.262 443.585C-98.7222 418.661 -42.7207 399.584 12.05 394.045Z" fill="url(#paint7_linear)"/>
<path d="M12.05 394.045C32.3582 391.891 52.6664 391.891 72.0515 394.045C132.361 400.815 178.823 442.047 171.131 505.741C164.669 558.05 136.053 605.743 97.5906 641.436C59.1281 677.13 11.4345 701.746 -38.1052 719.9C-71.6445 732.208 -107.03 741.747 -142.723 739.593C-178.417 737.439 -214.725 722.054 -235.341 693.13C-295.65 607.897 -221.495 486.048 -144.262 443.585C-98.7222 418.661 -42.7207 399.584 12.05 394.045Z" fill="url(#paint8_linear)"/>
<path d="M728.444 -166.999C745.931 -168.854 763.418 -168.854 780.109 -166.999C832.04 -161.17 872.048 -125.666 865.424 -70.8214C859.86 -25.7796 835.219 15.2879 802.1 46.0223C768.981 76.7567 727.914 97.9528 685.257 113.585C656.377 124.183 625.908 132.396 595.173 130.542C564.439 128.687 533.175 115.44 515.423 90.5341C463.492 17.1425 527.346 -87.7783 593.848 -124.342C633.061 -145.803 681.282 -162.23 728.444 -166.999Z" fill="url(#paint9_linear)"/>
<path opacity="0.1" d="M814.289 -38.2324C781.17 -7.49798 740.103 13.6982 697.446 29.3303C668.566 39.9284 638.097 48.1419 607.362 46.2872C576.628 44.4325 545.363 31.185 527.612 6.2795C519.133 -5.90828 513.569 -18.8909 510.92 -32.1385C492.373 8.39911 488.929 53.7059 515.424 90.7991C533.176 115.969 564.44 129.217 595.174 130.807C625.909 132.661 656.378 124.448 685.258 113.85C727.65 98.2177 768.983 77.2865 802.102 46.2872C835.221 15.5528 860.126 -25.7797 865.425 -70.5565C867.015 -83.0092 865.955 -94.4021 863.306 -104.735C851.648 -79.8298 834.426 -57.0439 814.289 -38.2324Z" fill="white"/>
</g>
<defs>
<linearGradient id="paint0_linear" x1="926.395" y1="163.175" x2="772.933" y2="588.209" gradientUnits="userSpaceOnUse">
<stop stop-color="#9210FD"/>
<stop offset="1" stop-color="#6728FF"/>
</linearGradient>
<linearGradient id="paint1_linear" x1="707" y1="426" x2="1417.16" y2="200.039" gradientUnits="userSpaceOnUse">
<stop stop-color="#9210FD"/>
<stop offset="1" stop-color="#6728FF"/>
</linearGradient>
<linearGradient id="paint2_linear" x1="795.733" y1="700.767" x2="718.545" y2="553.075" gradientUnits="userSpaceOnUse">
<stop stop-color="#F7D5E3"/>
<stop offset="1" stop-color="#FF6DA9"/>
</linearGradient>
<linearGradient id="paint3_linear" x1="827.835" y1="694.041" x2="724.91" y2="613.653" gradientUnits="userSpaceOnUse">
<stop offset="0.00132212" stop-color="#6728FF"/>
<stop offset="0.9987" stop-color="#9210FD"/>
</linearGradient>
<linearGradient id="paint4_linear" x1="827.835" y1="694.041" x2="724.91" y2="613.653" gradientUnits="userSpaceOnUse">
<stop offset="0.00132212" stop-color="#6728FF"/>
<stop offset="0.9987" stop-color="#9210FD"/>
</linearGradient>
<linearGradient id="paint5_linear" x1="693.486" y1="699.027" x2="826.156" y2="593.03" gradientUnits="userSpaceOnUse">
<stop stop-color="#9210FD"/>
<stop offset="1" stop-color="#6728FF"/>
</linearGradient>
<linearGradient id="paint6_linear" x1="-106.266" y1="432.153" x2="74.4101" y2="798.979" gradientUnits="userSpaceOnUse">
<stop stop-color="#F7D5E3"/>
<stop offset="1" stop-color="#FF6DA9"/>
</linearGradient>
<linearGradient id="paint7_linear" x1="-46.4407" y1="378.322" x2="-36.3414" y2="698.614" gradientUnits="userSpaceOnUse">
<stop offset="0.00132212" stop-color="#6728FF"/>
<stop offset="0.9987" stop-color="#9210FD"/>
</linearGradient>
<linearGradient id="paint8_linear" x1="139" y1="428" x2="-191.388" y2="685.993" gradientUnits="userSpaceOnUse">
<stop stop-color="#9210FD"/>
<stop offset="1" stop-color="#6728FF"/>
</linearGradient>
<linearGradient id="paint9_linear" x1="781" y1="-154" x2="540.738" y2="96.3957" gradientUnits="userSpaceOnUse">
<stop stop-color="#9210FD"/>
<stop offset="1" stop-color="#6728FF"/>
</linearGradient>
<clipPath id="clip0">
<rect width="1440" height="692" fill="white"/>
</clipPath>
</defs>
</svg>
