<svg width="175" height="64" viewBox="0 0 175 64" fill="none" xmlns="http://www.w3.org/2000/svg">
<g clip-path="url(#clip0)">
<path d="M76.9559 40.1899C81.3309 40.1899 84.2896 37.3234 84.2896 33.7009C84.2896 30.5194 81.9919 28.5349 78.3408 27.6214L75.6025 26.9284C72.8642 26.2354 72.6439 24.7864 72.6439 24.0934C72.6439 22.1089 74.4694 20.8804 76.5153 20.8804C78.75 20.8804 80.3552 22.2664 80.3552 24.3139H83.5656C83.5656 20.3764 80.5126 17.9194 76.6097 17.9194C72.7698 17.9194 69.402 20.3449 69.402 24.1564C69.402 25.9519 70.1574 28.6924 74.7842 29.8579L77.554 30.5509C79.3165 31.0234 81.0477 31.9369 81.0477 33.8584C81.0477 35.6539 79.5369 37.2289 76.9559 37.2289C74.2491 37.2289 72.518 35.4334 72.455 33.5749H69.2446C69.2446 37.0714 72.3291 40.1899 76.9559 40.1899Z" fill="black"/>
<path d="M96.1638 24.8495C94.1809 24.8495 92.0406 25.7 91.0648 27.3695V25.1645H87.9803V47.0254H91.0648V37.7015C92.0406 39.371 94.0864 40.19 96.1638 40.19C100.161 40.19 103.466 37.229 103.466 32.5355C103.466 27.842 100.13 24.8495 96.1638 24.8495ZM95.7861 37.2605C93.5199 37.2605 91.0963 35.528 91.0963 32.567C91.0963 29.606 93.331 27.7475 95.7861 27.7475C98.3355 27.7475 100.35 29.795 100.35 32.567C100.35 35.339 98.3355 37.2605 95.7861 37.2605Z" fill="black"/>
<path d="M121.136 32.441C121.136 27.8105 117.957 24.8495 113.771 24.8495C109.585 24.8495 106.185 27.8105 106.185 32.4725C106.185 37.1345 109.522 40.19 113.771 40.19C116.572 40.19 119.216 38.93 120.506 36.473L118.051 35.2445C117.233 36.599 115.628 37.3235 113.928 37.3235C111.536 37.3235 109.773 36.158 109.364 33.764H121.073C121.104 33.2915 121.136 32.8505 121.136 32.441ZM109.396 31.2755C109.836 28.85 111.536 27.716 113.802 27.716C116.068 27.716 117.768 28.976 118.051 31.2755H109.396Z" fill="black"/>
<path d="M131.699 40.1899C136.074 40.1899 139.032 37.3234 139.032 33.7009C139.032 30.5194 136.735 28.5349 133.084 27.6214L130.345 26.9284C127.607 26.2354 127.387 24.7864 127.387 24.0934C127.387 22.1089 129.212 20.8804 131.258 20.8804C133.493 20.8804 135.098 22.2664 135.098 24.3139H138.309C138.309 20.3764 135.255 17.9194 131.353 17.9194C127.513 17.9194 124.145 20.3449 124.145 24.1564C124.145 25.9519 124.9 28.6924 129.527 29.8579L132.297 30.5509C134.059 31.0234 135.791 31.9369 135.791 33.8584C135.791 35.6539 134.28 37.2289 131.699 37.2289C128.992 37.2289 127.261 35.4334 127.198 33.5749H123.987C123.987 37.0714 127.072 40.1899 131.699 40.1899Z" fill="black"/>
<path d="M150.592 24.8494C149.018 24.8494 146.658 25.6054 145.808 27.4009V17.1949H142.723V39.875H145.808V32.0315C145.808 28.9759 148.137 27.9049 150.057 27.9049C151.945 27.9049 153.393 29.2909 153.393 31.6849V39.875H156.478V31.4644C156.509 27.2749 154.306 24.8494 150.592 24.8494Z" fill="black"/>
<path d="M171.37 25.1645V33.0395C171.37 36.0635 169.041 37.1345 167.121 37.1345C165.233 37.1345 163.785 35.7485 163.785 33.3545V25.1645H160.7V33.575C160.669 37.7645 162.904 40.19 166.618 40.19C168.16 40.19 170.521 39.434 171.37 37.6385V39.875H174.455V25.1645H171.37Z" fill="black"/>
<path d="M15.7374 32C7.04589 32 0 24.9485 0 16.25C0 7.55153 7.04589 0.5 15.7374 0.5H47.2122L26.229 32H15.7374Z" fill="url(#paint0_linear)"/>
<path d="M36.1961 32C44.8876 32 51.9335 39.0515 51.9335 47.75C51.9335 56.4485 44.8876 63.5 36.1961 63.5H4.72131L25.7045 32H36.1961Z" fill="url(#paint1_linear)"/>
</g>
<defs>
<linearGradient id="paint0_linear" x1="20.4586" y1="32.0001" x2="20.4586" y2="0.5" gradientUnits="userSpaceOnUse">
<stop stop-opacity="0.1"/>
<stop offset="1" stop-opacity="0.8"/>
</linearGradient>
<linearGradient id="paint1_linear" x1="31.4749" y1="63.5" x2="31.4749" y2="31.9999" gradientUnits="userSpaceOnUse">
<stop stop-opacity="0.1"/>
<stop offset="1" stop-opacity="0.8"/>
</linearGradient>
<clipPath id="clip0">
<rect width="175" height="63" fill="white" transform="translate(0 0.5)"/>
</clipPath>
</defs>
</svg>
