<svg width="180" height="65" viewBox="0 0 180 65" fill="none" xmlns="http://www.w3.org/2000/svg">
<path fill-rule="evenodd" clip-rule="evenodd" d="M36.3855 24.8059C36.214 21.5061 33.7514 19.5218 30.779 19.5218H30.6663C27.2349 19.5218 25.3312 22.2062 25.3312 25.2562C25.3312 28.6709 27.6342 30.829 30.6528 30.829C34.0189 30.829 36.2327 28.3758 36.3923 25.4732L36.3855 24.8059H36.3855ZM30.6834 16.5696C32.9761 16.5696 35.1322 17.5778 36.7147 19.1559V19.1614C36.7147 18.4039 37.227 17.8333 37.9394 17.8333L38.1185 17.831C39.2322 17.831 39.4607 18.8796 39.4607 19.2115L39.4671 30.9963C39.3874 31.7677 40.2671 32.1661 40.7547 31.6715C42.6556 29.7267 44.9307 21.6738 39.5713 17.0082C34.5753 12.6582 27.873 13.3753 24.3087 15.8198C20.5207 18.4203 18.0955 24.1741 20.451 29.5806C23.0191 35.4762 30.3658 37.234 34.7317 35.4798C36.9428 34.5915 37.9641 37.5659 35.6679 38.5372C32.1987 40.0084 22.5402 39.8603 18.0282 32.0841C14.9797 26.8344 15.1425 17.597 23.2268 12.8106C29.4117 9.14885 37.5657 10.1622 42.4821 15.2709C47.6218 20.6121 47.3221 30.6126 42.3097 34.502C40.0366 36.2682 36.6646 34.548 36.6856 31.9736L36.6621 31.1325C35.08 32.6943 32.976 33.6047 30.6834 33.6047C26.1535 33.6047 22.1665 29.64 22.1665 25.1328C22.1665 20.5812 26.1535 16.5698 30.6834 16.5698" fill="white"/>
<path d="M116.922 32.2001C114.349 32.1991 112.055 30.2304 112.055 27.3277L112.058 12.6062C112.055 11.4955 111.145 10.7185 110.032 10.7185C108.738 10.7237 107.992 11.6705 107.992 12.6062V27.344C107.977 32.3355 112.127 36.2507 116.851 36.2507C118.254 36.2507 118.93 35.1189 118.93 34.1594C118.93 33.2431 118.205 32.2009 116.922 32.2001ZM87.408 32.3764C83.7549 32.3764 80.7956 29.4329 80.7956 25.8017C80.7956 22.1684 83.7549 19.2254 87.408 19.2254C91.0603 19.2254 94.022 22.1684 94.022 25.8017C94.022 29.4329 91.0603 32.3764 87.408 32.3764ZM95.952 15.37C94.8113 15.3693 94.0037 16.2776 94.0037 17.1634V17.854C92.2038 16.3279 89.8718 15.381 87.3511 15.3767C81.8094 15.3691 76.9017 20.0142 76.9017 25.8238C76.9017 31.1519 81.5781 36.2405 87.3511 36.2405C89.6879 36.2405 92.1994 35.3471 93.9846 33.8312L93.9901 34.3247C93.9901 35.2707 94.7424 36.2405 95.9807 36.2405C97.3849 36.2405 98.0134 35.1234 98.0134 34.2419V17.2719C98.0289 16.4748 97.1493 15.3723 95.952 15.37ZM103.007 15.3664C101.792 15.37 101.009 16.3615 101.007 17.3673L101.011 34.2743C101.003 35.3982 101.895 36.2333 103 36.2333C104.258 36.2333 105.064 35.2544 105.064 34.1876L105.072 17.3955C105.072 16.4019 104.064 15.3628 103.007 15.3664ZM68.4086 15.3768C65.919 15.3412 64.0132 16.7786 62.8375 17.7349C61.5327 16.3442 59.861 15.4952 58.1432 15.3895C56.3329 15.2774 54.6338 15.8845 53.5555 16.7568C53.1762 15.8845 52.6787 15.3701 51.8245 15.3701C50.8883 15.3701 49.8929 16.1672 49.8929 17.4645C49.8929 18.7618 49.9052 34.2947 49.9052 34.2947C49.9052 35.2613 50.7339 36.2406 51.9192 36.2406C53.224 36.2406 53.9464 35.2478 53.9464 34.2879V21.805C53.9464 20.5901 56.0332 19.1514 57.7989 19.1752C58.9261 19.1906 60.2658 20.2951 60.2658 22.0406L60.2762 34.318C60.2762 35.4027 61.3735 36.2339 62.3694 36.2339C63.5543 36.2339 64.4507 35.3437 64.4507 34.3291V21.9226C64.4507 20.4012 66.7724 19.1277 68.3613 19.21C69.6067 19.275 70.7084 20.6257 70.7084 21.9226V34.3121C70.7084 35.3841 71.721 36.2339 72.8132 36.2339C73.7716 36.2339 74.8809 35.6026 74.8809 34.2947V21.9574C74.8932 17.4296 70.3999 15.3182 68.4086 15.3768H68.4086ZM105.053 12.0505C105.053 12.892 104.207 13.5818 102.989 13.5818C101.765 13.5818 101 12.7467 101 11.9594L101.001 10.8756C101.015 10.0555 101.735 9.13757 102.978 9.13757C104.34 9.13757 105.053 10.0163 105.053 10.8756V12.0505H105.053Z" fill="white"/>
<path fill-rule="evenodd" clip-rule="evenodd" d="M162.334 15.3633C161.129 15.3633 160.353 16.3442 160.353 17.2478L160.355 25.8184C160.355 29.1257 157.555 32.3554 153.661 32.3554C150.48 32.3554 147.107 29.608 147.107 25.8801V17.2954C147.107 16.3945 146.429 15.3633 145.081 15.3633C144.13 15.3633 143.158 16.1577 143.158 17.2569V25.812C143.158 31.3516 148.133 36.2307 153.649 36.2307C159.672 36.2307 164.295 31.093 164.295 25.8378V17.2538C164.295 16.2915 163.495 15.3633 162.334 15.3633H162.334ZM138.822 15.3633C133.16 15.3871 128.332 20.3505 128.36 25.8132V34.3291C128.36 35.4375 129.272 36.2509 130.233 36.2509C131.376 36.2509 132.266 35.4102 132.266 34.3877V25.7423C132.262 22.6472 134.981 19.2306 138.797 19.2488C140.038 19.2536 140.854 18.3162 140.847 17.2783C140.843 16.4503 140.245 15.3582 138.822 15.3633H138.822ZM125.54 34.6358C125.53 35.4338 124.692 36.2507 123.476 36.2507C122.249 36.2507 121.484 35.3589 121.484 34.5705L121.486 33.2075C121.501 32.3874 122.263 31.5364 123.508 31.5364C124.867 31.5364 125.545 32.4487 125.545 33.3077L125.54 34.6358H125.54Z" fill="white"/>
<path d="M125.317 50.4186C123.751 50.4186 122.482 49.1558 122.482 47.5987C122.482 46.0413 123.751 44.78 125.317 44.78C126.883 44.78 128.153 46.0413 128.153 47.5987C128.153 49.1558 126.883 50.4186 125.317 50.4186ZM128.981 43.1263C128.491 43.1263 128.146 43.5152 128.146 43.8954V44.1912C127.373 43.537 126.374 43.1319 125.293 43.1295C122.917 43.1263 120.812 45.1178 120.812 47.609C120.812 49.8931 122.818 52.075 125.293 52.075C126.295 52.075 127.372 51.6921 128.137 51.0415C128.137 51.0415 128.151 51.3836 128.167 51.4482C128.036 52.4825 127.283 53.4289 125.989 53.8372C125.123 54.1108 122.625 53.524 122.42 53.4883C121.834 53.3862 121.538 53.8883 121.542 54.3322C121.543 54.6878 121.828 54.9709 122.41 55.1547C123.152 55.3879 124.449 55.5317 125.581 55.5479C126.433 55.5602 129.75 54.8921 129.865 51.2807C129.866 51.2593 129.865 43.9413 129.865 43.9413C129.871 43.5999 129.495 43.1279 128.981 43.1263H128.981ZM159.791 50.4186C158.358 50.4186 157.176 49.3605 156.985 47.9884L156.985 47.2071C157.178 45.8357 158.358 44.78 159.791 44.78C161.357 44.78 162.626 46.0413 162.626 47.5987C162.626 49.1558 161.357 50.4186 159.791 50.4186H159.791ZM159.815 43.1295C158.734 43.1317 157.734 43.537 156.963 44.1912V43.8954C156.963 43.5152 156.617 43.1263 156.127 43.1263C155.614 43.1279 155.237 43.5999 155.244 43.9413L155.245 54.7528C155.241 55.2347 155.624 55.5931 156.098 55.5931C156.637 55.5931 156.982 55.1733 156.982 54.7159L156.983 51.0518C157.748 51.6957 158.818 52.075 159.815 52.075C162.29 52.075 164.295 49.8931 164.295 47.609C164.295 45.1178 162.191 43.1263 159.815 43.1295H159.815ZM153.759 43.1263C153.243 43.1263 152.91 43.5469 152.91 43.9354V47.609C152.91 49.0271 151.71 50.4123 150.041 50.4123C148.677 50.4123 147.23 49.2342 147.23 47.6351V43.9548C147.23 43.5695 146.94 43.1263 146.362 43.1263C145.954 43.1263 145.537 43.4669 145.537 43.9393V47.6066C145.537 49.9818 147.67 52.0735 150.036 52.0735C152.618 52.0735 154.6 49.8713 154.6 47.6181V43.9369C154.6 43.5251 154.257 43.1263 153.759 43.1263ZM140.399 50.4185C138.844 50.4185 137.583 49.1735 137.565 47.6322V47.5645C137.581 46.3179 138.408 45.2662 139.546 44.9094C139.812 44.827 140.096 44.7827 140.389 44.7827C141.944 44.7827 143.206 46.0273 143.223 47.5701L143.223 47.6374C143.208 48.884 142.381 49.9354 141.242 50.2918C140.976 50.3737 140.693 50.4185 140.399 50.4185L140.399 50.4185ZM144.894 47.5919C144.894 45.3082 142.89 43.1262 140.413 43.1262C140.386 43.1262 140.358 43.1302 140.329 43.131C137.972 43.1524 135.895 45.1331 135.895 47.6089C135.895 49.893 137.899 52.0749 140.375 52.0749C140.402 52.0749 140.431 52.071 140.459 52.071C142.817 52.048 144.894 50.068 144.894 47.5919ZM135.026 43.1263C132.598 43.1366 130.529 45.2651 130.541 47.6074V51.2581C130.541 51.7337 130.932 52.0822 131.344 52.0822C131.834 52.0822 132.215 51.7222 132.215 51.2834V47.5761C132.214 46.2496 133.38 44.7852 135.015 44.7927C135.548 44.7946 135.899 44.3931 135.895 43.948C135.893 43.5928 135.636 43.124 135.026 43.1263Z" fill="white"/>
</svg>
