<svg width="110" height="109" viewBox="0 0 110 109" fill="none" xmlns="http://www.w3.org/2000/svg">
<path d="M35.0598 0H0.997314V34.0625H35.0598V0ZM28.2473 27.25H7.80981V6.8125H28.2473V27.25Z" fill="black"/>
<path d="M21.4348 13.625H14.6223V20.4375H21.4348V13.625Z" fill="black"/>
<path d="M75.9348 0V34.0625H109.997V0H75.9348ZM103.185 27.25H82.7473V6.8125H103.185V27.25Z" fill="black"/>
<path d="M96.3723 13.625H89.5598V20.4375H96.3723V13.625Z" fill="black"/>
<path d="M0.997314 109H35.0598V74.9375H0.997314V109ZM7.80981 81.75H28.2473V102.188H7.80981V81.75Z" fill="black"/>
<path d="M21.4348 88.5625H14.6223V95.375H21.4348V88.5625Z" fill="black"/>
<path d="M69.1223 0H55.4973V6.8125H69.1223V0Z" fill="black"/>
<path d="M55.4973 27.25H62.3098V20.4375H69.1223V13.625H48.6848V6.8125H41.8723V13.625V17.0312V20.4375H55.4973V27.25Z" fill="black"/>
<path d="M48.6848 27.25H41.8723V34.0625H48.6848V27.25Z" fill="black"/>
<path d="M69.1223 34.0625H62.3098V40.875H41.8723V47.6875H69.1223V34.0625Z" fill="black"/>
<path d="M7.80981 61.3125H14.6223V54.5H7.80981V40.875H0.997314V68.125H7.80981V61.3125Z" fill="black"/>
<path d="M21.4348 40.875H14.6223V47.6875H21.4348V40.875Z" fill="black"/>
<path d="M41.8723 68.125H55.4973V61.3125H48.6848V54.5H35.0598V40.875H28.2473V54.5H21.4348V68.125H28.2473V61.3125H31.6536H35.0598H41.8723V68.125Z" fill="black"/>
<path d="M69.1223 54.5H62.3098V68.125H69.1223V54.5Z" fill="black"/>
<path d="M62.3098 74.9375H41.8723V81.75H55.4973V102.188H41.8723V109H62.3098V102.188H75.9348V95.375H62.3098V74.9375Z" fill="black"/>
<path d="M48.6848 88.5625H41.8723V95.375H48.6848V88.5625Z" fill="black"/>
<path d="M75.9348 74.9375H69.1223V88.5625H75.9348V74.9375Z" fill="black"/>
<path d="M103.185 88.5625H82.7473V109H89.5598V95.375H103.185V88.5625Z" fill="black"/>
<path d="M109.997 102.188H96.3723V109H109.997V102.188Z" fill="black"/>
<path d="M109.997 74.9375H103.185V81.75H109.997V74.9375Z" fill="black"/>
<path d="M82.7473 81.75H89.5598V61.3125H75.9348V68.125H82.7473V81.75Z" fill="black"/>
<path d="M96.3723 47.6875H89.5598V40.875H82.7473V47.6875H75.9348V54.5H103.185V47.6875H109.997V40.875H96.3723V47.6875Z" fill="black"/>
<path d="M109.997 61.3125H96.3723V68.125H109.997V61.3125Z" fill="black"/>
</svg>
