<svg width="80" height="80" viewBox="0 0 80 80" fill="none" xmlns="http://www.w3.org/2000/svg">
<path d="M80 44.4833C80 45.95 78.8 47.15 77.3333 47.15H2.66667C1.2 47.15 0 45.95 0 44.4833V3.54997C0 2.0833 1.2 0.883301 2.66667 0.883301H77.3333C78.8 0.883301 80 2.0833 80 3.54997V44.4833Z" fill="white"/>
<path d="M80 44.4833C80 45.95 78.8 47.15 77.3333 47.15H2.66667C1.2 47.15 0 45.95 0 44.4833V3.54997C0 2.0833 1.2 0.883301 2.66667 0.883301H77.3333C78.8 0.883301 80 2.0833 80 3.54997V44.4833Z" fill="url(#paint0_linear)"/>
<path d="M77.3333 0.883301C78.8 0.883301 80 2.0833 80 3.54997V44.4833C80 45.95 78.8 47.15 77.3333 47.15H2.66667C1.2 47.15 0 45.95 0 44.4833" fill="url(#paint1_linear)"/>
<path d="M14.2933 30.7285C16.7912 30.7285 18.4804 29.0995 18.4804 27.0408C18.4804 25.2328 17.1685 24.105 15.084 23.5859L13.5206 23.1921C11.9572 22.7982 11.8314 21.9748 11.8314 21.5809C11.8314 20.4532 12.8737 19.755 14.0417 19.755C15.3176 19.755 16.2341 20.5427 16.2341 21.7063H18.0671C18.0671 19.4686 16.3239 18.0723 14.0956 18.0723C11.9033 18.0723 9.98048 19.4507 9.98048 21.6167C9.98048 22.6371 10.4118 24.1945 13.0534 24.8569L14.6347 25.2507C15.6411 25.5192 16.6294 26.0384 16.6294 27.1303C16.6294 28.1507 15.7669 29.0458 14.2933 29.0458C12.7479 29.0458 11.7595 28.0254 11.7236 26.9692H9.89062C9.89062 28.9563 11.6517 30.7285 14.2933 30.7285Z" fill="white"/>
<path d="M25.2598 22.0107C24.1276 22.0107 22.9057 22.494 22.3486 23.4428V22.1897H20.5875V34.6132H22.3486V29.3144C22.9057 30.2632 24.0737 30.7286 25.2598 30.7286C27.542 30.7286 29.4288 29.0459 29.4288 26.3786C29.4288 23.7113 27.524 22.0107 25.2598 22.0107ZM25.0441 29.0638C23.7503 29.0638 22.3666 28.0792 22.3666 26.3965C22.3666 24.7138 23.6424 23.6576 25.0441 23.6576C26.4997 23.6576 27.6498 24.8212 27.6498 26.3965C27.6498 27.9718 26.4997 29.0638 25.0441 29.0638Z" fill="white"/>
<path d="M39.5173 26.3249C39.5173 23.6934 37.7023 22.0107 35.3123 22.0107C32.9223 22.0107 30.9815 23.6934 30.9815 26.3428C30.9815 28.9922 32.8863 30.7286 35.3123 30.7286C36.9117 30.7286 38.4211 30.0126 39.1579 28.6163L37.7563 27.9181C37.289 28.6879 36.3726 29.0996 35.4022 29.0996C34.0364 29.0996 33.0301 28.4373 32.7965 27.0768H39.4814C39.4994 26.8082 39.5173 26.5576 39.5173 26.3249ZM32.8145 25.6626C33.066 24.2842 34.0364 23.6397 35.3303 23.6397C36.6241 23.6397 37.5945 24.3558 37.7563 25.6626H32.8145Z" fill="white"/>
<path d="M45.5481 30.7285C48.0459 30.7285 49.7351 29.0995 49.7351 27.0408C49.7351 25.2328 48.4233 24.105 46.3388 23.5859L44.7754 23.1921C43.212 22.7982 43.0862 21.9748 43.0862 21.5809C43.0862 20.4532 44.1284 19.755 45.2965 19.755C46.5724 19.755 47.4889 20.5427 47.4889 21.7063H49.3218C49.3218 19.4686 47.5787 18.0723 45.3504 18.0723C43.158 18.0723 41.2352 19.4507 41.2352 21.6167C41.2352 22.6371 41.6665 24.1945 44.3081 24.8569L45.8895 25.2507C46.8958 25.5192 47.8842 26.0384 47.8842 27.1303C47.8842 28.1507 47.0216 29.0458 45.5481 29.0458C44.0026 29.0458 43.0143 28.0254 42.9783 26.9692H41.1454C41.1454 28.9563 42.9065 30.7285 45.5481 30.7285Z" fill="white"/>
<path d="M56.3348 22.0107C55.4363 22.0107 54.0886 22.4403 53.6034 23.4607V17.6606H51.8423V30.5496H53.6034V26.0921C53.6034 24.3557 54.9331 23.7471 56.0293 23.7471C57.1075 23.7471 57.9342 24.5347 57.9342 25.8952V30.5496H59.6952V25.7699C59.7132 23.3891 58.4553 22.0107 56.3348 22.0107Z" fill="white"/>
<path d="M68.198 22.1897V26.665C68.198 28.3835 66.8682 28.9922 65.7721 28.9922C64.6939 28.9922 63.8672 28.2045 63.8672 26.844V22.1897H62.1061V26.9693C62.0882 29.3502 63.3641 30.7286 65.4845 30.7286C66.3651 30.7286 67.7128 30.2989 68.198 29.2786V30.5496H69.9591V22.1897H68.198Z" fill="white"/>
<path d="M0 3.54997C0 2.0833 1.2 0.883301 2.66667 0.883301H77.3333C78.8 0.883301 80 2.0833 80 3.54997" fill="#B682FA"/>
<g opacity="0.1">
<path d="M65.5354 57.1187L54.5485 46.1318H58.4397C59.4697 46.1318 60.4998 45.674 61.1864 44.9873C61.8731 44.3007 62.3309 43.2706 62.3309 42.2406C62.3309 40.0661 60.6142 38.3494 58.4397 38.3494H45.1639C43.1039 38.3494 41.2727 40.1806 41.2727 42.2406V55.5164C41.2727 57.6909 42.9894 59.4076 45.1639 59.4076C47.3384 59.4076 49.0551 57.6909 49.0551 55.5164V51.7397L60.042 62.7266C61.5298 64.2144 64.0476 64.2144 65.5354 62.7266C67.1377 61.1243 67.1377 58.7209 65.5354 57.1187Z" fill="#494946"/>
<path d="M65.5354 57.1187L54.5485 46.1318H58.4397C59.4697 46.1318 60.4998 45.674 61.1864 44.9873C61.8731 44.3007 62.3309 43.2706 62.3309 42.2406C62.3309 40.0661 60.6142 38.3494 58.4397 38.3494H45.1639C43.1039 38.3494 41.2727 40.1806 41.2727 42.2406V55.5164C41.2727 57.6909 42.9894 59.4076 45.1639 59.4076C47.3384 59.4076 49.0551 57.6909 49.0551 55.5164V51.7397L60.042 62.7266C61.5298 64.2144 64.0476 64.2144 65.5354 62.7266C67.1377 61.1243 67.1377 58.7209 65.5354 57.1187Z" fill="url(#paint2_linear)"/>
</g>
<path d="M58.4397 36.2894H45.1639C43.1039 36.2894 41.2727 38.1206 41.2727 40.1806V53.4564C41.2727 55.6309 42.9894 57.3476 45.1639 57.3476C47.3384 57.3476 49.0551 55.6309 49.0551 53.4564V49.5652L60.042 60.5521C61.5298 62.0399 64.0476 62.0399 65.5354 60.5521C67.0232 59.0643 67.0232 56.5465 65.5354 55.0587L54.5485 44.0718H58.4397C59.4697 44.0718 60.4998 43.614 61.1864 42.9273C61.8731 42.2407 62.3309 41.2106 62.3309 40.1806C62.3309 38.0061 60.6142 36.2894 58.4397 36.2894Z" fill="#515150"/>
<path d="M58.4397 36.2894H45.1639C43.1039 36.2894 41.2727 38.1206 41.2727 40.1806V53.4564C41.2727 55.6309 42.9894 57.3476 45.1639 57.3476C47.3384 57.3476 49.0551 55.6309 49.0551 53.4564V49.5652L60.042 60.5521C61.5298 62.0399 64.0476 62.0399 65.5354 60.5521C67.0232 59.0643 67.0232 56.5465 65.5354 55.0587L54.5485 44.0718H58.4397C59.4697 44.0718 60.4998 43.614 61.1864 42.9273C61.8731 42.2407 62.3309 41.2106 62.3309 40.1806C62.3309 38.0061 60.6142 36.2894 58.4397 36.2894Z" fill="url(#paint3_linear)"/>
<path d="M49.0551 49.5652L60.0419 60.5521C61.5298 62.0399 64.0476 62.0399 65.5354 60.5521C67.0232 59.0643 67.0232 56.5465 65.5354 55.0587L54.5485 44.0718H58.4397C59.4697 44.0718 60.4997 43.614 61.1864 42.9273C61.8731 42.2407 62.3309 41.2106 62.3309 40.1806C62.3309 38.0061 60.6142 36.2894 58.4397 36.2894H45.1639" fill="#494946"/>
<path d="M49.0551 49.5652L60.0419 60.5521C61.5298 62.0399 64.0476 62.0399 65.5354 60.5521C67.0232 59.0643 67.0232 56.5465 65.5354 55.0587L54.5485 44.0718H58.4397C59.4697 44.0718 60.4997 43.614 61.1864 42.9273C61.8731 42.2407 62.3309 41.2106 62.3309 40.1806C62.3309 38.0061 60.6142 36.2894 58.4397 36.2894H45.1639" fill="url(#paint4_linear)"/>
<defs>
<linearGradient id="paint0_linear" x1="1.20803" y1="33.4712" x2="71.5028" y2="6.7634" gradientUnits="userSpaceOnUse">
<stop stop-color="#9210FD"/>
<stop offset="1" stop-color="#6728FF"/>
</linearGradient>
<linearGradient id="paint1_linear" x1="1.20803" y1="33.4712" x2="71.5028" y2="6.7634" gradientUnits="userSpaceOnUse">
<stop stop-color="#9210FD"/>
<stop offset="1" stop-color="#6728FF"/>
</linearGradient>
<linearGradient id="paint2_linear" x1="64.2479" y1="59.3137" x2="50.9775" y2="42.5089" gradientUnits="userSpaceOnUse">
<stop/>
<stop offset="0.9811" stop-color="#2F2F2F"/>
</linearGradient>
<linearGradient id="paint3_linear" x1="64.1704" y1="57.1596" x2="50.9631" y2="40.4158" gradientUnits="userSpaceOnUse">
<stop/>
<stop offset="0.9811" stop-color="#2F2F2F"/>
</linearGradient>
<linearGradient id="paint4_linear" x1="64.5508" y1="57.1596" x2="51.004" y2="42.6187" gradientUnits="userSpaceOnUse">
<stop/>
<stop offset="0.9811" stop-color="#2F2F2F"/>
</linearGradient>
</defs>
</svg>
