<svg width="34" height="24" viewBox="0 0 34 24" fill="none" xmlns="http://www.w3.org/2000/svg">
<path d="M33.4594 11.2502L23.6392 1.4299C23.04 0.83074 22.0683 0.83074 21.4691 1.4299C20.8698 2.02918 20.8698 3.00065 21.4691 3.59993L28.6699 10.8008H2.44323C1.59586 10.8008 0.908813 11.4878 0.908813 12.3352C0.908813 13.1824 1.59586 13.8696 2.44323 13.8696H28.6699L21.4694 21.0704C20.8701 21.6697 20.8701 22.6412 21.4694 23.2404C21.7689 23.5398 22.1617 23.6898 22.5544 23.6898C22.9471 23.6898 23.3398 23.5398 23.6394 23.2404L33.4594 13.4202C34.0587 12.8209 34.0587 11.8494 33.4594 11.2502Z" fill="url(#paint0_linear)"/>
<defs>
<linearGradient id="paint0_linear" x1="1.40713" y1="16.9758" x2="31.5195" y2="7.36084" gradientUnits="userSpaceOnUse">
<stop stop-color="#9210FD"/>
<stop offset="1" stop-color="#6728FF"/>
</linearGradient>
</defs>
</svg>
