<svg width="80" height="80" viewBox="0 0 80 80" fill="none" xmlns="http://www.w3.org/2000/svg">
<path d="M36.0784 17.7467H8.62744V45.1977H36.0784V17.7467Z" fill="#D38C0D"/>
<path d="M36.0784 17.7467H8.62744V45.1977H36.0784V17.7467Z" fill="url(#paint0_linear)"/>
<path d="M53.0719 25.5899H37.3856V41.2761H53.0719V25.5899Z" fill="#D38C0D"/>
<path d="M53.0719 25.5899H37.3856V41.2761H53.0719V25.5899Z" fill="url(#paint1_linear)"/>
<path d="M32.5219 13.9938L43.4286 24.9005L54.3354 13.9938L43.4287 3.08697L32.5219 13.9938Z" fill="#D38C0D"/>
<path d="M32.5219 13.9938L43.4286 24.9005L54.3354 13.9938L43.4287 3.08697L32.5219 13.9938Z" fill="url(#paint2_linear)"/>
<path d="M63.5294 34.4788C63.5294 36.0474 62.7451 37.3546 61.5686 37.3546C60.3922 37.3546 59.6078 36.0474 59.6078 34.4788V26.2435C59.6078 24.6748 60.3922 23.3676 61.5686 23.3676C62.7451 23.3676 63.5294 24.6748 63.5294 26.2435V34.4788Z" fill="url(#paint3_linear)"/>
<path d="M58.6928 66.1128H16.2091C16.2091 66.1128 1.75 53.75 0 34.7402H68.1046L58.6928 66.1128Z" fill="url(#paint4_linear)"/>
<path d="M58.6928 66.1128L43.5294 44.8056L0 34.7402H68.1046L58.6928 66.1128Z" fill="url(#paint5_linear)"/>
<path d="M80 23.6291C80 25.982 78.0392 28.2043 75.6863 28.2043H63.5294C61.1765 28.2043 59.2157 25.982 59.2157 23.6291C59.2157 21.2761 61.1765 19.0539 63.5294 19.0539H75.6863C78.0392 19.0539 80 21.2761 80 23.6291Z" fill="url(#paint6_linear)"/>
<path d="M62.2222 64.8055C62.2222 65.5899 61.6993 66.1127 60.915 66.1127H16.4706C15.6863 66.1127 15.1634 65.5899 15.1634 64.8055C15.1634 64.0212 15.6863 63.4984 16.4706 63.4984H60.915C61.6993 63.4984 62.2222 64.0212 62.2222 64.8055Z" fill="#2AB61F"/>
<path d="M16.4706 76.8317C21.8852 76.8317 26.2745 72.4424 26.2745 67.0278C26.2745 61.6132 21.8852 57.2239 16.4706 57.2239C11.0561 57.2239 6.66669 61.6132 6.66669 67.0278C6.66669 72.4424 11.0561 76.8317 16.4706 76.8317Z" fill="black"/>
<path d="M23.3987 60.2304C27.1895 64.0212 27.1895 70.2957 23.3987 74.0866C19.6078 77.8774 13.3333 77.8774 9.54248 73.9559" fill="black"/>
<path d="M16.4706 69.7729C17.9866 69.7729 19.2157 68.5438 19.2157 67.0277C19.2157 65.5117 17.9866 64.2827 16.4706 64.2827C14.9545 64.2827 13.7255 65.5117 13.7255 67.0277C13.7255 68.5438 14.9545 69.7729 16.4706 69.7729Z" fill="white"/>
<path d="M54.9019 76.8317C60.3165 76.8317 64.7059 72.4424 64.7059 67.0278C64.7059 61.6132 60.3165 57.2239 54.9019 57.2239C49.4874 57.2239 45.098 61.6132 45.098 67.0278C45.098 72.4424 49.4874 76.8317 54.9019 76.8317Z" fill="black"/>
<path d="M61.8301 60.2304C65.6209 64.0212 65.6209 70.2957 61.8301 74.0866C58.0392 77.8774 51.7647 77.8774 47.9739 73.9559" fill="black"/>
<path d="M54.902 69.7729C56.418 69.7729 57.6471 68.5438 57.6471 67.0277C57.6471 65.5117 56.418 64.2827 54.902 64.2827C53.3859 64.2827 52.1569 65.5117 52.1569 67.0277C52.1569 68.5438 53.3859 69.7729 54.902 69.7729Z" fill="white"/>
<path d="M56.8627 65.067C57.9085 66.1127 57.9085 67.9428 56.8627 68.9885C55.817 70.0343 53.9869 70.0343 52.9412 68.9885" fill="#D0E2DF"/>
<defs>
<linearGradient id="paint0_linear" x1="36.0784" y1="45.1977" x2="20.8675" y2="39.0956" gradientUnits="userSpaceOnUse">
<stop stop-color="#FF460F"/>
<stop offset="1" stop-color="#FFC400"/>
</linearGradient>
<linearGradient id="paint1_linear" x1="53.0719" y1="41.2761" x2="44.3799" y2="37.7892" gradientUnits="userSpaceOnUse">
<stop stop-color="#FF460F"/>
<stop offset="1" stop-color="#FFC400"/>
</linearGradient>
<linearGradient id="paint2_linear" x1="43.4287" y1="3.08697" x2="47.0477" y2="11.5551" gradientUnits="userSpaceOnUse">
<stop stop-color="#FF460F"/>
<stop offset="1" stop-color="#FFC400"/>
</linearGradient>
<linearGradient id="paint3_linear" x1="59.6078" y1="23.3676" x2="63.7582" y2="23.4645" gradientUnits="userSpaceOnUse">
<stop stop-color="#45D53A"/>
<stop offset="1" stop-color="#24BD18"/>
</linearGradient>
<linearGradient id="paint4_linear" x1="1.28834e-05" y1="34.7402" x2="69.8353" y2="47.361" gradientUnits="userSpaceOnUse">
<stop stop-color="#45D53A"/>
<stop offset="1" stop-color="#24BD18"/>
</linearGradient>
<linearGradient id="paint5_linear" x1="0" y1="34.7402" x2="69.8353" y2="47.3611" gradientUnits="userSpaceOnUse">
<stop stop-color="#45D53A"/>
<stop offset="1" stop-color="#24BD18"/>
</linearGradient>
<linearGradient id="paint6_linear" x1="59.2157" y1="19.0539" x2="80.4645" y2="23.072" gradientUnits="userSpaceOnUse">
<stop stop-color="#45D53A"/>
<stop offset="1" stop-color="#24BD18"/>
</linearGradient>
</defs>
</svg>
