<svg width="14" height="16" viewBox="0 0 14 16" fill="none" xmlns="http://www.w3.org/2000/svg">
<path d="M13.4069 8.86969C13.3581 8.74508 13.2444 8.66376 13.1182 8.66376H9.695V0.333232C9.695 0.149294 9.55504 0 9.3826 0L4.38426 0C4.21181 0 4.07185 0.149294 4.07185 0.333232V8.66379H0.635507C0.509309 8.66379 0.395588 8.74511 0.346854 8.86907C0.298735 8.99368 0.324976 9.13698 0.414331 9.23229L6.64662 15.9021C6.70535 15.9647 6.78471 16 6.8678 16C6.95089 16 7.03026 15.9647 7.08898 15.9027L13.3394 9.23295C13.4288 9.1376 13.4556 8.99434 13.4069 8.86969Z" fill="white"/>
</svg>
