<svg width="130" height="181" viewBox="0 0 130 181" fill="none" xmlns="http://www.w3.org/2000/svg">
<path d="M103.103 0.00012207H0V155.93H129.087V25.9848L103.103 0.00012207Z" fill="#C3C6C8"/>
<path d="M103.103 0.00012207H0V155.93H129.087V25.9848L103.103 0.00012207Z" fill="url(#paint0_linear)"/>
<path d="M103.103 0.00012207H0V155.93H129.087V25.9848L103.103 0.00012207Z" fill="url(#paint1_linear)"/>
<path d="M103.103 25.9846H129.087L103.103 -7.62939e-05V25.9846Z" fill="#52EB45"/>
<path d="M103.103 25.9846H129.087L103.103 -7.62939e-05V25.9846Z" fill="url(#paint2_linear)"/>
<path d="M62.9376 20.5533H45.3787V26.2721H51.1876V30.1645H45.3787V33.9687H51.1282V37.8017H45.3787V41.6347H51.1282V45.4677H45.3787V49.3007H51.1282V53.1337H45.3787V58.8832H62.9376C63.8211 58.8832 64.5437 58.1339 64.5437 57.2159V22.2206C64.5437 21.3026 63.8211 20.5533 62.9376 20.5533ZM60.7107 53.1337H53.0447V49.3007H60.7107V53.1337ZM60.7107 45.4677H53.0447V41.6347H60.7107V45.4677ZM60.7107 37.8017H53.0447V33.9687H60.7107V37.8017ZM60.7107 30.1358H53.0447V26.3028H60.7107V30.1358Z" fill="#030104"/>
<path d="M62.9376 20.5533H45.3787V26.2721H51.1876V30.1645H45.3787V33.9687H51.1282V37.8017H45.3787V41.6347H51.1282V45.4677H45.3787V49.3007H51.1282V53.1337H45.3787V58.8832H62.9376C63.8211 58.8832 64.5437 58.1339 64.5437 57.2159V22.2206C64.5437 21.3026 63.8211 20.5533 62.9376 20.5533ZM60.7107 53.1337H53.0447V49.3007H60.7107V53.1337ZM60.7107 45.4677H53.0447V41.6347H60.7107V45.4677ZM60.7107 37.8017H53.0447V33.9687H60.7107V37.8017ZM60.7107 30.1358H53.0447V26.3028H60.7107V30.1358Z" fill="white"/>
<path d="M14.7147 20.3403V59.0976L43.4622 64.6325V14.8035L14.7147 20.3403ZM32.8984 49.4538L29.5541 43.1313C29.4276 42.8956 29.2973 42.4624 29.1612 41.8319H29.1095C29.0462 42.129 28.8968 42.5813 28.661 43.1869L25.3052 49.4538H20.0943L26.2807 39.7487L20.6213 30.0416H25.9415L28.7166 35.862C28.9332 36.322 29.1267 36.8682 29.2992 37.4987H29.3529C29.4621 37.1192 29.6653 36.5558 29.9623 35.8064L33.0479 30.0397H37.9196L32.0992 39.6643L38.0825 49.4519L32.8984 49.4538Z" fill="#030104"/>
<path d="M14.7147 20.3403V59.0976L43.4622 64.6325V14.8035L14.7147 20.3403ZM32.8984 49.4538L29.5541 43.1313C29.4276 42.8956 29.2973 42.4624 29.1612 41.8319H29.1095C29.0462 42.129 28.8968 42.5813 28.661 43.1869L25.3052 49.4538H20.0943L26.2807 39.7487L20.6213 30.0416H25.9415L28.7166 35.862C28.9332 36.322 29.1267 36.8682 29.2992 37.4987H29.3529C29.4621 37.1192 29.6653 36.5558 29.9623 35.8064L33.0479 30.0397H37.9196L32.0992 39.6643L38.0825 49.4519L32.8984 49.4538Z" fill="white"/>
<g clip-path="url(#clip0)">
<path d="M89.5351 155.43C89.5351 141.347 78.1205 129.93 64.0394 129.93C49.9587 129.93 38.5437 141.347 38.5437 155.43C38.5437 169.514 49.9587 180.93 64.0394 180.93C78.1205 180.93 89.5351 169.514 89.5351 155.43Z" fill="#F36986"/>
<path d="M89.5351 155.43C89.5351 141.347 78.1205 129.93 64.0394 129.93C49.9587 129.93 38.5437 141.347 38.5437 155.43C38.5437 169.514 49.9587 180.93 64.0394 180.93C78.1205 180.93 89.5351 169.514 89.5351 155.43Z" fill="url(#paint3_linear)"/>
<path opacity="0.3" d="M79.8216 135.402C83.2472 139.744 85.2924 145.226 85.2924 151.187C85.2924 165.27 73.8777 176.687 59.7966 176.687C53.8372 176.687 48.3559 174.641 44.0148 171.215C48.6836 177.132 55.9181 180.93 64.0394 180.93C78.1205 180.93 89.5351 169.514 89.5351 155.43C89.5351 147.307 85.7375 140.072 79.8216 135.402Z" fill="white"/>
<path d="M68.3121 154.694L74.7229 148.283C75.1143 147.891 75.1143 147.256 74.7229 146.864L72.6042 144.745C72.2128 144.353 71.5774 144.353 71.1856 144.745L64.7752 151.157C64.3689 151.563 63.7102 151.563 63.304 151.157L56.9193 144.771C56.513 144.365 55.8547 144.365 55.4485 144.771L53.382 146.838C52.9761 147.244 52.9761 147.903 53.382 148.309L59.7667 154.694C60.1729 155.101 60.1729 155.76 59.7667 156.166L53.3563 162.578C52.9645 162.969 52.9645 163.605 53.3563 163.997L55.4745 166.115C55.8664 166.507 56.5014 166.507 56.8932 166.115L63.304 159.704C63.7102 159.297 64.3689 159.297 64.7752 159.704L71.1595 166.09C71.5657 166.496 72.2241 166.496 72.6303 166.09L74.6968 164.023C75.103 163.616 75.103 162.958 74.6968 162.552L68.3121 156.166C67.9059 155.76 67.9059 155.101 68.3121 154.694V154.694Z" fill="white"/>
<path opacity="0.1" d="M68.3121 156.166C67.9059 155.76 67.9059 155.101 68.3121 154.694L74.7229 148.283C75.1143 147.891 75.1143 147.256 74.7229 146.864L72.6043 144.745C72.2128 144.353 71.5774 144.353 71.1856 144.745L70.5599 145.371C71.7759 146.588 71.7759 148.56 70.5599 149.776L65.6417 154.694C65.2355 155.101 65.2355 155.76 65.6417 156.166L70.5599 161.085C71.7759 162.301 71.7759 164.273 70.5599 165.49L71.1595 166.09C71.5658 166.496 72.2241 166.496 72.6303 166.09L74.6965 164.023C75.1027 163.616 75.1027 162.958 74.6965 162.552L68.3121 156.166Z" fill="#FD0F10"/>
</g>
<defs>
<linearGradient id="paint0_linear" x1="0" y1="0.00012207" x2="136.045" y2="9.37626" gradientUnits="userSpaceOnUse">
<stop stop-color="#45D53A"/>
<stop offset="1" stop-color="#24BD18"/>
</linearGradient>
<linearGradient id="paint1_linear" x1="113.544" y1="9.9303" x2="-8.65075e-06" y2="155.93" gradientUnits="userSpaceOnUse">
<stop stop-color="#E9E9E9"/>
<stop offset="1" stop-color="#AFAFAF"/>
</linearGradient>
<linearGradient id="paint2_linear" x1="76.5437" y1="51.9301" x2="115.985" y2="52.0417" gradientUnits="userSpaceOnUse">
<stop stop-color="#E9EAEE"/>
<stop offset="1" stop-color="#D5D6D9"/>
</linearGradient>
<linearGradient id="paint3_linear" x1="73.7059" y1="140.296" x2="52.6646" y2="157.104" gradientUnits="userSpaceOnUse">
<stop stop-color="#FD1010"/>
<stop offset="1" stop-color="#C80620"/>
</linearGradient>
<clipPath id="clip0">
<rect width="51" height="51" fill="white" transform="translate(38.5437 129.93)"/>
</clipPath>
</defs>
</svg>
