<svg width="17" height="13" viewBox="0 0 17 13" fill="none" xmlns="http://www.w3.org/2000/svg">
<path fill-rule="evenodd" clip-rule="evenodd" d="M2.88223 2.43237L1.22442 0.872368L2.15148 0L15.0395 12.1311L14.1124 13L11.9929 11.0021L11.6839 10.7113C10.6986 11.0842 9.62251 11.2895 8.4955 11.2895C4.85996 11.2895 1.75521 9.16158 0.497314 6.15789C1.06446 4.79974 2.01333 3.62632 3.21306 2.74368L2.88223 2.43237ZM12.131 6.15789C12.131 4.26947 10.5023 2.73684 8.4955 2.73684C8.02651 2.73684 7.57934 2.82921 7.16853 2.97974L5.59797 1.50526C6.50322 1.19737 7.47755 1.02632 8.4955 1.02632C12.1347 1.02632 15.2358 3.15421 16.4973 6.15789C15.9629 7.43053 15.0976 8.54579 13.9997 9.4079L11.8729 7.40658C12.0365 7.02 12.131 6.59921 12.131 6.15789ZM5.24533 4.65263L6.36871 5.70974C6.33599 5.85684 6.31417 6.00395 6.31417 6.1579C6.31417 7.29026 7.29213 8.21053 8.4955 8.21053C8.6591 8.21053 8.81542 8.19 8.96812 8.15921L10.0915 9.21632C9.60797 9.44211 9.06991 9.57895 8.4955 9.57895C6.48868 9.57895 4.85996 8.04632 4.85996 6.1579C4.85996 5.61737 5.00538 5.11105 5.24533 4.65263ZM10.6659 6.27079L8.37552 4.11553L8.4955 4.10526C9.69886 4.10526 10.6768 5.02553 10.6768 6.1579L10.6659 6.27079Z" fill="#959095"/>
<mask id="mask0" mask-type="alpha" maskUnits="userSpaceOnUse" x="0" y="0" width="17" height="13">
<path fill-rule="evenodd" clip-rule="evenodd" d="M2.88223 2.43237L1.22442 0.872368L2.15148 0L15.0395 12.1311L14.1124 13L11.9929 11.0021L11.6839 10.7113C10.6986 11.0842 9.62251 11.2895 8.4955 11.2895C4.85996 11.2895 1.75521 9.16158 0.497314 6.15789C1.06446 4.79974 2.01333 3.62632 3.21306 2.74368L2.88223 2.43237ZM12.131 6.15789C12.131 4.26947 10.5023 2.73684 8.4955 2.73684C8.02651 2.73684 7.57934 2.82921 7.16853 2.97974L5.59797 1.50526C6.50322 1.19737 7.47755 1.02632 8.4955 1.02632C12.1347 1.02632 15.2358 3.15421 16.4973 6.15789C15.9629 7.43053 15.0976 8.54579 13.9997 9.4079L11.8729 7.40658C12.0365 7.02 12.131 6.59921 12.131 6.15789ZM5.24533 4.65263L6.36871 5.70974C6.33599 5.85684 6.31417 6.00395 6.31417 6.1579C6.31417 7.29026 7.29213 8.21053 8.4955 8.21053C8.6591 8.21053 8.81542 8.19 8.96812 8.15921L10.0915 9.21632C9.60797 9.44211 9.06991 9.57895 8.4955 9.57895C6.48868 9.57895 4.85996 8.04632 4.85996 6.1579C4.85996 5.61737 5.00538 5.11105 5.24533 4.65263ZM10.6659 6.27079L8.37552 4.11553L8.4955 4.10526C9.69886 4.10526 10.6768 5.02553 10.6768 6.1579L10.6659 6.27079Z" fill="white"/>
</mask>
<g mask="url(#mask0)">
<rect x="-1" y="-1" width="19" height="15" fill="#959095"/>
</g>
</svg>
