<svg width="57" height="57" viewBox="0 0 57 57" fill="none" xmlns="http://www.w3.org/2000/svg">
<g clip-path="url(#clip0)">
<path opacity="0.2" d="M28.3271 10.8871C26.7917 10.8871 25.6175 9.7129 25.6175 8.17742V3.20968C25.6175 1.67419 26.7917 0.5 28.3271 0.5C29.8626 0.5 31.0368 1.67419 31.0368 3.20968V8.17742C31.0368 9.62258 29.8626 10.8871 28.3271 10.8871Z" fill="#5610FF"/>
<path opacity="0.8" d="M28.3271 56.5C26.7917 56.5 25.6175 55.3258 25.6175 53.7903V48.8226C25.6175 47.2871 26.7917 46.1129 28.3271 46.1129C29.8626 46.1129 31.0368 47.2871 31.0368 48.8226V53.7903C31.0368 55.3258 29.8626 56.5 28.3271 56.5Z" fill="#5610FF"/>
<path opacity="0.1" d="M18.1207 13.5967C17.2175 13.5967 16.3142 13.1451 15.7723 12.2418L13.3336 7.99668C12.611 6.73217 13.0626 5.01604 14.3271 4.29346C15.5917 3.57088 17.3078 4.02249 18.0304 5.28701L20.4691 9.53217C21.1917 10.7967 20.7401 12.5128 19.4755 13.2354C19.1142 13.416 18.5723 13.5967 18.1207 13.5967Z" fill="#5610FF"/>
<path opacity="0.7" d="M40.9723 53.0679C40.0691 53.0679 39.1659 52.6163 38.6239 51.713L36.1852 47.4679C35.4626 46.2034 35.9142 44.4872 37.1788 43.7647C38.4433 43.0421 40.1594 43.4937 40.882 44.7582L43.3207 49.0034C44.0433 50.2679 43.5917 51.984 42.3271 52.7066C41.8755 52.9776 41.4239 53.0679 40.9723 53.0679Z" fill="#5610FF"/>
<path opacity="0.05" d="M10.7142 21.0034C10.2626 21.0034 9.81101 20.913 9.3594 20.6421L5.11424 18.2034C3.84972 17.4808 3.39811 15.7647 4.12069 14.5001C4.84327 13.2356 6.5594 12.784 7.82392 13.5066L12.0691 15.9453C13.3336 16.6679 13.7852 18.384 13.0626 19.6485C12.5207 20.5518 11.6175 21.0034 10.7142 21.0034Z" fill="#5610FF"/>
<path opacity="0.6" d="M50.2755 43.8549C49.8239 43.8549 49.3723 43.7646 48.9207 43.4936L44.5852 41.0549C43.3207 40.3323 42.8691 38.6162 43.5917 37.3517C44.3142 36.0872 46.0304 35.6356 47.2949 36.3582L51.54 38.7969C52.8046 39.5194 53.2562 41.2356 52.5336 42.5001C52.082 43.4033 51.1788 43.8549 50.2755 43.8549Z" fill="#5610FF"/>
<path d="M8.00457 31.2098H3.03683C1.50134 31.2098 0.327148 30.0356 0.327148 28.5001C0.327148 26.9646 1.50134 25.7904 3.03683 25.7904H8.00457C9.54005 25.7904 10.7142 26.9646 10.7142 28.5001C10.7142 30.0356 9.44973 31.2098 8.00457 31.2098Z" fill="#5610FF"/>
<path opacity="0.5" d="M53.6175 31.2098H48.6497C47.1142 31.2098 45.9401 30.0356 45.9401 28.5001C45.9401 26.9646 47.1142 25.7904 48.6497 25.7904H53.6175C55.153 25.7904 56.3271 26.9646 56.3271 28.5001C56.3271 30.0356 55.153 31.2098 53.6175 31.2098Z" fill="#5610FF"/>
<path d="M6.37877 43.8549C5.47554 43.8549 4.57232 43.4033 4.03038 42.5001C3.3078 41.2356 3.75941 39.5194 5.02393 38.7969L9.26909 36.3582C10.5336 35.6356 12.2497 36.0872 12.9723 37.3517C13.6949 38.6162 13.2433 40.3323 11.9788 41.0549L7.73361 43.4936C7.37232 43.7646 6.9207 43.8549 6.37877 43.8549Z" fill="#5610FF"/>
<path opacity="0.4" d="M45.94 21.0034C45.0368 21.0034 44.1336 20.5518 43.5917 19.6485C42.8691 18.384 43.3207 16.6679 44.5852 15.9453L48.8304 13.5066C50.0949 12.784 51.811 13.2356 52.5336 14.5001C53.2562 15.7647 52.8046 17.4808 51.54 18.2034L47.2949 20.6421C46.8433 20.913 46.3917 21.0034 45.94 21.0034Z" fill="#5610FF"/>
<path opacity="0.9" d="M15.682 53.0679C15.2304 53.0679 14.7788 52.9776 14.3271 52.7066C13.0626 51.984 12.611 50.2679 13.3336 49.0034L15.7723 44.7582C16.4949 43.4937 18.211 43.0421 19.4755 43.7647C20.7401 44.4872 21.1917 46.2034 20.4691 47.4679L18.0304 51.713C17.4884 52.6163 16.5852 53.0679 15.682 53.0679Z" fill="#5610FF"/>
<path opacity="0.3" d="M38.5336 13.5967C38.082 13.5967 37.6304 13.5064 37.1788 13.2354C35.9142 12.5128 35.4626 10.7967 36.1852 9.53217L38.6239 5.28701C39.3465 4.02249 41.0626 3.57088 42.3271 4.29346C43.5917 5.01604 44.0433 6.73217 43.3207 7.99668L40.882 12.2418C40.3401 13.0547 39.4368 13.5967 38.5336 13.5967Z" fill="#5610FF"/>
</g>
<defs>
<clipPath id="clip0">
<rect width="56" height="56" fill="white" transform="translate(0.327148 0.5)"/>
</clipPath>
</defs>
</svg>
