<svg width="78" height="57" viewBox="0 0 78 57" fill="none" xmlns="http://www.w3.org/2000/svg">
<path d="M65.986 0.0922852L30.6659 34.9596C29.7139 35.8994 28.1703 35.8994 27.2183 34.9596L12.014 19.9502L0 31.8101L22.9349 54.4513C24.5281 56.0241 26.6889 56.9076 28.942 56.9076C31.1948 56.9076 33.3558 56.0239 34.9489 54.4513L78 11.9521L65.986 0.0922852Z" fill="#A5EB78"/>
<path d="M65.986 0.0922852L30.6659 34.9596C29.7139 35.8994 28.1703 35.8994 27.2183 34.9596L12.014 19.9502L0 31.8101L22.9349 54.4513C24.5281 56.0241 26.6889 56.9076 28.942 56.9076C31.1948 56.9076 33.3558 56.0239 34.9489 54.4513L78 11.9521L65.986 0.0922852Z" fill="url(#paint0_linear)"/>
<defs>
<linearGradient id="paint0_linear" x1="0" y1="0.0922852" x2="81.5295" y2="9.41048" gradientUnits="userSpaceOnUse">
<stop stop-color="#45D53A"/>
<stop offset="1" stop-color="#24BD18"/>
</linearGradient>
</defs>
</svg>
