<svg width="17" height="11" viewBox="0 0 17 11" fill="none" xmlns="http://www.w3.org/2000/svg">
<path fill-rule="evenodd" clip-rule="evenodd" d="M8.50269 0C4.86632 0 1.76087 2.28067 0.502686 5.5C1.76087 8.71933 4.86632 11 8.50269 11C12.1427 11 15.2445 8.71933 16.5027 5.5C15.2445 2.28067 12.1427 0 8.50269 0ZM8.50269 9.16667C6.49541 9.16667 4.86632 7.524 4.86632 5.5C4.86632 3.476 6.49541 1.83333 8.50269 1.83333C10.51 1.83333 12.139 3.476 12.139 5.5C12.139 7.524 10.51 9.16667 8.50269 9.16667ZM8.50269 3.3C7.29905 3.3 6.32087 4.28633 6.32087 5.5C6.32087 6.71367 7.29905 7.7 8.50269 7.7C9.70632 7.7 10.6845 6.71367 10.6845 5.5C10.6845 4.28633 9.70632 3.3 8.50269 3.3Z" fill="black"/>
</svg>
