<svg width="15" height="16" viewBox="0 0 15 16" fill="none" xmlns="http://www.w3.org/2000/svg">
<path d="M0.970184 7.13031C1.01892 7.25492 1.13264 7.33624 1.25884 7.33624H4.68206L4.68206 15.6668C4.68206 15.8507 4.82202 16 4.99446 16L9.9928 16C10.1652 16 10.3052 15.8507 10.3052 15.6668V7.33621H13.7416C13.8678 7.33621 13.9815 7.25489 14.0302 7.13093C14.0783 7.00632 14.0521 6.86302 13.9627 6.76771L7.73044 0.0979366C7.67171 0.0353012 7.59235 -3.05176e-05 7.50926 -3.05176e-05C7.42617 -3.05176e-05 7.3468 0.0353012 7.28808 0.0972805L1.03766 6.76705C0.948306 6.8624 0.921451 7.00566 0.970184 7.13031Z" fill="white"/>
</svg>
