<svg width="81" height="80" viewBox="0 0 81 80" fill="none" xmlns="http://www.w3.org/2000/svg">
<g clip-path="url(#clip0)">
<path d="M50.8128 57.5484C50.8128 57.0323 50.8128 56.129 50.8128 56.129H30.6838C30.6838 56.129 30.6838 56.9032 30.6838 57.5484C30.6838 63.871 29.1354 69.1613 26.5547 72.7742V74.1935H54.9418V72.7742C52.3612 69.1613 50.8128 63.7419 50.8128 57.5484Z" fill="url(#paint0_linear)"/>
<path d="M80.7483 52.6452C80.7483 56.3871 77.5225 60 73.7805 60H7.71603C3.9741 60 0.748291 56.5161 0.748291 52.6452V8.12903C0.748291 4.3871 3.9741 1.93549 7.71603 1.93549H73.7805C77.5225 1.93549 80.7483 4.3871 80.7483 8.12903V52.6452Z" fill="url(#paint1_linear)"/>
<path d="M73.7805 1.93549H7.71603C3.9741 1.93549 0.748291 4.3871 0.748291 8.12903V47.0968H80.7483V8.12903C80.7483 4.3871 77.5225 1.93549 73.7805 1.93549Z" fill="url(#paint2_linear)"/>
<path d="M61.3934 75.6129C61.3934 77.0323 60.2322 78.0645 58.9418 78.0645H21.2644C19.8451 78.0645 18.8128 76.9032 18.8128 75.6129V75.3548C18.8128 73.9355 19.9741 72.9032 21.2644 72.9032H58.9418C60.3612 72.9032 61.3934 74.0645 61.3934 75.3548V75.6129Z" fill="url(#paint3_linear)"/>
<rect x="21.9996" y="14" width="39.3938" height="26" rx="8" fill="white"/>
<g opacity="0.1">
<path d="M70.3928 50.3145L59.4059 39.3276H63.2971C64.3272 39.3276 65.3572 38.8698 66.0439 38.1831C66.7305 37.4965 67.1883 36.4664 67.1883 35.4364C67.1883 33.2619 65.4716 31.5452 63.2971 31.5452H50.0213C47.9613 31.5452 46.1301 33.3764 46.1301 35.4364V48.7122C46.1301 50.8867 47.8468 52.6034 50.0213 52.6034C52.1958 52.6034 53.9125 50.8867 53.9125 48.7122V44.9355L64.8994 55.9224C66.3872 57.4102 68.905 57.4102 70.3928 55.9224C71.9951 54.3201 71.9951 51.9167 70.3928 50.3145Z" fill="#494946"/>
<path d="M70.3928 50.3145L59.4059 39.3276H63.2971C64.3272 39.3276 65.3572 38.8698 66.0439 38.1831C66.7305 37.4965 67.1883 36.4664 67.1883 35.4364C67.1883 33.2619 65.4716 31.5452 63.2971 31.5452H50.0213C47.9613 31.5452 46.1301 33.3764 46.1301 35.4364V48.7122C46.1301 50.8867 47.8468 52.6034 50.0213 52.6034C52.1958 52.6034 53.9125 50.8867 53.9125 48.7122V44.9355L64.8994 55.9224C66.3872 57.4102 68.905 57.4102 70.3928 55.9224C71.9951 54.3201 71.9951 51.9167 70.3928 50.3145Z" fill="url(#paint4_linear)"/>
</g>
<path d="M63.2971 29.4852H50.0213C47.9613 29.4852 46.1301 31.3164 46.1301 33.3764V46.6522C46.1301 48.8267 47.8468 50.5434 50.0213 50.5434C52.1958 50.5434 53.9125 48.8267 53.9125 46.6522V42.7611L64.8994 53.7479C66.3872 55.2357 68.905 55.2357 70.3928 53.7479C71.8806 52.2601 71.8806 49.7423 70.3928 48.2545L59.4059 37.2676H63.2971C64.3272 37.2676 65.3572 36.8098 66.0439 36.1231C66.7305 35.4365 67.1883 34.4064 67.1883 33.3764C67.1883 31.2019 65.4716 29.4852 63.2971 29.4852Z" fill="#515150"/>
<path d="M63.2971 29.4852H50.0213C47.9613 29.4852 46.1301 31.3164 46.1301 33.3764V46.6522C46.1301 48.8267 47.8468 50.5434 50.0213 50.5434C52.1958 50.5434 53.9125 48.8267 53.9125 46.6522V42.7611L64.8994 53.7479C66.3872 55.2357 68.905 55.2357 70.3928 53.7479C71.8806 52.2601 71.8806 49.7423 70.3928 48.2545L59.4059 37.2676H63.2971C64.3272 37.2676 65.3572 36.8098 66.0439 36.1231C66.7305 35.4365 67.1883 34.4064 67.1883 33.3764C67.1883 31.2019 65.4716 29.4852 63.2971 29.4852Z" fill="url(#paint5_linear)"/>
<path d="M53.9125 42.761L64.8994 53.7479C66.3872 55.2357 68.905 55.2357 70.3928 53.7479C71.8806 52.2601 71.8806 49.7423 70.3928 48.2545L59.4059 37.2676H63.2971C64.3271 37.2676 65.3572 36.8098 66.0438 36.1231C66.7305 35.4365 67.1883 34.4064 67.1883 33.3764C67.1883 31.2019 65.4716 29.4852 63.2971 29.4852H50.0213" fill="#494946"/>
<path d="M53.9125 42.761L64.8994 53.7479C66.3872 55.2357 68.905 55.2357 70.3928 53.7479C71.8806 52.2601 71.8806 49.7423 70.3928 48.2545L59.4059 37.2676H63.2971C64.3271 37.2676 65.3572 36.8098 66.0438 36.1231C66.7305 35.4365 67.1883 34.4064 67.1883 33.3764C67.1883 31.2019 65.4716 29.4852 63.2971 29.4852H50.0213" fill="url(#paint6_linear)"/>
</g>
<defs>
<linearGradient id="paint0_linear" x1="26.5547" y1="69.009" x2="54.9353" y2="69.8025" gradientUnits="userSpaceOnUse">
<stop stop-color="#C3CAE4"/>
<stop offset="1" stop-color="#A7B3DD"/>
</linearGradient>
<linearGradient id="paint1_linear" x1="0.74829" y1="43.3355" x2="80.7443" y2="45.2964" gradientUnits="userSpaceOnUse">
<stop stop-color="#DFE3F3"/>
<stop offset="1" stop-color="#C1CAE8"/>
</linearGradient>
<linearGradient id="paint2_linear" x1="80.7483" y1="47.0968" x2="46.5539" y2="22.7967" gradientUnits="userSpaceOnUse">
<stop stop-color="#FF460F"/>
<stop offset="1" stop-color="#FFC400"/>
</linearGradient>
<linearGradient id="paint3_linear" x1="18.8128" y1="76.5832" x2="60.5184" y2="82.7048" gradientUnits="userSpaceOnUse">
<stop stop-color="#DFE3F3"/>
<stop offset="1" stop-color="#C1CAE8"/>
</linearGradient>
<linearGradient id="paint4_linear" x1="69.1053" y1="52.5095" x2="55.835" y2="35.7047" gradientUnits="userSpaceOnUse">
<stop/>
<stop offset="0.9811" stop-color="#2F2F2F"/>
</linearGradient>
<linearGradient id="paint5_linear" x1="69.0278" y1="50.3554" x2="55.8205" y2="33.6116" gradientUnits="userSpaceOnUse">
<stop/>
<stop offset="0.9811" stop-color="#2F2F2F"/>
</linearGradient>
<linearGradient id="paint6_linear" x1="69.4082" y1="50.3554" x2="55.8614" y2="35.8145" gradientUnits="userSpaceOnUse">
<stop/>
<stop offset="0.9811" stop-color="#2F2F2F"/>
</linearGradient>
<clipPath id="clip0">
<rect width="80" height="80" fill="white" transform="translate(0.748291)"/>
</clipPath>
</defs>
</svg>
