<svg width="80" height="80" viewBox="0 0 80 80" fill="none" xmlns="http://www.w3.org/2000/svg">
<path d="M76.1333 38.6667H3.86667C1.73333 38.6667 0 36.9333 0 34.8V3.86667C0 1.73333 1.73333 0 3.86667 0H76C78.2667 0 80 1.73333 80 3.86667V34.6667C80 36.9333 78.2667 38.6667 76.1333 38.6667ZM3.86667 2.66667C3.2 2.66667 2.66667 3.2 2.66667 3.86667V34.6667C2.66667 35.4667 3.2 36 3.86667 36H76C76.6667 36 77.2 35.4667 77.2 34.8V3.86667C77.3333 3.2 76.8 2.66667 76.1333 2.66667H3.86667Z" fill="url(#paint0_linear)"/>
<path d="M77.3333 1.33334H2.66663V14.6667H77.3333V1.33334Z" fill="url(#paint1_linear)"/>
<g opacity="0.4">
<path opacity="0.4" d="M6.80002 10.1333C7.83095 10.1333 8.66668 9.29758 8.66668 8.26664C8.66668 7.23571 7.83095 6.39998 6.80002 6.39998C5.76908 6.39998 4.93335 7.23571 4.93335 8.26664C4.93335 9.29758 5.76908 10.1333 6.80002 10.1333Z" fill="#B1BCBC"/>
</g>
<path d="M6.80002 9.46665C7.83095 9.46665 8.66668 8.63091 8.66668 7.59998C8.66668 6.56905 7.83095 5.73331 6.80002 5.73331C5.76908 5.73331 4.93335 6.56905 4.93335 7.59998C4.93335 8.63091 5.76908 9.46665 6.80002 9.46665Z" fill="white"/>
<path d="M5.46667 6.26669C6.13334 5.60002 7.33334 5.60002 8.13334 6.26669C8.80001 6.93335 8.80001 8.13335 8.13334 8.93335" fill="#E8EFEE"/>
<g opacity="0.4">
<path opacity="0.4" d="M14.1333 10.1333C15.1642 10.1333 15.9999 9.29758 15.9999 8.26664C15.9999 7.23571 15.1642 6.39998 14.1333 6.39998C13.1023 6.39998 12.2666 7.23571 12.2666 8.26664C12.2666 9.29758 13.1023 10.1333 14.1333 10.1333Z" fill="#B1BCBC"/>
</g>
<path d="M14.1333 9.46665C15.1642 9.46665 15.9999 8.63091 15.9999 7.59998C15.9999 6.56905 15.1642 5.73331 14.1333 5.73331C13.1023 5.73331 12.2666 6.56905 12.2666 7.59998C12.2666 8.63091 13.1023 9.46665 14.1333 9.46665Z" fill="white"/>
<path d="M12.8 6.26669C13.4667 5.60002 14.6667 5.60002 15.4667 6.26669C16.1334 6.93335 16.1334 8.13335 15.4667 8.93335" fill="#E8EFEE"/>
<g opacity="0.4">
<path opacity="0.4" d="M21.4666 10.1333C22.4976 10.1333 23.3333 9.29758 23.3333 8.26664C23.3333 7.23571 22.4976 6.39998 21.4666 6.39998C20.4357 6.39998 19.6 7.23571 19.6 8.26664C19.6 9.29758 20.4357 10.1333 21.4666 10.1333Z" fill="#B1BCBC"/>
</g>
<path d="M21.4666 9.46665C22.4976 9.46665 23.3333 8.63091 23.3333 7.59998C23.3333 6.56905 22.4976 5.73331 21.4666 5.73331C20.4357 5.73331 19.6 6.56905 19.6 7.59998C19.6 8.63091 20.4357 9.46665 21.4666 9.46665Z" fill="white"/>
<path d="M20.1333 6.26669C20.8 5.60002 22 5.60002 22.8 6.26669C23.4666 6.93335 23.4666 8.13335 22.8 8.93335" fill="#E8EFEE"/>
<path d="M76.1333 80H3.86667C1.73333 80 0 78.2667 0 76.1333V45.2C0 43.0667 1.73333 41.3333 3.86667 41.3333H76C78.1333 41.3333 79.8667 43.0667 79.8667 45.2V76C80 78.2667 78.2667 80 76.1333 80ZM3.86667 44C3.2 44 2.66667 44.5333 2.66667 45.2V76C2.66667 76.8 3.2 77.3333 3.86667 77.3333H76C76.6667 77.3333 77.2 76.8 77.2 76.1333V45.2C77.2 44.5333 76.6667 44 76 44H3.86667Z" fill="url(#paint2_linear)"/>
<path d="M77.3333 42.6667H2.66663V56H77.3333V42.6667Z" fill="url(#paint3_linear)"/>
<g opacity="0.4">
<path opacity="0.4" d="M6.80002 51.8667C7.83095 51.8667 8.66668 51.0309 8.66668 50C8.66668 48.9691 7.83095 48.1333 6.80002 48.1333C5.76908 48.1333 4.93335 48.9691 4.93335 50C4.93335 51.0309 5.76908 51.8667 6.80002 51.8667Z" fill="#B1BCBC"/>
</g>
<path d="M6.80002 51.0667C7.83095 51.0667 8.66668 50.2309 8.66668 49.2C8.66668 48.1691 7.83095 47.3333 6.80002 47.3333C5.76908 47.3333 4.93335 48.1691 4.93335 49.2C4.93335 50.2309 5.76908 51.0667 6.80002 51.0667Z" fill="white"/>
<path d="M5.46667 47.8667C6.13334 47.2 7.33334 47.2 8.13334 47.8667C8.80001 48.5333 8.80001 49.7333 8.13334 50.5333" fill="#E8EFEE"/>
<g opacity="0.4">
<path opacity="0.4" d="M14.1333 51.8667C15.1642 51.8667 15.9999 51.0309 15.9999 50C15.9999 48.9691 15.1642 48.1333 14.1333 48.1333C13.1023 48.1333 12.2666 48.9691 12.2666 50C12.2666 51.0309 13.1023 51.8667 14.1333 51.8667Z" fill="#B1BCBC"/>
</g>
<path d="M14.1333 51.0667C15.1642 51.0667 15.9999 50.2309 15.9999 49.2C15.9999 48.1691 15.1642 47.3333 14.1333 47.3333C13.1023 47.3333 12.2666 48.1691 12.2666 49.2C12.2666 50.2309 13.1023 51.0667 14.1333 51.0667Z" fill="white"/>
<path d="M12.8 47.8667C13.4667 47.2 14.6667 47.2 15.4667 47.8667C16.1334 48.5333 16.1334 49.7333 15.4667 50.5333" fill="#E8EFEE"/>
<g opacity="0.4">
<path opacity="0.4" d="M21.4666 51.8667C22.4976 51.8667 23.3333 51.0309 23.3333 50C23.3333 48.9691 22.4976 48.1333 21.4666 48.1333C20.4357 48.1333 19.6 48.9691 19.6 50C19.6 51.0309 20.4357 51.8667 21.4666 51.8667Z" fill="#B1BCBC"/>
</g>
<path d="M21.4666 51.0667C22.4976 51.0667 23.3333 50.2309 23.3333 49.2C23.3333 48.1691 22.4976 47.3333 21.4666 47.3333C20.4357 47.3333 19.6 48.1691 19.6 49.2C19.6 50.2309 20.4357 51.0667 21.4666 51.0667Z" fill="white"/>
<path d="M20.1333 47.8667C20.8 47.2 22 47.2 22.8 47.8667C23.4666 48.5333 23.4666 49.7333 22.8 50.5333" fill="#E8EFEE"/>
<defs>
<linearGradient id="paint0_linear" x1="80" y1="38.6667" x2="49.5288" y2="13.3753" gradientUnits="userSpaceOnUse">
<stop stop-color="#FF460F"/>
<stop offset="1" stop-color="#FFC400"/>
</linearGradient>
<linearGradient id="paint1_linear" x1="77.3333" y1="14.6667" x2="69.3902" y2="-3.17804" gradientUnits="userSpaceOnUse">
<stop stop-color="#FF460F"/>
<stop offset="1" stop-color="#FFC400"/>
</linearGradient>
<linearGradient id="paint2_linear" x1="0" y1="41.3333" x2="82.1492" y2="55.4606" gradientUnits="userSpaceOnUse">
<stop stop-color="#45D53A"/>
<stop offset="1" stop-color="#24BD18"/>
</linearGradient>
<linearGradient id="paint3_linear" x1="2.66663" y1="42.6667" x2="67.6151" y2="72.9459" gradientUnits="userSpaceOnUse">
<stop stop-color="#45D53A"/>
<stop offset="1" stop-color="#24BD18"/>
</linearGradient>
</defs>
</svg>
