<svg width="175" height="231" viewBox="0 0 175 231" fill="none" xmlns="http://www.w3.org/2000/svg">
<path d="M136.923 45.0249C135.437 45.0249 133.973 45.1136 132.532 45.281C132.45 20.5353 112.366 0.5 87.6013 0.5C70.0533 0.5 54.8567 10.5606 47.4597 25.2273C21.6808 25.7898 0.956177 46.8614 0.956177 72.7747C0.956177 99.0418 22.2502 120.336 48.5172 120.336C68.6858 120.336 118.177 120.336 136.923 120.336C157.719 120.336 174.578 103.477 174.578 82.6803C174.578 61.8838 157.719 45.0249 136.923 45.0249Z" fill="white"/>
<path d="M136.923 45.0249C135.437 45.0249 133.973 45.1136 132.532 45.281C132.45 20.5353 112.366 0.5 87.6013 0.5C77.6005 0.5 68.3662 3.77149 60.9014 9.29705C62.0979 9.20149 63.306 9.14769 64.527 9.14769C89.292 9.14769 109.376 29.183 109.458 53.9287C110.899 53.7613 112.363 53.6726 113.848 53.6726C134.645 53.6726 151.504 70.5315 151.504 91.328C151.504 102.992 146.2 113.417 137.873 120.324C158.23 119.819 174.578 103.159 174.578 82.6803C174.578 61.8838 157.719 45.0249 136.923 45.0249Z" fill="url(#paint0_linear)"/>
<path d="M125.058 97.0636H48.7136C45.8789 97.0636 43.5811 94.7658 43.5811 91.9311V74.3097C43.5811 71.4751 45.8789 69.1772 48.7136 69.1772H125.058C127.893 69.1772 130.19 71.4751 130.19 74.3097V91.9311C130.19 94.7658 127.893 97.0636 125.058 97.0636Z" fill="#D8DCEA"/>
<path d="M125.058 69.1763H107.116V85.2262C107.116 88.0608 104.818 90.3586 101.984 90.3586H43.5811V91.9306C43.5811 94.7652 45.8789 97.063 48.7136 97.063H125.058C127.893 97.063 130.19 94.7652 130.19 91.9306V74.3092C130.19 71.4745 127.893 69.1763 125.058 69.1763Z" fill="url(#paint1_linear)"/>
<path d="M125.058 124.95H48.7136C45.8789 124.95 43.5811 122.652 43.5811 119.817V102.196C43.5811 99.3612 45.8789 97.0634 48.7136 97.0634H125.058C127.893 97.0634 130.19 99.3612 130.19 102.196V119.817C130.19 122.652 127.893 124.95 125.058 124.95Z" fill="#D8DCEA"/>
<path d="M125.058 97.0631H107.116V113.113C107.116 115.948 104.818 118.245 101.984 118.245H43.5811V119.817C43.5811 122.652 45.8789 124.95 48.7136 124.95H125.058C127.893 124.95 130.19 122.652 130.19 119.817V102.196C130.19 99.3613 127.893 97.0631 125.058 97.0631Z" fill="url(#paint2_linear)"/>
<path d="M125.058 152.837H48.7136C45.8789 152.837 43.5811 150.539 43.5811 147.704V130.083C43.5811 127.248 45.8789 124.951 48.7136 124.951H125.058C127.893 124.951 130.19 127.248 130.19 130.083V147.704C130.19 150.539 127.893 152.837 125.058 152.837Z" fill="#D8DCEA"/>
<path d="M125.058 124.95H107.116V141C107.116 143.834 104.818 146.132 101.984 146.132H43.5811V147.704C43.5811 150.539 45.8789 152.836 48.7136 152.836H125.058C127.893 152.836 130.19 150.539 130.19 147.704V130.083C130.19 127.248 127.893 124.95 125.058 124.95Z" fill="url(#paint3_linear)"/>
<path d="M57.2962 86.0408C59.37 86.0408 61.0511 84.3597 61.0511 82.2859C61.0511 80.2121 59.37 78.531 57.2962 78.531C55.2224 78.531 53.5413 80.2121 53.5413 82.2859C53.5413 84.3597 55.2224 86.0408 57.2962 86.0408Z" fill="white"/>
<path d="M72.1484 86.0409C74.2222 86.0409 75.9033 84.3598 75.9033 82.286C75.9033 80.2123 74.2222 78.5311 72.1484 78.5311C70.0746 78.5311 68.3935 80.2123 68.3935 82.286C68.3935 84.3598 70.0746 86.0409 72.1484 86.0409Z" fill="white"/>
<path d="M57.2962 114.762C59.37 114.762 61.0511 113.081 61.0511 111.007C61.0511 108.933 59.37 107.252 57.2962 107.252C55.2224 107.252 53.5413 108.933 53.5413 111.007C53.5413 113.081 55.2224 114.762 57.2962 114.762Z" fill="white"/>
<path d="M72.1484 114.761C74.2222 114.761 75.9033 113.08 75.9033 111.006C75.9033 108.933 74.2222 107.252 72.1484 107.252C70.0746 107.252 68.3935 108.933 68.3935 111.006C68.3935 113.08 70.0746 114.761 72.1484 114.761Z" fill="white"/>
<path d="M57.2962 142.648C59.37 142.648 61.0511 140.967 61.0511 138.893C61.0511 136.82 59.37 135.138 57.2962 135.138C55.2224 135.138 53.5413 136.82 53.5413 138.893C53.5413 140.967 55.2224 142.648 57.2962 142.648Z" fill="white"/>
<path d="M72.1484 142.648C74.2222 142.648 75.9033 140.967 75.9033 138.893C75.9033 136.82 74.2222 135.138 72.1484 135.138C70.0746 135.138 68.3935 136.82 68.3935 138.893C68.3935 140.967 70.0746 142.648 72.1484 142.648Z" fill="white"/>
<path d="M86.8858 181.239C85.1725 181.239 83.7837 179.85 83.7837 178.137V148.907C83.7837 147.194 85.1725 145.805 86.8858 145.805C88.599 145.805 89.9878 147.194 89.9878 148.907V178.137C89.9878 179.85 88.599 181.239 86.8858 181.239Z" fill="url(#paint4_linear)"/>
<g clip-path="url(#clip0)">
<path d="M107.754 189.943H91.6125V195.2H96.9526V198.779H91.6125V202.276H96.898V205.799H91.6125V209.323H96.898V212.847H91.6125V216.37H96.898V219.894H91.6125V225.179H107.754C108.566 225.179 109.231 224.49 109.231 223.646V191.476C109.231 190.632 108.566 189.943 107.754 189.943ZM105.707 219.894H98.6598V216.37H105.707V219.894ZM105.707 212.847H98.6598V209.323H105.707V212.847ZM105.707 205.799H98.6598V202.276H105.707V205.799ZM105.707 198.752H98.6598V195.229H105.707V198.752Z" fill="url(#paint5_linear)"/>
<path d="M63.4237 189.748V225.376L89.8507 230.465V184.658L63.4237 189.748ZM80.1397 216.511L77.0653 210.699C76.9491 210.482 76.8293 210.084 76.7042 209.504H76.6566C76.5985 209.777 76.461 210.193 76.2443 210.75L73.1594 216.511H68.3691L74.0562 207.589L68.8536 198.666H73.7443L76.2954 204.016C76.4945 204.439 76.6725 204.941 76.831 205.521H76.8804C76.9808 205.172 77.1675 204.654 77.4406 203.965L80.2771 198.664H84.7556L79.405 207.512L84.9054 216.509L80.1397 216.511Z" fill="url(#paint6_linear)"/>
</g>
<defs>
<linearGradient id="paint0_linear" x1="117.74" y1="0.5" x2="117.74" y2="120.324" gradientUnits="userSpaceOnUse">
<stop stop-color="#E9EAEE"/>
<stop offset="1" stop-color="#D5D6D9"/>
</linearGradient>
<linearGradient id="paint1_linear" x1="86.8858" y1="69.1763" x2="86.8858" y2="97.063" gradientUnits="userSpaceOnUse">
<stop stop-color="#E9E9E9"/>
<stop offset="1" stop-color="#AFAFAF"/>
</linearGradient>
<linearGradient id="paint2_linear" x1="86.8858" y1="97.0631" x2="86.8858" y2="124.95" gradientUnits="userSpaceOnUse">
<stop stop-color="#E9E9E9"/>
<stop offset="1" stop-color="#AFAFAF"/>
</linearGradient>
<linearGradient id="paint3_linear" x1="86.8858" y1="124.95" x2="86.8858" y2="152.836" gradientUnits="userSpaceOnUse">
<stop stop-color="#E9E9E9"/>
<stop offset="1" stop-color="#AFAFAF"/>
</linearGradient>
<linearGradient id="paint4_linear" x1="87.775" y1="154.16" x2="82.3373" y2="155.428" gradientUnits="userSpaceOnUse">
<stop stop-color="#9210FD"/>
<stop offset="1" stop-color="#6728FF"/>
</linearGradient>
<linearGradient id="paint5_linear" x1="91.6125" y1="189.943" x2="110.236" y2="190.718" gradientUnits="userSpaceOnUse">
<stop stop-color="#45D53A"/>
<stop offset="1" stop-color="#24BD18"/>
</linearGradient>
<linearGradient id="paint6_linear" x1="63.4237" y1="184.658" x2="91.343" y2="185.999" gradientUnits="userSpaceOnUse">
<stop stop-color="#45D53A"/>
<stop offset="1" stop-color="#24BD18"/>
</linearGradient>
<clipPath id="clip0">
<rect width="45.8069" height="45.8069" fill="white" transform="translate(63.4237 184.658)"/>
</clipPath>
</defs>
</svg>
