<svg width="126" height="45" viewBox="0 0 126 45" fill="none" xmlns="http://www.w3.org/2000/svg">
<g clip-path="url(#clip0)">
<path d="M55.2243 28.3499C58.3639 28.3499 60.487 26.3024 60.487 23.7149C60.487 21.4424 58.8382 20.0249 56.2181 19.3724L54.2531 18.8774C52.2881 18.3824 52.13 17.3474 52.13 16.8524C52.13 15.4349 53.44 14.5574 54.9081 14.5574C56.5118 14.5574 57.6637 15.5474 57.6637 17.0099H59.9675C59.9675 14.1974 57.7766 12.4424 54.9759 12.4424C52.2203 12.4424 49.8035 14.1749 49.8035 16.8974C49.8035 18.1799 50.3456 20.1374 53.6659 20.9699L55.6535 21.4649C56.9183 21.8024 58.1606 22.4549 58.1606 23.8274C58.1606 25.1099 57.0764 26.2349 55.2243 26.2349C53.2819 26.2349 52.0396 24.9524 51.9944 23.6249H49.6906C49.6906 26.1224 51.9041 28.3499 55.2243 28.3499Z" fill="white"/>
<path d="M69.008 17.3925C67.5851 17.3925 66.0492 18 65.349 19.1925V17.6175H63.1355V33.2324H65.349V26.5725C66.0492 27.765 67.5173 28.3499 69.008 28.3499C71.8765 28.3499 74.2481 26.235 74.2481 22.8825C74.2481 19.53 71.8539 17.3925 69.008 17.3925ZM68.737 26.2575C67.1107 26.2575 65.3716 25.02 65.3716 22.905C65.3716 20.79 66.9752 19.4625 68.737 19.4625C70.5665 19.4625 72.012 20.925 72.012 22.905C72.012 24.885 70.5665 26.2575 68.737 26.2575Z" fill="white"/>
<path d="M86.9282 22.815C86.9282 19.5075 84.647 17.3925 81.643 17.3925C78.6389 17.3925 76.1996 19.5075 76.1996 22.8375C76.1996 26.1675 78.5938 28.35 81.643 28.35C83.6532 28.35 85.5504 27.45 86.4765 25.695L84.7147 24.8175C84.1275 25.785 82.9756 26.3025 81.7559 26.3025C80.0393 26.3025 78.7745 25.47 78.4808 23.76H86.883C86.9056 23.4225 86.9282 23.1075 86.9282 22.815ZM78.5034 21.9825C78.8196 20.25 80.0393 19.44 81.6655 19.44C83.2918 19.44 84.5114 20.34 84.7147 21.9825H78.5034Z" fill="white"/>
<path d="M94.5083 28.3499C97.6478 28.3499 99.7709 26.3024 99.7709 23.7149C99.7709 21.4424 98.1221 20.0249 95.5021 19.3724L93.537 18.8774C91.572 18.3824 91.4139 17.3474 91.4139 16.8524C91.4139 15.4349 92.7239 14.5574 94.192 14.5574C95.7957 14.5574 96.9476 15.5474 96.9476 17.0099H99.2514C99.2514 14.1974 97.0605 12.4424 94.2598 12.4424C91.5042 12.4424 89.0875 14.1749 89.0875 16.8974C89.0875 18.1799 89.6296 20.1374 92.9498 20.9699L94.9374 21.4649C96.2023 21.8024 97.4445 22.4549 97.4445 23.8274C97.4445 25.1099 96.3604 26.2349 94.5083 26.2349C92.5658 26.2349 91.3236 24.9524 91.2784 23.6249H88.9745C88.9745 26.1224 91.188 28.3499 94.5083 28.3499Z" fill="white"/>
<path d="M108.066 17.3924C106.937 17.3924 105.243 17.9324 104.633 19.2149V11.9249H102.419V28.1249H104.633V22.5224C104.633 20.3399 106.304 19.5749 107.682 19.5749C109.037 19.5749 110.076 20.5649 110.076 22.2749V28.1249H112.29V22.1174C112.312 19.1249 110.731 17.3924 108.066 17.3924Z" fill="white"/>
<path d="M122.977 17.6174V23.2424C122.977 25.4024 121.305 26.1674 119.928 26.1674C118.572 26.1674 117.533 25.1774 117.533 23.4674V17.6174H115.32V23.6249C115.297 26.6174 116.901 28.3499 119.566 28.3499C120.673 28.3499 122.367 27.8099 122.977 26.5274V28.1249H125.19V17.6174H122.977Z" fill="white"/>
<path d="M11.2934 22.5C5.05631 22.5 0.00012207 17.4632 0.00012207 11.25C0.00012207 5.0368 5.05631 0 11.2934 0H33.88L18.8223 22.5H11.2934Z" fill="url(#paint0_linear)"/>
<path d="M25.9748 22.5C32.2119 22.5 37.2681 27.5368 37.2681 33.75C37.2681 39.9632 32.2119 45 25.9748 45H3.38818L18.4459 22.5H25.9748Z" fill="url(#paint1_linear)"/>
</g>
<defs>
<linearGradient id="paint0_linear" x1="14.6814" y1="22.5" x2="14.6814" y2="0" gradientUnits="userSpaceOnUse">
<stop stop-color="white" stop-opacity="0.1"/>
<stop offset="1" stop-color="white" stop-opacity="0.8"/>
</linearGradient>
<linearGradient id="paint1_linear" x1="22.5868" y1="45" x2="22.5868" y2="22.5" gradientUnits="userSpaceOnUse">
<stop stop-color="white" stop-opacity="0.1"/>
<stop offset="1" stop-color="white" stop-opacity="0.8"/>
</linearGradient>
<clipPath id="clip0">
<rect width="125.581" height="45" fill="white" transform="translate(0.00012207)"/>
</clipPath>
</defs>
</svg>
