<svg width="40" height="40" viewBox="0 0 40 40" fill="none" xmlns="http://www.w3.org/2000/svg">
<path opacity="0.2" fill-rule="evenodd" clip-rule="evenodd" d="M20 40C31.0457 40 40 31.0457 40 20C40 8.9543 31.0457 0 20 0C8.9543 0 0 8.9543 0 20C0 31.0457 8.9543 40 20 40Z" fill="#5610FF"/>
<path d="M19.979 18.4286C21.715 18.4286 23.1154 16.9875 23.1154 15.2143C23.1154 13.4411 21.715 12 19.979 12C18.243 12 16.8321 13.4411 16.8321 15.2143C16.8321 16.9875 18.243 18.4286 19.979 18.4286Z" fill="#5610FF"/>
<path d="M19.979 20.5714C17.5297 20.5714 12.6364 21.825 12.6364 24.3214V27H27.3217V24.3214C27.3217 21.825 22.4283 20.5714 19.979 20.5714Z" fill="#5610FF"/>
</svg>
