<svg width="89" height="64" viewBox="0 0 89 64" fill="none" xmlns="http://www.w3.org/2000/svg">
<path d="M0.809402 62.5561H88.1908V1.17463H0.809402V62.5561Z" stroke="white"/>
<path d="M15.4442 46.1462C15.292 45.5952 14.99 44.5275 13.402 44.5275C12.4791 44.5275 11.0842 45.1817 11.0842 47.7563C11.0842 49.3911 11.7815 50.906 13.402 50.906C14.4685 50.906 15.2166 50.268 15.4442 49.1499H17.3611C16.9812 51.1363 15.6742 52.5171 13.367 52.5171C10.921 52.5171 9.1698 50.8689 9.1698 47.7301C9.1698 44.5384 11.0223 42.9198 13.391 42.9198C16.1448 42.9198 17.2564 44.803 17.3611 46.1462H15.4442Z" fill="white"/>
<path d="M19.7073 48.0836L21.9608 45.5195H24.1556L21.7601 48.1312L24.22 52.2792H22.0755L20.4501 49.3758L19.7073 50.1443V52.2792H17.9187V45.5195H19.7073V48.0836Z" fill="white"/>
<path d="M30.7634 48.8859C30.7634 51.3225 29.114 52.4563 27.2879 52.4563C25.4647 52.4563 23.8018 51.3391 23.8018 48.9016C23.8018 46.4622 25.4647 45.3436 27.2879 45.3436C29.114 45.3436 30.7634 46.4489 30.7634 48.8859ZM25.6409 48.8859C25.6409 49.7519 25.906 50.9571 27.2879 50.9571C28.6703 50.9571 28.9239 49.7652 28.9239 48.9016C28.9239 48.0328 28.6703 46.8405 27.2879 46.8405C25.906 46.8405 25.6409 48.0195 25.6409 48.8859Z" fill="white"/>
<path d="M37.4845 45.5189V52.279H35.6958V46.9415H33.7818V49.026C33.7818 51.6115 32.9963 52.427 31.7397 52.427C31.4271 52.427 30.9162 52.377 30.6516 52.279V50.9573C30.6886 50.9834 30.9162 51.0077 31.1808 51.0077C31.7181 51.0077 31.9961 50.7451 31.9961 48.6868V45.5189H37.4845Z" fill="white"/>
<path d="M40.1865 48.0836L42.44 45.5195H44.6349L42.2369 48.1312L44.6992 52.2792H42.5548L40.9322 49.3758L40.1865 50.1443V52.2792H38.3979V45.5195H40.1865V48.0836Z" fill="white"/>
<path d="M51.2425 48.8859C51.2425 51.3225 49.596 52.4563 47.7699 52.4563C45.9438 52.4563 44.2838 51.3391 44.2838 48.9016C44.2838 46.4622 45.9438 45.3436 47.7699 45.3436C49.596 45.3436 51.2425 46.4489 51.2425 48.8859ZM46.1234 48.8859C46.1234 49.7519 46.388 50.9571 47.7699 50.9571C49.1461 50.9571 49.4087 49.7652 49.4087 48.9016C49.4087 48.0328 49.1461 46.8405 47.7699 46.8405C46.388 46.8405 46.1234 48.0195 46.1234 48.8859Z" fill="white"/>
<path d="M51.8222 45.5194H54.9021C56.4257 45.5194 57.5401 46.137 57.5401 47.2656C57.5401 48.044 56.9817 48.5445 56.2701 48.722C56.9678 48.8871 57.7428 49.3287 57.7428 50.4339C57.7428 51.6862 56.7863 52.28 55.2411 52.28H51.8222V45.5194ZM53.6075 48.2562H54.7734C55.3669 48.2562 55.787 48.0207 55.787 47.4906C55.787 46.9392 55.3827 46.7384 54.7868 46.7384H53.6075V48.2562ZM53.6075 51.0615H54.9227C55.5834 51.0615 55.9925 50.8602 55.9925 50.1922C55.9925 49.6018 55.5618 49.3287 54.9021 49.3287H53.6075V51.0615Z" fill="white"/>
<path d="M64.9017 48.8859C64.9017 51.3225 63.2576 52.4563 61.4291 52.4563C59.6054 52.4563 57.9402 51.3391 57.9402 48.9016C57.9402 46.4622 59.6054 45.3436 61.4291 45.3436C63.2576 45.3436 64.9017 46.4489 64.9017 48.8859ZM59.7797 48.8859C59.7797 49.7519 60.0491 50.9571 61.4291 50.9571C62.811 50.9571 63.0626 49.7652 63.0626 48.9016C63.0626 48.0328 62.811 46.8405 61.4291 46.8405C60.0491 46.8405 59.7797 48.0195 59.7797 48.8859Z" fill="white"/>
<path d="M22.1712 41.3917C23.6953 41.3917 27.4483 41.1272 30.253 39.0979V40.6371H35.9118L35.9176 33.8689L38.2805 31.4452L43.4241 40.6371H50.2137L42.4215 27.5032L50.0111 19.2252H43.0606L35.9176 27.3471V11.7447H30.253V14.2132C28.5282 12.378 25.7321 10.9901 21.3722 10.9901C11.9349 10.9901 10.163 16.6792 10.163 19.8637C10.163 24.2397 12.537 26.6715 16.6722 27.6649L22.5352 29.0952C25.6275 29.8527 27.8387 30.4089 27.8387 32.677C27.8387 35.7021 24.6229 36.4172 21.7304 36.4172C16.4288 36.4172 15.5467 33.3545 15.5467 31.7235H9.72174C9.72174 35.3044 11.569 41.3917 22.1712 41.3917ZM26.0289 24.1631L18.9233 22.4488C17.7152 22.1709 15.8271 21.6913 15.8271 19.4265C15.8271 16.8386 18.5997 15.9622 20.9285 15.9622C26.2296 15.9622 26.7136 19.0292 26.8711 20.3405H30.253V25.7261C29.0122 25.0081 27.5477 24.5418 26.0289 24.1631Z" fill="white"/>
</svg>
