<svg width="69" height="74" viewBox="0 0 69 74" fill="none" xmlns="http://www.w3.org/2000/svg">
<path d="M68.8806 69.1955L64.4588 2.86821C64.2198 1.19509 63.0247 0 61.4711 0H8.40921C6.85559 0 5.66051 1.19509 5.42149 2.86821L0.880158 69.5541C0.760649 70.5101 0.999667 71.4662 1.59721 72.1833C2.19475 72.9003 3.03131 73.3783 3.86788 73.3783H66.0124C67.6855 73.3783 69.0001 71.8247 69.0001 70.0321C69.0001 69.6736 69.0001 69.4346 68.8806 69.1955Z" fill="url(#paint0_linear)"/>
<path d="M66.0124 73.3783C67.6856 73.3783 69.0002 71.8247 69.0002 70.0321C69.0002 69.6736 69.0002 69.4346 68.8806 69.1955L64.4588 2.86821C64.2198 1.19509 63.0247 0 61.4711 0H8.40923C6.85561 0 5.66053 1.19509 5.42151 2.86821" fill="url(#paint1_linear)"/>
<path d="M56.3322 12.3094C56.3322 11.1143 55.3761 10.1582 54.181 10.1582C52.986 10.1582 52.0299 11.1143 52.0299 12.3094C52.0299 21.7505 44.3813 29.3991 34.9401 29.3991C31.5939 29.3991 28.4867 28.443 25.8575 26.7699L36.1352 38.7208C47.369 37.7647 56.3322 23.6627 56.3322 12.3094Z" fill="url(#paint2_linear)"/>
<path d="M34.9402 33.582C23.1088 33.582 13.5481 24.0213 13.5481 12.1899C13.5481 10.9949 14.5042 10.0388 15.6993 10.0388C16.8943 10.0388 17.8504 10.9949 17.8504 12.1899C17.8504 21.6311 25.499 29.2797 34.9402 29.2797C44.3813 29.2797 52.0299 21.6311 52.0299 12.1899C52.0299 10.9949 52.986 10.0388 54.1811 10.0388C55.3761 10.0388 56.3322 10.9949 56.3322 12.1899C56.3322 24.0213 46.7715 33.582 34.9402 33.582Z" fill="white"/>
<path d="M54.181 10.1582C52.986 10.1582 52.0299 11.1143 52.0299 12.3094C52.0299 19.2409 47.8471 25.2163 41.8716 27.8455C49.1617 25.3358 54.6591 19.0018 55.9737 11.1143C55.6151 10.5167 54.8981 10.1582 54.181 10.1582Z" fill="white"/>
<path d="M17.8504 12.3094C17.8504 11.1143 16.8943 10.1583 15.6992 10.1583C14.8627 10.1583 14.2651 10.6363 13.9066 11.2338C15.2212 19.0019 20.7186 25.3359 28.0086 27.9651C22.0332 25.2164 17.8504 19.2409 17.8504 12.3094Z" fill="white"/>
<path d="M0.880158 69.5541C0.760649 70.5102 0.999667 71.4662 1.59721 72.1833C2.19475 72.9003 3.03131 73.3784 3.86788 73.3784H66.0124C67.6855 73.3784 69.0001 71.8247 69.0001 70.0321C69.0001 69.6736 69.0001 69.4346 68.8806 69.1956" fill="#BF92FB"/>
<defs>
<linearGradient id="paint0_linear" x1="1.87937" y1="51.684" x2="67.666" y2="38.2585" gradientUnits="userSpaceOnUse">
<stop stop-color="#9210FD"/>
<stop offset="1" stop-color="#6728FF"/>
</linearGradient>
<linearGradient id="paint1_linear" x1="6.38157" y1="51.684" x2="68.0753" y2="39.9383" gradientUnits="userSpaceOnUse">
<stop stop-color="#9210FD"/>
<stop offset="1" stop-color="#6728FF"/>
</linearGradient>
<linearGradient id="paint2_linear" x1="26.3177" y1="30.2762" x2="55.3643" y2="23.4665" gradientUnits="userSpaceOnUse">
<stop stop-color="#9210FD"/>
<stop offset="1" stop-color="#6728FF"/>
</linearGradient>
</defs>
</svg>
