<svg width="73" height="73" viewBox="0 0 73 73" fill="none" xmlns="http://www.w3.org/2000/svg">
<path d="M36.2502 72.6261C56.2705 72.6261 72.5001 56.3964 72.5001 36.3761C72.5001 16.3558 56.2705 0.12616 36.2502 0.12616C16.2299 0.12616 0.000198364 16.3558 0.000198364 36.3761C0.000198364 56.3964 16.2299 72.6261 36.2502 72.6261Z" fill="url(#paint0_linear)"/>
<path d="M36.2502 72.6261C56.2705 72.6261 72.5001 56.3964 72.5001 36.3761C72.5001 16.3558 56.2705 0.12616 36.2502 0.12616C16.2299 0.12616 0.000198364 16.3558 0.000198364 36.3761C0.000198364 56.3964 16.2299 72.6261 36.2502 72.6261Z" fill="url(#paint1_linear)"/>
<path opacity="0.3" d="M50.7502 64.6746C35.0808 72.6262 15.9034 66.5455 7.71796 50.8761C-0.233643 35.2068 5.84698 16.0294 21.5163 7.84395C37.1857 -0.107659 56.3631 5.97297 64.5485 21.6423C72.734 37.5455 66.4195 56.723 50.7502 64.6746ZM23.6212 11.352C9.82281 18.3681 4.44379 35.2068 11.4599 49.0052C18.476 62.8036 35.3147 68.1826 49.1131 61.1665C62.9114 54.1504 68.2905 37.3117 61.2743 23.5133C54.2582 9.94881 37.4195 4.33588 23.6212 11.352Z" fill="white"/>
<g clip-path="url(#clip0)">
<path d="M23.1889 46.6985H27.8479V50.6924C27.8479 50.8867 27.91 51.0458 28.0351 51.1701C28.1599 51.2952 28.3193 51.3578 28.5136 51.3578H31.9868C32.167 51.3578 32.323 51.2952 32.4547 51.1701C32.5865 51.0458 32.6522 50.8866 32.6522 50.6924V46.6985H43.1554C43.3492 46.6985 43.5088 46.6368 43.6338 46.5116C43.7589 46.3866 43.821 46.2274 43.821 46.0331V43.3708C43.821 43.1776 43.7589 43.0174 43.6338 42.893C43.5091 42.7679 43.3492 42.7053 43.1554 42.7053H32.6518V40.251H39.7233C42.4963 40.251 44.7595 39.406 46.514 37.7137C48.2678 36.0232 49.1451 33.8394 49.1451 31.1623C49.1451 28.4869 48.2678 26.3031 46.514 24.6108C44.7599 22.9202 42.4962 22.0735 39.7233 22.0735H28.5133C28.3189 22.0735 28.1598 22.1361 28.0348 22.2605C27.91 22.3855 27.8475 22.5457 27.8475 22.7389V35.8215H23.1889C22.9947 35.8215 22.8355 35.8872 22.7104 36.0189C22.5858 36.1507 22.5232 36.3066 22.5232 36.4868V39.5855C22.5232 39.7798 22.5854 39.939 22.7104 40.064C22.8355 40.1892 22.9943 40.2509 23.1889 40.2509H27.8479V42.7053H23.1889C22.9947 42.7053 22.8355 42.7678 22.7104 42.893C22.5858 43.0173 22.5232 43.1772 22.5232 43.3707V46.033C22.5232 46.2273 22.5854 46.3865 22.7104 46.5116C22.8355 46.6368 22.9946 46.6985 23.1889 46.6985ZM32.6518 26.5041H39.3073C40.7769 26.5041 41.9622 26.9338 42.8638 27.7934C43.7649 28.6531 44.2156 29.7766 44.2156 31.1626C44.2156 32.5493 43.7649 33.6731 42.8638 34.5318C41.9622 35.3922 40.7769 35.8219 39.3073 35.8219H32.6518V26.5041Z" fill="white"/>
</g>
<defs>
<linearGradient id="paint0_linear" x1="11.3921" y1="16.6708" x2="64.8763" y2="58.7542" gradientUnits="userSpaceOnUse">
<stop offset="0.00514824" stop-color="#FFD84A"/>
<stop offset="1" stop-color="#FAB548"/>
</linearGradient>
<linearGradient id="paint1_linear" x1="72.5001" y1="72.6261" x2="32.327" y2="56.5098" gradientUnits="userSpaceOnUse">
<stop stop-color="#FF460F"/>
<stop offset="1" stop-color="#FFC400"/>
</linearGradient>
<clipPath id="clip0">
<rect width="29.2843" height="29.2843" fill="white" transform="translate(21.192 22.0735)"/>
</clipPath>
</defs>
</svg>
