<svg width="59" height="80" viewBox="0 0 59 80" fill="none" xmlns="http://www.w3.org/2000/svg">
<path d="M54.4525 0.145966H3.94161C1.75182 0.145966 0 1.89779 0 3.94159V55.7664L24.9635 79.854H54.4525C56.6423 79.854 58.3942 78.1022 58.3942 75.9124V3.94159C58.3942 1.89779 56.6423 0.145966 54.4525 0.145966Z" fill="url(#paint0_linear)"/>
<path d="M24.9635 79.854V59.7081C24.9635 57.5183 23.2117 55.7664 21.0219 55.7664H0L24.9635 79.854Z" fill="#2AB61F"/>
<path d="M49.1971 12.5548C49.1971 12.9927 48.9051 13.2847 48.4671 13.2847H9.78101C9.34306 13.2847 9.05109 12.9927 9.05109 12.5548C9.05109 12.1168 9.34306 11.8248 9.78101 11.8248H48.4671C48.9051 11.8248 49.1971 12.1168 49.1971 12.5548Z" fill="white"/>
<path d="M49.1971 18.3942C49.1971 18.8322 48.9051 19.1241 48.4671 19.1241H9.78101C9.34306 19.1241 9.05109 18.8322 9.05109 18.3942C9.05109 17.9562 9.34306 17.6643 9.78101 17.6643H48.4671C48.9051 17.6643 49.1971 17.9562 49.1971 18.3942Z" fill="white"/>
<path d="M49.1971 24.2336C49.1971 24.6716 48.9051 24.9635 48.4671 24.9635H9.78101C9.34306 24.9635 9.05109 24.6716 9.05109 24.2336C9.05109 23.7956 9.34306 23.5037 9.78101 23.5037H48.4671C48.9051 23.5037 49.1971 23.9416 49.1971 24.2336Z" fill="white"/>
<path d="M49.1971 30.073C49.1971 30.511 48.9051 30.8029 48.4671 30.8029H9.78101C9.34306 30.8029 9.05109 30.511 9.05109 30.073C9.05109 29.635 9.34306 29.3431 9.78101 29.3431H48.4671C48.9051 29.4891 49.1971 29.781 49.1971 30.073Z" fill="white"/>
<path d="M49.1971 36.0584C49.1971 36.4964 48.9051 36.7883 48.4671 36.7883H9.78101C9.34306 36.7883 9.05109 36.4964 9.05109 36.0584C9.05109 35.6205 9.34306 35.3285 9.78101 35.3285H48.4671C48.9051 35.3285 49.1971 35.6205 49.1971 36.0584Z" fill="white"/>
<path d="M49.1971 41.8979C49.1971 42.3358 48.9051 42.6278 48.4671 42.6278H9.78101C9.34306 42.6278 9.05109 42.3358 9.05109 41.8979C9.05109 41.4599 9.34306 41.1679 9.78101 41.1679H48.4671C48.9051 41.1679 49.1971 41.4599 49.1971 41.8979Z" fill="white"/>
<g clip-path="url(#clip0)">
<path d="M48.7613 60.8352H43.9966V62.3871H45.5729V63.4433H43.9966V64.4756H45.5567V65.5157H43.9966V66.5558H45.5567V67.5959H43.9966V68.636H45.5567V69.6762H43.9966V71.2363H48.7613C49.0011 71.2363 49.1971 71.033 49.1971 70.7839V61.2877C49.1971 61.0386 49.0011 60.8352 48.7613 60.8352ZM48.157 69.6762H46.0768V68.636H48.157V69.6762ZM48.157 67.5959H46.0768V66.5558H48.157V67.5959ZM48.157 65.5157H46.0768V64.4756H48.157V65.5157ZM48.157 63.4355H46.0768V62.3954H48.157V63.4355Z" fill="white"/>
<path d="M35.6757 60.7775V71.2945L43.4765 72.7965V59.2751L35.6757 60.7775ZM40.61 68.6776L39.7025 66.962C39.6682 66.898 39.6328 66.7805 39.5959 66.6094H39.5818C39.5647 66.69 39.5241 66.8127 39.4601 66.9771L38.5495 68.6776H37.1355L38.8142 66.0441L37.2785 63.41H38.7222L39.4752 64.9894C39.534 65.1142 39.5865 65.2624 39.6333 65.4335H39.6479C39.6775 65.3306 39.7327 65.1777 39.8133 64.9743L40.6506 63.4095H41.9725L40.3931 66.0212L42.0167 68.6771L40.61 68.6776Z" fill="white"/>
</g>
<defs>
<linearGradient id="paint0_linear" x1="0" y1="0.145966" x2="61.6046" y2="3.9032" gradientUnits="userSpaceOnUse">
<stop stop-color="#45D53A"/>
<stop offset="1" stop-color="#24BD18"/>
</linearGradient>
<clipPath id="clip0">
<rect width="13.5214" height="13.5214" fill="white" transform="translate(35.6757 59.2751)"/>
</clipPath>
</defs>
</svg>
