<svg width="125" height="125" viewBox="0 0 125 125" fill="none" xmlns="http://www.w3.org/2000/svg">
<path fill-rule="evenodd" clip-rule="evenodd" d="M62.5 124.233C96.7417 124.233 124.5 96.4746 124.5 62.2329C124.5 27.9913 96.7417 0.23291 62.5 0.23291C28.2583 0.23291 0.5 27.9913 0.5 62.2329C0.5 96.4746 28.2583 124.233 62.5 124.233Z" fill="#D9F6D6"/>
<path d="M90.986 37.0923L55.6659 71.9596C54.7139 72.8994 53.1703 72.8994 52.2183 71.9596L37.014 56.9502L25 68.8101L47.9349 91.4513C49.5281 93.0241 51.6889 93.9076 53.942 93.9076C56.1948 93.9076 58.3558 93.0239 59.9489 91.4513L103 48.9521L90.986 37.0923Z" fill="#A5EB78"/>
<path d="M90.986 37.0923L55.6659 71.9596C54.7139 72.8994 53.1703 72.8994 52.2183 71.9596L37.014 56.9502L25 68.8101L47.9349 91.4513C49.5281 93.0241 51.6889 93.9076 53.942 93.9076C56.1948 93.9076 58.3558 93.0239 59.9489 91.4513L103 48.9521L90.986 37.0923Z" fill="url(#paint0_linear)"/>
<g opacity="0.2">
<path d="M99.027 45.0303L53.5782 89.8966C52.3207 91.1378 50.7395 91.9843 49.0312 92.3617C50.4576 93.3595 52.1707 93.9077 53.942 93.9077C56.1948 93.9077 58.3558 93.024 59.9489 91.4514L103 48.9522L99.027 45.0303Z" fill="url(#paint1_linear)"/>
<path d="M99.027 45.0303L53.5782 89.8966C52.3207 91.1378 50.7395 91.9843 49.0312 92.3617C50.4576 93.3595 52.1707 93.9077 53.942 93.9077C56.1948 93.9077 58.3558 93.024 59.9489 91.4514L103 48.9522L99.027 45.0303Z" fill="white"/>
</g>
<defs>
<linearGradient id="paint0_linear" x1="25" y1="37.0923" x2="106.529" y2="46.4105" gradientUnits="userSpaceOnUse">
<stop stop-color="#45D53A"/>
<stop offset="1" stop-color="#24BD18"/>
</linearGradient>
<linearGradient id="paint1_linear" x1="99.7227" y1="49.1867" x2="54.6963" y2="94.1087" gradientUnits="userSpaceOnUse">
<stop stop-color="#60E955"/>
<stop offset="1" stop-color="#45D539"/>
</linearGradient>
</defs>
</svg>
